<svg width="51" height="34" viewBox="0 0 51 34" fill="none" xmlns="http://www.w3.org/2000/svg">
<path d="M0 11.2532V8.9026L0.00995706 6.54199L1.54334 6.60201L1.59313 11.2532H0Z" fill="white"/>
<path d="M49.3771 11.2132V8.8826V6.562L50.9702 6.61201V11.2132H49.3771Z" fill="white"/>
<path d="M49.3672 13.3737C49.3572 12.2234 49.3771 11.2631 49.417 11.2431H49.407C49.4468 11.2231 49.7953 11.2031 50.9304 11.2031V15.4042L49.3871 15.4542L49.3672 13.3737Z" fill="white"/>
<path d="M0.0100098 15.4542V13.3537V11.2531H1.60314V15.4542H0.0100098Z" fill="white"/>
<path d="M49.8052 2.54089C50.0442 2.53088 50.3728 2.49087 50.5321 2.45086C50.6914 2.41085 50.8607 2.37084 50.9005 2.36084C50.9503 2.36084 50.9802 3.29108 50.9802 4.45138C50.9802 6.03179 50.9503 6.57193 50.8607 6.61194C50.791 6.65195 50.4325 6.65195 49.387 6.55192V4.95151H1.59313V6.60194L1.2745 6.58193C1.09528 6.57193 0.736823 6.56193 0 6.55192V2.45086L1.54334 2.50088L1.59313 3.3511H49.387V2.55089L49.8052 2.54089Z" fill="white"/>
<path d="M0 24.0064V21.8258V19.6553L0.378368 19.7153C0.57751 19.7453 0.935964 19.7753 1.59313 19.8053V23.8563H1.12515C0.856307 23.8563 0.497853 23.8864 0 24.0064Z" fill="white"/>
<path d="M49.387 23.9464L49.397 21.7958L49.4069 19.6353L49.6758 19.6853C49.8152 19.7153 50.1736 19.7653 50.9901 19.8653L50.9802 23.8463L50.4126 23.8563C50.094 23.8563 49.7355 23.8764 49.387 23.9464Z" fill="white"/>
<path d="M49.3871 15.4541L50.1637 15.4241H50.1538C50.5819 15.4041 50.9404 15.3841 50.9503 15.3741C50.9703 15.3641 50.9802 16.3644 50.9802 19.8553L50.4525 19.7952C50.1737 19.7652 49.8152 19.7252 49.3871 19.6552V15.4541Z" fill="white"/>
<path d="M0.0100098 19.6552V17.5547V15.4541H1.60314L1.55335 19.8052L1.10529 19.7852C0.85636 19.7652 0.507863 19.7352 0.0100098 19.6552Z" fill="white"/>
<path d="M0 30.6582C0 30.5481 0.179227 30.4781 0.617338 30.3981C0.965835 30.3381 1.30438 30.2881 1.38403 30.2981C1.46369 30.3081 1.57322 30.4681 1.61304 30.6582C1.66283 30.8482 1.81219 31.1083 2.19055 31.4584H25.4702C48.7199 31.4684 48.7398 31.4684 49.0186 31.2583C49.1978 31.1283 49.3173 30.9182 49.4368 30.2681L50.084 30.3281C50.4425 30.3581 50.791 30.4381 50.8607 30.4981C50.9802 30.5881 50.9802 30.6982 50.8706 31.1583C50.8009 31.4584 50.6018 31.8885 50.4425 32.0985C50.2732 32.3186 49.9148 32.6087 49.1481 33.0088L25.6394 33.0388C3.81356 33.0588 2.10094 33.0488 1.64292 32.8887C1.33425 32.7887 0.985749 32.5587 0.726866 32.2886C0.428154 31.9985 0.248927 31.6984 0.149356 31.3383C0.0696994 31.0483 0 30.7382 0 30.6582Z" fill="white"/>
<path d="M0.896136 0.639957C1.08532 0.479916 1.42386 0.279864 1.64292 0.199843C1.98146 0.0798124 5.27724 0.0598073 25.4403 0.0498047C47.2463 0.0498047 48.8693 0.0598073 49.3372 0.219849C49.6459 0.319875 49.9944 0.549934 50.2533 0.820004C50.552 1.12008 50.7312 1.41016 50.8308 1.77025C50.9105 2.06032 50.9702 2.31039 50.9503 2.33039C50.9403 2.3404 50.7511 2.39041 50.5321 2.45043C50.313 2.50044 49.9645 2.55045 49.7554 2.55045C49.4368 2.55045 49.3771 2.51044 49.3074 2.28038C49.2675 2.14035 49.1281 1.93029 48.9887 1.83026C48.7498 1.65022 48.0528 1.64022 25.4901 1.64022C2.92738 1.64022 2.23038 1.65022 1.99141 1.83026C1.85201 1.93029 1.71261 2.13034 1.67279 2.26038C1.60309 2.49044 1.57322 2.50044 0 2.45043L0.0597424 2.12034C0.0896136 1.9503 0.209098 1.60021 0.328583 1.36014C0.448068 1.12008 0.706951 0.789996 0.896136 0.639957Z" fill="white"/>
<path d="M0 30.5077V28.7272L0.00995706 26.9468L1.59313 27.0068V28.6572C1.59313 30.2976 1.59313 30.3076 1.37407 30.3176C1.24463 30.3277 0.886178 30.3677 0 30.5077Z" fill="white"/>
<path d="M49.3771 30.2076V28.5872L49.387 26.9568H49.6559C49.8052 26.9568 50.1637 26.9968 50.9802 27.1068V28.8573C50.9802 30.2676 50.9503 30.5877 50.8507 30.4777C50.781 30.4077 50.5719 30.3577 50.3827 30.3577C50.1836 30.3577 49.8849 30.3277 49.3771 30.2076Z" fill="white"/>
<path d="M0 25.4269C0 23.9765 0 23.9565 0.229012 23.9165H0.219055C0.348497 23.8965 0.706951 23.8765 1.59313 23.8564V25.4068C1.59313 26.5571 1.56326 26.9673 1.47365 26.9973C1.40395 27.0173 1.04549 27.0073 0 26.9072V25.4269Z" fill="white"/>
<path d="M49.3771 25.4669C49.3472 24.0465 49.3572 23.9665 49.5463 23.9265C49.6559 23.8965 50.0243 23.8765 50.9901 23.8564V27.1073L50.4723 27.0373C50.1836 26.9973 49.8251 26.9572 49.397 26.9572L49.3771 25.4669Z" fill="white"/>
<path d="M37.0899 33.1283C30.6776 33.1482 20.2227 33.1482 13.8402 33.1283C7.45773 33.1184 12.7051 33.1084 25.49 33.1084C38.2748 33.1084 43.5023 33.1184 37.0899 33.1283Z" fill="white"/>
<path d="M37.0901 1.72069C30.6777 1.74069 20.2228 1.74069 13.8403 1.72069C7.45785 1.71069 12.7052 1.70068 25.4901 1.70068C38.275 1.70068 43.5024 1.71069 37.0901 1.72069Z" fill="white"/>
<path d="M1.62302 5.35163C1.59315 5.27161 1.6031 5.14157 1.63297 5.07156C1.63524 5.06586 1.65306 5.06043 1.69255 5.05525L1.69272 5.05155C1.70347 5.05155 1.71423 5.05155 1.72498 5.05155C2.54615 4.96905 9.53746 4.95506 49.3373 5.00154L49.3572 5.22159C49.3771 5.41164 49.3771 5.41164 49.3373 5.2516C49.2875 5.0516 49.2078 5.05155 1.72498 5.05155C1.71285 5.05277 1.70207 5.054 1.69255 5.05525L1.68276 5.27161C1.68276 5.42165 1.66284 5.44165 1.62302 5.35163Z" fill="white"/>
<path d="M1.66286 11.4529C1.6529 12.5832 1.64294 11.683 1.64294 9.45239C1.64294 7.22181 1.6529 6.30158 1.66286 7.40186C1.68277 8.50214 1.68277 10.3226 1.66286 11.4529Z" fill="white"/>
<path d="M49.3572 11.4529C49.3472 12.5832 49.3373 11.683 49.3373 9.45239C49.3373 7.22181 49.3472 6.30158 49.3572 7.40186C49.3771 8.50214 49.3771 10.3226 49.3572 11.4529Z" fill="white"/>
<path d="M1.66286 19.9551C1.6529 21.1954 1.64294 20.2252 1.64294 17.8046C1.64294 15.3839 1.6529 14.3737 1.66286 15.554C1.68277 16.7343 1.68277 18.7148 1.66286 19.9551Z" fill="white"/>
<path d="M49.3572 19.9551C49.3472 21.1954 49.3373 20.2252 49.3373 17.8046C49.3373 15.3839 49.3472 14.3737 49.3572 15.554C49.3771 16.7343 49.3771 18.7148 49.3572 19.9551Z" fill="white"/>
<path d="M37.0899 0.0199141C30.6776 0.0398283 20.2227 0.0398283 13.8402 0.0199141C7.45773 0.00995706 12.7051 0 25.49 0C38.2748 0 43.5023 0.00995706 37.0899 0.0199141Z" fill="white"/>
<path d="M1.66286 28.6577C1.6529 29.838 1.64294 28.8477 1.64294 26.4571C1.64294 24.0665 1.6529 23.0962 1.66286 24.3065C1.68277 25.5169 1.68277 27.4774 1.66286 28.6577Z" fill="white"/>
<path d="M49.3572 28.6577C49.3472 29.838 49.3373 28.8477 49.3373 26.4571C49.3373 24.0665 49.3472 23.0962 49.3572 24.3065C49.3771 25.5169 49.3771 27.4774 49.3572 28.6577Z" fill="white"/>
<path d="M37.09 31.4281C30.6777 31.448 20.2427 31.448 13.8901 31.4281C7.53749 31.4182 12.7749 31.4082 25.5399 31.4082C38.3048 31.4082 43.5024 31.4182 37.09 31.4281Z" fill="white"/>
<path fill-rule="evenodd" clip-rule="evenodd" d="M3.28589 6.65186H26.2867V11.3031L25.8187 11.223C25.5499 11.183 25.1914 11.153 24.6936 11.153V8.25227H22.8017C21.7662 8.25227 20.9099 8.27227 20.9099 8.30228C20.9099 8.33229 21.0194 8.50233 21.1489 8.68238C21.2883 8.85242 21.5272 9.29254 21.6965 9.65263C21.8658 10.0127 22.0251 10.4828 22.0649 10.7029C22.1147 10.993 22.0948 11.123 21.9952 11.193C21.9156 11.243 21.5671 11.253 20.5614 11.143L20.4319 10.7229C20.3523 10.4928 20.1532 10.0827 19.9839 9.81267C19.8047 9.5426 19.5059 9.20252 19.3168 9.04247C19.1276 8.89243 18.7492 8.66238 18.4704 8.53234C17.9925 8.31228 17.873 8.30228 15.0352 8.27227C12.307 8.24227 12.0481 8.26227 11.4208 8.45232C10.8632 8.62237 10.6541 8.7524 10.1164 9.28254C9.62854 9.76266 9.4294 10.0427 9.25017 10.5329C9.12073 10.8729 8.99128 11.163 8.96141 11.173C8.93154 11.173 8.8021 11.193 8.6627 11.213C8.5233 11.233 8.20468 11.223 7.93584 11.203C7.65704 11.173 7.46785 11.103 7.46785 11.023C7.46785 10.963 7.54751 10.6129 7.65704 10.2528C7.76657 9.89269 8.05532 9.30254 8.76227 8.25227H4.87902V11.3031L4.36125 11.233C4.0725 11.193 3.71404 11.153 3.28589 11.153V6.65186ZM27.9794 6.65186H34.5511V11.5531H27.9794V6.65186ZM29.6721 9.95271H32.8584V8.3523H29.6721V9.95271ZM36.2438 6.65186H47.6944V11.5531H36.2438V6.65186ZM37.8369 9.95271H46.0017V8.3523H37.8369V9.95271ZM12.3667 10.0527C12.775 10.0527 12.8646 10.0927 12.994 10.3028C13.0737 10.4428 13.1434 10.5629 13.1434 10.5729C13.1434 10.5929 12.8148 10.6129 12.4265 10.6129C12.0282 10.6229 11.5901 10.6629 11.4507 10.7029C11.2117 10.7729 11.2217 10.7529 11.5403 10.4128C11.849 10.0927 11.9485 10.0527 12.3667 10.0527Z" fill="white"/>
<path d="M12.4165 10.053C12.0381 10.053 12.0083 10.033 12.1377 9.90297C12.2273 9.82295 12.3966 9.75293 12.5161 9.75293C12.6455 9.75293 12.765 9.82295 12.7949 9.90297C12.8347 10.023 12.7551 10.053 12.4165 10.053Z" fill="white"/>
<path d="M14.4079 12.0535C14.4577 12.0535 14.6668 11.6934 14.8759 11.2533C15.1248 10.7432 15.324 10.4531 15.4235 10.4531C15.5132 10.4631 15.9214 10.7832 16.3296 11.1833C16.7379 11.5834 17.2955 12.0135 17.5743 12.1435C17.9128 12.3136 18.331 12.4036 19.715 12.5036V12.8737C19.715 13.2238 19.735 13.2538 19.9839 13.2538C20.2328 13.2638 20.2826 13.2038 20.412 12.7837C20.4917 12.5236 20.5614 12.0435 20.5614 11.1633L21.3281 11.1833C22.1047 11.2033 22.1047 11.2033 22.1645 11.5034C22.1944 11.6734 22.1744 12.0735 22.1147 12.4036C22.055 12.7337 21.9653 13.1538 21.9056 13.3239C21.816 13.6139 21.8359 13.6639 22.0052 13.754C22.1147 13.814 22.3437 14.044 22.503 14.2741C22.6723 14.5142 22.8117 14.7242 22.8117 14.7542C22.8117 14.7842 22.6125 14.8542 22.3835 14.9243C22.1446 14.9943 21.7762 15.0643 21.5571 15.0843C21.3082 15.1143 21.0792 15.0743 20.9597 14.9943C20.8501 14.9143 20.5315 14.8542 20.2328 14.8542C19.7847 14.8542 19.715 14.8843 19.715 15.0543C19.715 15.2443 19.6653 15.2544 19.038 15.1943C18.6695 15.1643 18.3111 15.1143 18.2414 15.0943C18.1717 15.0743 18.1219 14.8643 18.1219 14.004L17.5444 13.834C17.2357 13.744 16.718 13.5039 15.8318 12.9538L15.5032 13.6039C15.3339 13.964 15.1547 14.2541 15.1049 14.2541C15.0651 14.2541 14.7066 14.084 14.3084 13.884C13.8304 13.6339 13.3525 13.2638 12.1477 12.0535L11.9286 12.3736C11.8091 12.5537 11.6498 12.9037 11.5801 13.1538C11.5104 13.4039 11.4507 13.934 11.4507 15.0543L11.1221 15.0643C10.9528 15.0743 10.5944 15.0943 10.3255 15.1143C9.95712 15.1443 9.85755 15.1243 9.85755 15.0043C9.85755 14.8843 9.74802 14.8643 9.32983 14.8943C9.05103 14.9243 8.5233 14.9743 8.16485 15.0043C7.71678 15.0543 7.40811 15.0343 7.14923 14.9443C6.8306 14.8242 6.79077 14.7842 6.89035 14.6042C6.95009 14.4942 7.16914 14.2241 7.75661 13.6039L7.61721 13.0538C7.53755 12.7537 7.46785 12.2136 7.46785 11.2033H9.06099L9.07094 11.8535C9.07094 12.2136 9.13068 12.6637 9.20038 12.8537C9.29995 13.1338 9.38957 13.2138 9.61858 13.2338C9.87746 13.2638 9.91729 13.2338 9.98699 12.8837C10.0368 12.6737 10.1861 12.2736 10.3156 12.0035C10.455 11.7234 10.7039 11.3333 10.8831 11.1233C11.1719 10.7832 11.2715 10.7332 11.849 10.6532C12.2074 10.6031 12.6654 10.5931 12.8745 10.6332C13.0737 10.6732 13.243 10.7332 13.243 10.7732C13.243 10.8232 13.4919 11.1233 13.7906 11.4534C14.0893 11.7835 14.3681 12.0535 14.4079 12.0535Z" fill="white"/>
<path d="M3.28589 15.0543V13.1038V11.1533H3.56469C3.71404 11.1533 4.0725 11.1933 4.87902 11.3033V15.0543H3.28589Z" fill="white"/>
<path d="M24.6936 15.0543V13.1038V11.1533H25.0222C25.1914 11.1533 25.5499 11.1833 26.2867 11.3033V15.0543H24.6936Z" fill="white"/>
<path d="M27.9794 13.3539L28.308 13.3239C28.4773 13.3038 29.3037 13.2738 30.1202 13.2738C30.9466 13.2638 31.8925 13.2838 32.8584 13.4039V14.9543L32.5397 15.0043C32.3605 15.0243 32.0021 15.0743 31.7432 15.1043C31.3648 15.1443 31.2652 15.1243 31.2652 15.0043C31.2652 14.8843 31.1059 14.8542 30.4189 14.8542C29.9509 14.8542 29.5626 14.8943 29.5526 14.9443C29.5327 14.9943 29.1842 15.0443 28.0292 15.1043L27.9794 13.3539Z" fill="white"/>
<path d="M34.5511 14.024C34.5511 13.3639 34.561 13.3539 34.8299 13.3139C34.9792 13.3038 35.8355 13.2738 36.7416 13.2738C37.6477 13.2638 38.6235 13.2938 39.43 13.4039V14.1241C39.43 14.7042 39.4002 14.8542 39.2807 14.8542C39.201 14.8542 39.1214 14.8943 39.1114 14.9443C39.0915 14.9943 38.8027 15.0443 38.4642 15.0643C38.0062 15.0943 37.8369 15.0743 37.8369 14.9743C37.8369 14.8843 37.5979 14.8542 36.9905 14.8542C36.1542 14.8542 36.1442 14.8542 36.1442 15.1043C36.1442 15.3144 36.0944 15.3544 35.8455 15.3544C35.6862 15.3544 35.5368 15.3944 35.5269 15.4444C35.5069 15.5044 35.3178 15.5144 35.0788 15.4744C34.7004 15.4144 34.6606 15.3744 34.6108 15.0543C34.5809 14.8643 34.5511 14.4041 34.5511 14.024Z" fill="white"/>
<path d="M41.1227 13.3539L41.5509 13.3239C41.7799 13.3038 42.6462 13.2838 43.4626 13.2738C44.2891 13.2638 45.1952 13.2938 46.0017 13.4039V14.9543L45.6333 15.0043C45.4242 15.0343 45.0657 15.0943 44.8367 15.1343C44.4683 15.1943 44.4086 15.1843 44.4086 15.0243C44.4086 14.8743 44.299 14.8542 43.5622 14.8542C42.8752 14.8542 42.7159 14.8843 42.7159 15.0043C42.7159 15.1343 42.5964 15.1443 41.9989 15.0943C41.6007 15.0543 41.2422 15.0143 41.2024 14.9943C41.1526 14.9743 41.1227 14.5942 41.1227 13.3539Z" fill="white"/>
<path d="M41.9193 15.6545C41.282 15.6545 41.1227 15.6244 41.1227 15.5044C41.1227 15.3844 41.282 15.3544 41.9193 15.3544C42.5565 15.3544 42.7159 15.3844 42.7159 15.5044C42.7159 15.6244 42.5565 15.6545 41.9193 15.6545Z" fill="white"/>
<path d="M44.9363 15.6345C44.528 15.6545 44.4086 15.6244 44.4086 15.5044C44.4086 15.3844 44.528 15.3544 45.454 15.3944L44.4583 15.4944L45.454 15.6244L44.9363 15.6345Z" fill="white"/>
<path d="M11.8987 19.9053C12.068 19.8753 12.3568 19.8053 12.546 19.7653C12.7351 19.7153 12.9542 19.6753 13.0239 19.6653C13.0836 19.6653 13.1434 19.7253 13.1434 19.8053C13.1434 19.8853 13.233 19.9554 13.3425 19.9554C13.4753 19.9554 13.608 20.0887 13.7408 20.3555C13.8802 20.6355 13.9399 20.9556 13.9399 21.4057C13.9399 22.0059 13.9798 22.1059 14.7863 23.3662L15.2045 22.7361C15.5928 22.1659 15.6326 22.0459 15.6326 21.4757C15.6326 21.1357 15.6824 20.7356 15.7422 20.5755C15.792 20.4255 15.9712 20.1554 16.1305 19.9754C16.2799 19.8053 16.479 19.6553 16.5686 19.6553C16.6582 19.6553 16.7279 19.7253 16.7279 19.8053C16.7279 19.8953 16.8175 19.9554 16.9569 19.9554C17.0764 19.9554 17.3054 20.0054 17.4747 20.0554C17.644 20.1054 17.9029 20.1854 18.341 20.3054L17.7834 20.7055C17.3552 21.0156 17.2357 21.1657 17.2258 21.3757C17.2258 21.6258 17.2656 21.6658 17.6539 21.7058C17.8829 21.7358 18.3011 21.8158 18.57 21.8758C18.8488 21.9359 19.3466 22.1159 19.6951 22.2659C20.0337 22.426 20.3125 22.616 20.3125 22.6761C20.3125 22.7461 20.2726 22.8561 20.2328 22.9261C20.193 22.9861 19.8246 23.0862 18.6695 23.2262L19.4362 23.2462C19.9839 23.2562 20.193 23.2862 20.1332 23.3662C20.0934 23.4262 20.1332 23.5163 20.2129 23.5663C20.3423 23.6363 20.3324 23.6663 20.1631 23.7963C20.0237 23.9064 20.0038 23.9764 20.0735 24.0264C20.1332 24.0764 20.1731 24.1864 20.1532 24.2765C20.1332 24.3765 20.1532 24.4565 20.2129 24.4565C20.2726 24.4565 20.3125 24.4065 20.3125 24.3565C20.3125 24.2965 20.3423 24.2565 20.3822 24.2565C20.4319 24.2565 20.4519 24.3565 20.4519 24.4865L20.4518 24.4868C20.4419 24.6067 20.4319 24.7266 20.4319 24.7566C20.422 24.7866 20.2129 24.6166 19.964 24.3765C19.715 24.1464 19.3267 23.8564 19.0977 23.7463C18.8587 23.6263 18.3808 23.4663 18.0223 23.3962C17.6639 23.3162 17.2457 23.2562 17.0764 23.2562C16.8175 23.2562 16.718 23.3462 16.3097 23.9864C16.0508 24.3765 15.8318 24.6266 15.8318 24.5265C15.8318 24.3865 15.7621 24.3665 15.3837 24.4065C15.1149 24.4365 14.9357 24.4165 14.9357 24.3565C14.9357 24.2965 14.7166 24.2565 14.4378 24.2565C14.169 24.2565 13.8603 24.2965 13.7707 24.3465C13.6213 24.4265 13.5217 24.3365 13.223 23.8464C12.9144 23.3562 12.7949 23.2562 12.5758 23.2562C12.4165 23.2562 12.0282 23.3062 11.6996 23.3662C11.371 23.4262 10.8831 23.5763 10.6043 23.7063C10.3355 23.8364 9.92725 24.0964 9.30991 24.6366L8.81206 24.2465L9.55884 24.2565L9.19043 23.9064C8.98133 23.7163 8.86184 23.5663 8.91163 23.5663C8.96141 23.5663 8.9415 23.4963 8.86184 23.4062C8.72244 23.2662 8.74236 23.2462 9.06098 23.2562C9.39952 23.2562 9.40948 23.2562 9.33978 22.9361C9.28004 22.636 9.29995 22.586 9.63849 22.386C9.83764 22.276 10.3255 22.0859 10.7039 21.9759C11.0823 21.8558 11.61 21.7458 11.8788 21.7158C12.307 21.6558 12.3468 21.6358 12.3468 21.3757C12.3468 21.1857 12.2572 21.0456 12.0182 20.8856C11.849 20.7656 11.5702 20.5255 11.1022 20.0654L11.3511 20.0154C11.4905 19.9854 11.7295 19.9353 11.8987 19.9053Z" fill="white"/>
<path d="M3.28589 23.5563V21.6558V19.7553H4.87902V23.4062L4.36125 23.4763C4.0725 23.5163 3.71404 23.5563 3.28589 23.5563Z" fill="white"/>
<path d="M24.7533 23.7763C24.7234 23.8464 24.7035 22.9761 24.7035 21.8258L24.6936 19.7553H25.1914C25.4702 19.7553 25.6893 19.7953 25.6893 19.8553C25.6893 19.9053 25.8287 19.9554 26.2867 19.9554V23.5063L25.8187 23.5863C25.5499 23.6263 25.2213 23.6563 25.0719 23.6563C24.9126 23.6563 24.7732 23.7163 24.7533 23.7763Z" fill="white"/>
<path d="M27.9794 23.1462V22.346V21.5458H39.43V23.1462H27.9794Z" fill="white"/>
<path d="M4.53052 23.7463C4.34134 23.7463 4.18202 23.7063 4.18202 23.6463C4.18202 23.5963 4.34134 23.5463 4.53052 23.5463C4.71971 23.5463 4.87902 23.5963 4.87902 23.6463C4.87902 23.7063 4.71971 23.7463 4.53052 23.7463Z" fill="white"/>
<path d="M6.67129 15.3541C6.67129 15.2441 6.70116 15.0841 6.74099 14.994C6.79077 14.884 6.87043 14.864 7.01979 14.914C7.12931 14.954 7.49773 15.004 8.46356 15.0541L8.31421 15.3241C8.23455 15.4842 8.16485 15.6842 8.16485 15.7742C8.16485 15.8743 8.27438 16.0843 8.41378 16.2544C8.64279 16.5244 8.72245 16.5544 9.85755 16.5544V15.8543C9.85755 15.3641 9.89738 15.1541 9.97703 15.1441C10.0467 15.1441 10.4052 15.1241 10.7736 15.0941C11.4407 15.0541 11.4507 15.0541 11.4507 15.3041C11.4507 15.5342 11.4109 15.5542 10.4052 15.5942L11.4009 15.6642L11.4706 16.5845C11.5104 17.0946 11.6199 17.7247 11.7195 18.0048C11.8191 18.3049 12.1078 18.735 12.4165 19.0751C12.7351 19.4352 12.8945 19.6753 12.8148 19.6953C12.7551 19.7153 12.5659 19.7653 12.3966 19.8053C12.2273 19.8353 11.8689 19.9053 11.6 19.9653C11.1221 20.0553 11.0922 20.0453 10.8831 19.7853C10.7636 19.6252 10.5745 19.3252 10.4649 19.1051C10.3554 18.885 10.216 18.585 10.1662 18.4249C10.0567 18.1649 10.0368 18.1549 9.28004 18.1549C8.69257 18.1549 8.40382 18.1048 8.01549 17.9248C7.7367 17.7948 7.3882 17.5347 7.22889 17.3446C7.06957 17.1546 6.88039 16.8645 6.82065 16.7045C6.75095 16.5344 6.67129 16.2344 6.63146 16.0243C6.58168 15.7142 6.60159 15.6542 6.74099 15.6442C6.84056 15.6442 6.86047 15.6242 6.79077 15.5942C6.73103 15.5742 6.67129 15.4642 6.67129 15.3541Z" fill="white"/>
<path d="M21.7463 15.0441C21.9753 15.0441 22.2441 15.004 22.3537 14.954C22.4632 14.904 22.6125 14.874 22.6922 14.884C22.7719 14.894 22.8814 15.0341 22.9312 15.2041C23.0009 15.4342 22.9909 15.5242 22.8913 15.5742C22.7818 15.6342 22.7818 15.6542 22.9013 15.6542C23.0208 15.6542 23.0407 15.7242 22.971 16.0543C22.9312 16.2744 22.8216 16.6245 22.7121 16.8245C22.6125 17.0346 22.3537 17.3647 22.1346 17.5547C21.9156 17.7448 21.5571 17.9648 21.348 18.0248C21.1389 18.0948 20.641 18.1549 19.5657 18.1549L19.267 18.825C19.0977 19.1951 18.8089 19.6652 18.2713 20.2654L17.8232 20.1554C17.5743 20.0854 17.2258 20.0153 17.0465 19.9953C16.8375 19.9653 16.718 19.8953 16.6981 19.7853C16.6881 19.6853 16.8673 19.4152 17.0963 19.1851C17.3353 18.9451 17.644 18.4949 17.7933 18.1749C18.0423 17.6647 18.0721 17.4647 18.1418 15.1041L18.799 15.1741C19.1674 15.2141 19.5259 15.2441 19.5856 15.2441C19.6752 15.2541 19.715 15.4542 19.715 16.5544H20.3125C20.7804 16.5544 20.9497 16.5144 21.109 16.3544C21.2186 16.2444 21.338 16.0343 21.3679 15.8743C21.3978 15.7242 21.3779 15.5042 21.3181 15.3741C21.2584 15.2541 21.2385 15.1341 21.2783 15.1041C21.3082 15.0741 21.5272 15.0541 21.7463 15.0441Z" fill="white"/>
<path d="M38.6335 15.0541C38.9023 15.0541 39.1313 15.014 39.1313 14.954C39.1313 14.894 39.201 14.854 39.2807 14.854C39.4101 14.854 39.43 15.1041 39.43 18.1549H34.5511L34.561 16.5244C34.571 15.6342 34.6009 15.014 34.6208 15.1541C34.6506 15.3541 34.7303 15.4141 35.029 15.4742C35.2281 15.5142 35.4372 15.5042 35.4771 15.4442C35.5169 15.3941 35.6862 15.3541 36.1442 15.3541V16.5544H37.8369V15.8543C37.8369 15.3241 37.8767 15.1441 37.9863 15.1041C38.0659 15.0741 38.3547 15.0541 38.6335 15.0541Z" fill="white"/>
<path d="M31.6834 15.1141C31.9224 15.0841 32.2211 15.0441 32.3605 15.014C32.4999 14.994 32.6692 14.974 32.7289 14.964C32.8285 14.954 32.8584 15.3341 32.8584 18.1549H27.9794V15.1041L29.6124 15.0341L29.5725 16.5544H31.2652L31.2453 15.1641L31.6834 15.1141Z" fill="white"/>
<path d="M41.9193 15.3541C41.2323 15.3541 41.1227 15.3341 41.1028 15.1741C41.0729 15.014 41.1327 15.004 41.8695 15.0941C42.3076 15.1441 42.676 15.2241 42.6959 15.2641C42.7059 15.3141 42.3574 15.3541 41.9193 15.3541Z" fill="white"/>
<path d="M44.4583 15.2541C44.5181 15.2041 44.8268 15.1141 45.1553 15.0641C45.4839 15.014 45.8125 14.974 45.8722 14.964C45.9718 14.954 46.0017 15.3341 46.0017 18.1549H41.1227V15.6542H42.7159V16.5544H44.4086V15.6542L45.454 15.6242L44.4583 15.4942L45.454 15.3941L44.9064 15.3741C44.5579 15.3641 44.3986 15.3241 44.4583 15.2541Z" fill="white"/>
<path d="M3.28589 19.7553V17.4047V15.0541H4.87902V19.7553H3.28589Z" fill="white"/>
<path d="M24.6936 19.7553V17.4047V15.0541H26.2867V19.9553H25.988C25.8287 19.9553 25.6893 19.9153 25.6893 19.8553C25.6893 19.7953 25.4603 19.7553 24.6936 19.7553Z" fill="white"/>
<path d="M6.58168 27.497C6.61155 27.1269 6.6912 26.7968 6.7609 26.7668C6.82065 26.7268 7.1094 26.7268 7.39816 26.7668C7.68691 26.8068 7.98562 26.8468 8.06528 26.8468C8.18476 26.8568 8.20468 26.9869 8.16485 28.1572H21.4077L21.358 26.7568H23.0009V28.1572H24.6936V27.477C24.6936 27.0169 24.7234 26.8568 24.7931 26.9569C24.8529 27.0569 25.1118 27.1269 26.2369 27.2069L26.2867 29.7576H3.28589V28.5573C3.28589 27.577 3.31576 27.347 3.43524 27.307C3.5149 27.277 3.69413 27.257 3.83353 27.257C3.97293 27.257 4.10237 27.1869 4.13224 27.1069C4.16211 27.0069 4.31147 26.9569 4.87902 26.9569V28.1572H6.52193L6.58168 27.497Z" fill="white"/>
<path d="M27.9794 29.7576V28.9574V28.1572H47.6944V29.7576H27.9794Z" fill="white"/>
<path d="M7.667 24.1864C7.93584 23.7863 8.39386 23.2762 8.67266 23.0561C8.95146 22.8361 9.2203 22.676 9.28004 22.716C9.32983 22.7461 9.37961 22.8761 9.36965 23.0161C9.3597 23.2162 9.30991 23.2562 9.04107 23.2562C8.74236 23.2462 8.72244 23.2662 8.86184 23.4062C8.9415 23.4962 8.97137 23.5663 8.91163 23.5663C8.86184 23.5663 8.98133 23.7163 9.55884 24.2564L8.81206 24.2464L9.28004 24.6065L8.91163 25.1567C8.71249 25.4568 8.47352 25.9669 8.21463 26.8671L7.667 26.7971C7.36828 26.7571 7.01979 26.7371 6.9003 26.7471C6.7609 26.7471 6.67129 26.6971 6.67129 26.6071C6.67129 26.527 6.78082 26.1069 6.92022 25.6768C7.06957 25.1967 7.34837 24.6365 7.667 24.1864Z" fill="white"/>
<path d="M19.5458 23.1161C20.1034 23.0661 20.2229 23.0261 20.2726 22.8561C20.3025 22.7461 20.3523 22.656 20.3921 22.656C20.4319 22.646 20.7506 22.9161 21.109 23.2462C21.4675 23.5663 21.9156 24.0964 22.1047 24.4165C22.2939 24.7366 22.5528 25.2967 22.6723 25.6568C22.7918 26.0169 22.9013 26.407 22.9013 26.537C22.9013 26.7471 22.8615 26.7571 21.358 26.7571L21.1787 26.1769C21.0792 25.8669 20.8701 25.4267 20.7207 25.2067C20.5315 24.9466 20.4519 24.7166 20.4718 24.5365C20.4917 24.3765 20.4718 24.2564 20.412 24.2564C20.3523 24.2564 20.3125 24.2965 20.3125 24.3565C20.3125 24.4165 20.2726 24.4565 20.2129 24.4565C20.1532 24.4565 20.1332 24.3765 20.1532 24.2865C20.1731 24.1864 20.1332 24.0764 20.0735 24.0264C20.0038 23.9764 20.0237 23.9064 20.1631 23.7963C20.3324 23.6663 20.3423 23.6363 20.2129 23.5663C20.1332 23.5163 20.0934 23.4262 20.1432 23.3662C20.193 23.2862 19.9839 23.2562 19.4462 23.2462C19.018 23.2462 18.7094 23.2262 18.7691 23.2062C18.8289 23.1862 19.1674 23.1462 19.5458 23.1161Z" fill="white"/>
<path d="M3.28589 23.5563L3.76383 23.5263C4.02271 23.5063 4.39112 23.4962 4.58031 23.4862C4.9288 23.4862 4.9288 23.4862 4.56039 23.5263C4.35129 23.5463 4.18202 23.5963 4.18202 23.6563C4.18202 23.7163 4.35129 23.7663 4.9288 23.7863L4.13224 23.9264L4.87902 23.9564V26.9571H4.56039C4.38117 26.9671 4.19198 27.0272 4.13224 27.0972C4.08245 27.1772 3.8634 27.2572 3.28589 27.3572V23.5563Z" fill="white"/>
<path d="M24.8131 23.7863C24.8828 23.7263 25.1217 23.6563 25.3408 23.6263C25.5598 23.6063 25.8585 23.5863 26.2867 23.5563V27.2072L25.5897 27.1572C25.1118 27.1272 24.8529 27.0572 24.7931 26.9571C24.7434 26.8771 24.6936 26.1569 24.6936 25.3567C24.6936 24.3465 24.7334 23.8663 24.8131 23.7863Z" fill="white"/>
<path d="M14.169 25.2967C13.691 24.5865 13.6213 24.4265 13.7408 24.3465C13.8205 24.2965 14.1291 24.2564 14.4179 24.2564C14.6967 24.2564 14.9357 24.2965 14.9357 24.3565C14.9357 24.4165 15.1149 24.4365 15.3837 24.4065C15.7621 24.3665 15.8318 24.3865 15.8318 24.5365C15.8318 24.6265 15.6426 24.9966 15.4036 25.3467C15.1746 25.6968 14.9257 26.0169 14.866 26.0669C14.7763 26.1269 14.5672 25.9069 14.169 25.2967Z" fill="white"/>
<path d="M27.9794 26.457V25.6568V24.8566H47.6944V26.457H27.9794Z" fill="white"/>
<path d="M27.9498 29.3577C27.9299 29.6078 27.91 29.4278 27.91 28.9575C27.91 28.4873 27.9299 28.2872 27.9498 28.5073C27.9697 28.7274 27.9697 29.1076 27.9498 29.3577Z" fill="white"/>
<path d="M26.3564 29.3577C26.3364 29.6078 26.3165 29.4478 26.3165 29.0076C26.3165 28.5674 26.3364 28.3673 26.3564 28.5574C26.3763 28.7475 26.3763 29.1076 26.3564 29.3577Z" fill="white"/>
<path d="M4.91882 10.7527C4.90887 9.52235 4.91882 8.45207 4.93874 8.38206C4.96861 8.28203 5.39676 8.26202 8.71246 8.30203L4.97857 8.35205L4.92878 13.0033L4.91882 10.7527Z" fill="white"/>
<path d="M16.1803 8.32204C15.4634 8.34205 14.2585 8.34205 13.4919 8.32204C12.7252 8.31204 13.3027 8.29203 14.7863 8.29203C16.2599 8.29203 16.8872 8.31204 16.1803 8.32204Z" fill="white"/>
<path d="M21.0294 8.52209C20.9696 8.48208 20.9099 8.41206 20.9099 8.35205C20.9099 8.29203 21.5969 8.26202 24.7433 8.30203L22.8714 8.32204C21.4177 8.34205 21.0294 8.38206 21.0791 8.47208C21.1322 8.55877 21.1156 8.57544 21.0294 8.52209Z" fill="white"/>
<path d="M32.9579 11.6229C32.0518 11.6429 30.5583 11.6429 29.6223 11.6229C28.6863 11.6129 29.4331 11.5929 31.2652 11.5929C33.0973 11.5929 33.864 11.6129 32.9579 11.6229Z" fill="white"/>
<path d="M44.9064 11.6229C43.3431 11.6429 40.7443 11.6429 39.1313 11.6229C37.5182 11.6129 38.7927 11.6029 41.9691 11.6029C45.1454 11.6029 46.4696 11.6129 44.9064 11.6229Z" fill="white"/>
<path fill-rule="evenodd" clip-rule="evenodd" d="M4.94875 15.2041C4.96866 16.4144 4.96866 18.375 4.94875 19.5553C4.93879 20.7356 4.92883 19.7453 4.92883 17.3547C4.92883 14.9641 4.93879 13.9938 4.94875 15.2041ZM46.0515 13.2036L46.0714 15.6042C46.0913 16.9246 46.0814 18.0649 46.0515 18.1349C46.0117 18.2249 45.4342 18.2449 41.073 18.2049L46.0017 18.1549L46.0515 13.2036ZM39.4798 13.8038L39.5097 15.9043C39.5197 17.0646 39.5097 18.0649 39.4898 18.1349C39.45 18.2249 38.8625 18.2449 34.5013 18.2049L39.4301 18.1549L39.4798 13.8038ZM30.4787 14.884C30.9466 14.884 31.1259 14.9041 30.8769 14.9241C30.628 14.9441 30.2496 14.9441 30.0306 14.9241C29.8115 14.9041 30.0107 14.884 30.4787 14.884ZM37.8967 14.8941L36.2537 14.9541L36.2139 16.6045L36.1741 15.8643C36.1542 15.4542 36.1641 15.0641 36.194 14.9841C36.2338 14.884 36.4628 14.864 37.8967 14.8941ZM44.4683 14.8941L42.8254 14.9541L42.7856 16.6045L42.7458 15.8643C42.7258 15.4542 42.7358 15.0641 42.7657 14.9841C42.8055 14.884 43.0345 14.864 44.4683 14.8941ZM9.3896 18.1649C9.75801 18.1649 10.0866 18.1849 10.1065 18.2249C10.1264 18.2749 9.91732 18.2949 9.62857 18.2749C9.34977 18.2649 9.03114 18.2349 8.92161 18.2149C8.81209 18.1949 9.02119 18.1749 9.3896 18.1649ZM20.1731 18.1849C20.5515 18.1849 20.6909 18.2049 20.4718 18.2249C20.2528 18.2449 19.9341 18.2449 19.7748 18.2249C19.6055 18.2049 19.7848 18.1849 20.1731 18.1849ZM30.4289 18.1949C31.793 18.1949 32.3805 18.2149 31.7233 18.2249C31.0661 18.2449 29.941 18.2449 29.234 18.2249C28.5171 18.2149 29.0548 18.1949 30.4289 18.1949ZM27.9396 21.5058H39.4898L39.4998 23.1062L39.44 21.5558L27.9396 21.5058Z" fill="white"/>
<path d="M4.9487 26.6078C4.93874 27.4882 4.91882 26.7178 4.91882 24.907C4.91882 23.0962 4.93874 22.3658 4.9487 23.3063C4.96862 24.2467 4.96862 25.7274 4.9487 26.6078Z" fill="white"/>
<path d="M36.2139 10.4029C36.2039 11.0631 36.184 10.4829 36.184 9.10254C36.184 7.72219 36.2039 7.18205 36.2139 7.90223C36.2338 8.62242 36.2338 9.74271 36.2139 10.4029Z" fill="white"/>
<path d="M16.2002 11.053C15.782 10.6429 15.4335 10.2929 15.4335 10.2828V10.2728C15.4335 10.2628 15.4534 10.2528 15.4833 10.2528C15.5231 10.2528 15.8616 10.6029 16.9768 11.8032L16.2002 11.053Z" fill="white"/>
<path d="M11.5203 15.6142C11.5104 16.0543 11.4905 15.7443 11.4905 14.914C11.4905 14.0938 11.5104 13.7337 11.5203 14.1138C11.5403 14.4939 11.5403 15.1741 11.5203 15.6142Z" fill="white"/>
<path fill-rule="evenodd" clip-rule="evenodd" d="M37.8368 24.8062C43.2833 24.8062 45.5038 24.8162 42.7656 24.8262C40.0274 24.8462 35.5666 24.8462 32.8583 24.8262C30.15 24.8162 32.3903 24.8062 37.8368 24.8062ZM24.6338 25.9064L24.6636 26.9067C24.6835 27.4568 24.6736 27.967 24.6437 28.037C24.6138 28.117 24.355 28.147 22.951 28.117L24.5939 28.057L24.6338 25.9064ZM26.3563 26.4566C26.3762 26.7567 26.3762 27.2968 26.3563 27.6569C26.3364 28.017 26.3265 27.7669 26.3265 27.1067C26.3265 26.4466 26.3364 26.1565 26.3563 26.4566ZM21.338 27.0067L21.3778 27.4568C21.3977 27.7069 21.3878 27.967 21.3579 28.027C21.3181 28.127 19.9241 28.147 8.21457 28.107L21.3081 28.057L21.338 27.0067ZM5.76513 28.087C6.23311 28.087 6.41234 28.107 6.16341 28.127C5.92444 28.147 5.53612 28.147 5.31706 28.127C5.09801 28.107 5.30711 28.087 5.76513 28.087ZM37.7771 28.107C43.2037 28.107 45.444 28.117 42.7556 28.127C40.0772 28.147 35.6363 28.147 32.8981 28.127C30.1599 28.117 32.3604 28.107 37.7771 28.107Z" fill="white"/>
<path d="M34.5211 17.5045C34.5012 17.8946 34.4912 17.6145 34.4912 16.9043C34.4912 16.1842 34.5012 15.8741 34.5211 16.2042C34.541 16.5342 34.541 17.1144 34.5211 17.5045Z" fill="white"/>
<path d="M24.6636 23.506C24.6536 24.8864 24.6437 23.7761 24.6437 21.0554C24.6437 18.3347 24.6536 17.2044 24.6636 18.5548C24.6835 19.9051 24.6835 22.1257 24.6636 23.506Z" fill="white"/>
<path d="M26.3563 23.506C26.3463 24.8864 26.3364 23.7761 26.3364 21.0554C26.3364 18.3347 26.3463 17.2044 26.3563 18.5548C26.3762 19.9051 26.3762 22.1257 26.3563 23.506Z" fill="white"/>
<path d="M27.9494 17.8546C27.9295 18.0446 27.9096 17.8646 27.9096 17.4545C27.9096 17.0444 27.9295 16.8843 27.9494 17.1044C27.9693 17.3245 27.9693 17.6645 27.9494 17.8546Z" fill="white"/>
<path d="M27.9494 22.7559C27.9295 23.0059 27.9096 22.8259 27.9096 22.3558C27.9096 21.8856 27.9295 21.6856 27.9494 21.9056C27.9693 22.1257 27.9693 22.5058 27.9494 22.7559Z" fill="white"/>
<path d="M27.9494 26.0567C27.9295 26.3068 27.9096 26.1267 27.9096 25.6566C27.9096 25.1865 27.9295 24.9864 27.9494 25.2065C27.9693 25.4265 27.9693 25.8066 27.9494 26.0567Z" fill="white"/>
<path d="M26.3563 13.7537C26.3464 15.1041 26.3364 14.0438 26.3364 11.4031C26.3364 8.76245 26.3464 7.66217 26.3563 8.9525C26.3762 10.2428 26.3762 12.4034 26.3563 13.7537Z" fill="white"/>
<path d="M27.9494 10.4029C27.9395 11.0631 27.9196 10.4829 27.9196 9.10254C27.9196 7.72219 27.9395 7.18205 27.9494 7.90223C27.9694 8.62242 27.9694 9.74271 27.9494 10.4029Z" fill="white"/>
<path d="M24.6636 14.2039C24.6537 15.3041 24.6437 14.4239 24.6437 12.2534C24.6437 10.0828 24.6537 9.18256 24.6636 10.2528C24.6835 11.3231 24.6835 13.1036 24.6636 14.2039Z" fill="white"/>
<path d="M10.903 11.003L11.6995 10.1728V10.1828C12.1376 9.7227 12.5359 9.35261 12.5857 9.35261C12.6355 9.35261 12.6554 9.36261 12.6355 9.37261C12.6056 9.39262 12.2073 9.76271 10.903 11.003Z" fill="white"/>
<path d="M19.6751 12.4534L19.1275 12.4134L18.5798 12.3734L19.7647 12.3934V13.2436L19.6751 12.4534Z" fill="white"/>
<path d="M27.9594 15.7943C27.9395 16.2344 27.9196 15.8343 27.9196 14.894C27.9196 13.9638 27.9395 13.6037 27.9594 14.0938C27.9694 14.594 27.9694 15.3542 27.9594 15.7943Z" fill="white"/>
<path d="M32.928 14.9441C32.918 15.3041 32.8981 15.0541 32.8981 14.3939C32.8981 13.7337 32.9081 13.4437 32.928 13.7437C32.9479 14.0438 32.9479 14.584 32.928 14.9441Z" fill="white"/>
<path d="M34.5211 15.0441C34.5112 15.4042 34.4912 15.1341 34.4912 14.4439C34.4912 13.7537 34.5112 13.4637 34.5211 13.7938C34.541 14.1238 34.541 14.684 34.5211 15.0441Z" fill="white"/>
<path d="M18.072 16.7945L18.0223 15.3742C17.9924 14.594 18.0023 13.9838 18.0521 14.0238C18.092 14.0638 18.1119 14.704 18.072 16.7945Z" fill="white"/>
<path d="M29.6421 16.0443C29.6222 16.2344 29.6023 16.0543 29.6023 15.6442C29.6023 15.2341 29.6222 15.0741 29.6421 15.2941C29.672 15.5142 29.672 15.8543 29.6421 16.0443Z" fill="white"/>
<path d="M43.6126 10.0226C42.766 10.0425 41.4017 10.0425 40.5751 10.0226C39.7485 10.0126 40.4456 9.99268 42.1187 9.99268C43.7918 9.99268 44.4591 10.0126 43.6126 10.0226Z" fill="white"/>
<path d="M25.2412 24.2553C24.9923 24.2553 24.7931 24.2155 24.7931 24.1557C24.7931 24.096 24.9923 24.0562 25.2412 24.0562C25.4902 24.0562 25.6894 24.096 25.6894 24.1557C25.6894 24.2155 25.4902 24.2553 25.2412 24.2553Z" fill="white"/>
<path d="M12.5957 17.955L13.1434 17.4047C13.4422 17.1046 13.7012 16.8545 13.7111 16.8545C13.731 16.8545 13.8705 16.9645 14.0398 17.1046C14.2589 17.2847 14.458 17.3547 14.7568 17.3547C15.0357 17.3547 15.3145 17.2747 15.9618 16.8645L16.9777 17.955L16.7287 18.2151C16.5893 18.3652 16.2606 18.5853 15.9818 18.7153C15.6133 18.8954 15.3045 18.9554 14.7867 18.9554C14.2489 18.9554 13.98 18.9054 13.5916 18.7153C13.3227 18.5753 12.9841 18.3452 12.5957 17.955Z" fill="white"/>
<path d="M25.2412 23.5551C24.9923 23.5551 24.7931 23.5153 24.7931 23.4555C24.7931 23.3958 24.9923 23.356 25.2412 23.356C25.4902 23.356 25.6894 23.3958 25.6894 23.4555C25.6894 23.5153 25.4902 23.5551 25.2412 23.5551Z" fill="white"/>
<path d="M29.6123 9.60279L29.5924 8.93262L29.5725 8.25244L32.9081 8.29245L29.6721 8.35247L29.6123 9.60279Z" fill="white"/>
<path d="M46.0315 8.36247L41.9591 8.33246L37.8867 8.30245H46.0514L46.0614 9.90287L46.0315 8.36247Z" fill="white"/>
<path d="M16.9769 17.9552L16.3794 17.3249L15.7819 16.7046L17.0765 17.9552L16.4889 18.5054L16.9769 17.9552Z" fill="white"/>
<path d="M32.9281 9.60274C32.9082 9.82284 32.8982 9.59273 32.8982 9.10251C32.8982 8.61229 32.9082 8.42221 32.9281 8.70233C32.948 8.97245 32.948 9.38264 32.9281 9.60274Z" fill="white"/>
<path d="M12.4961 17.9551L13.0936 17.3548C13.4123 17.0246 13.7111 16.7545 13.741 16.7545C13.7708 16.7445 13.8804 16.8546 14.1891 17.2047L13.731 16.8045L12.5957 17.9451L13.0837 18.5053L12.4961 17.9551Z" fill="white"/>
</svg>
