<svg width="41" height="41" viewBox="0 0 41 41" fill="none" xmlns="http://www.w3.org/2000/svg">
<g clip-path="url(#clip0_177_2497)">
<path d="M3.24728 0.618975C3.31515 0.618612 3.38301 0.618249 3.45293 0.617876C3.67975 0.616864 3.90656 0.616993 4.13339 0.617125C4.29626 0.616646 4.45913 0.616101 4.622 0.615495C5.0641 0.614081 5.50619 0.613705 5.94829 0.613603C6.22465 0.613489 6.50101 0.613147 6.77737 0.612722C7.74196 0.611241 8.70654 0.610587 9.67113 0.610713C10.5695 0.610809 11.4679 0.60912 12.3662 0.60659C13.1381 0.604494 13.91 0.603636 14.6819 0.603739C15.1427 0.603779 15.6034 0.603326 16.0642 0.601628C16.4977 0.600074 16.9312 0.600067 17.3648 0.60123C17.5235 0.601397 17.6823 0.601022 17.841 0.600052C18.8274 0.594416 19.6943 0.591984 20.4575 1.30479C20.9228 1.82228 21.1611 2.38274 21.1599 3.08213C21.1603 3.23675 21.1603 3.23675 21.1606 3.39449C21.16 3.50771 21.1595 3.62093 21.1589 3.73415C21.1588 3.85414 21.1588 3.97413 21.1589 4.09412C21.159 4.41903 21.158 4.74393 21.1569 5.06884C21.1559 5.4087 21.1558 5.74855 21.1556 6.08841C21.1551 6.73161 21.1538 7.37481 21.1522 8.01801C21.1504 8.75043 21.1495 9.48284 21.1487 10.2153C21.1471 11.7216 21.1441 13.2278 21.1407 14.7341C22.3827 14.7077 23.6247 14.6813 24.9044 14.6541C24.7553 14.2695 24.7553 14.2695 24.503 13.9975C24.4558 13.9523 24.4086 13.9071 24.3599 13.8606C24.31 13.8136 24.2601 13.7666 24.2087 13.7181C23.1191 12.6589 22.4048 11.4483 22.3803 9.89741C22.3809 9.81054 22.3814 9.72367 22.3819 9.63416C22.3824 9.54301 22.3828 9.45185 22.3833 9.35794C22.407 8.23091 22.695 7.31579 23.3829 6.40601C23.4256 6.34872 23.4683 6.29143 23.5124 6.23241C24.2577 5.31051 25.3549 4.71674 26.5059 4.48414C26.8504 4.4506 27.191 4.44593 27.5369 4.44911C27.6286 4.44965 27.7204 4.4502 27.8148 4.45077C28.7351 4.46827 29.4399 4.67618 30.2521 5.11288C30.3107 5.14323 30.3693 5.17358 30.4297 5.20484C30.4956 5.23953 30.5615 5.27421 30.6293 5.30995C30.8302 5.3874 30.8302 5.3874 31.0134 5.2868C31.0752 5.24324 31.1369 5.19968 31.2005 5.15479C32.3793 4.38476 33.9602 4.26981 35.3261 4.53607C35.5757 4.6081 35.8003 4.69369 36.0352 4.80445C36.1235 4.84523 36.2117 4.886 36.3027 4.92801C37.544 5.54939 38.4472 6.56477 38.9062 7.88334C39.0738 8.45541 39.1217 8.98937 39.1182 9.58412C39.1178 9.67527 39.1173 9.76643 39.1168 9.86034C39.0785 11.6779 38.1684 12.8779 36.9061 14.0935C36.8413 14.153 36.8413 14.153 36.7753 14.2136C36.647 14.3509 36.647 14.3509 36.5958 14.6541C38.4588 14.6937 38.4588 14.6937 40.3594 14.7341C40.3594 15.157 40.3594 15.5798 40.3594 16.0154C39.7881 16.0233 39.2168 16.0291 38.6454 16.033C38.4511 16.0346 38.2568 16.0368 38.0626 16.0396C37.7829 16.0435 37.5033 16.0453 37.2236 16.0467C37.1371 16.0483 37.0507 16.05 36.9616 16.0517C36.3759 16.0519 36.0171 15.9722 35.5754 15.5671C35.1767 15.0516 35.1628 14.5694 35.2344 13.9334C35.4443 13.3319 36.0326 12.8929 36.4773 12.4593C37.2498 11.6963 37.6505 10.871 37.7169 9.78369C37.7169 8.60537 37.3505 7.68274 36.5488 6.83174C35.7969 6.12568 34.8629 5.85987 33.8528 5.84046C32.5829 5.88936 31.6807 6.47274 30.8301 7.36695C30.5867 7.25945 30.4365 7.1439 30.2596 6.94654C29.5464 6.21505 28.6615 5.8998 27.6586 5.84609C26.51 5.84345 25.5902 6.21823 24.7595 7.01286C24.0702 7.77469 23.7857 8.67387 23.7833 9.68922C23.8595 11.1558 24.5587 12 25.57 12.9874C26.0415 13.4611 26.2789 13.7614 26.3057 14.4539C26.2877 14.9765 26.2029 15.2781 25.8256 15.6544C25.4961 15.9453 25.2522 16.0255 24.8225 16.0245C24.7408 16.0245 24.659 16.0245 24.5748 16.0245C24.4867 16.0241 24.3986 16.0236 24.3078 16.0232C24.2175 16.0231 24.1272 16.023 24.0342 16.0229C23.7453 16.0224 23.4565 16.0214 23.1677 16.0204C22.972 16.02 22.7763 16.0196 22.5807 16.0193C22.1007 16.0184 21.6207 16.0171 21.1407 16.0154C21.141 16.1038 21.1413 16.1922 21.1416 16.2833C21.1487 18.4354 21.154 20.5875 21.1573 22.7396C21.1589 23.7803 21.1612 24.8211 21.1648 25.8618C21.168 26.7691 21.1701 27.6763 21.1708 28.5835C21.1712 29.0638 21.1722 29.544 21.1745 30.0243C21.1767 30.4766 21.1774 30.9289 21.1769 31.3813C21.177 31.547 21.1776 31.7127 21.1789 31.8785C21.1923 33.7843 21.1923 33.7843 20.4763 34.551C19.9001 35.069 19.3039 35.2586 18.5335 35.2556C18.4656 35.2559 18.3977 35.2563 18.3277 35.2567C18.1007 35.2577 17.8737 35.2575 17.6467 35.2574C17.4837 35.2579 17.3207 35.2584 17.1577 35.259C16.7153 35.2604 16.2729 35.2608 15.8304 35.2609C15.5539 35.261 15.2774 35.2614 15.0009 35.2618C14.0359 35.2633 13.0709 35.2639 12.1058 35.2638C11.2068 35.2637 10.3078 35.2654 9.40881 35.2679C8.63651 35.27 7.86421 35.2709 7.09191 35.2708C6.63085 35.2707 6.1698 35.2712 5.70874 35.2729C5.275 35.2745 4.84128 35.2745 4.40754 35.2733C4.24862 35.2731 4.0897 35.2735 3.93079 35.2745C3.71327 35.2757 3.49584 35.275 3.27833 35.2737C3.21595 35.2746 3.15357 35.2754 3.08929 35.2762C2.36831 35.2673 1.71894 34.9262 1.20123 34.4334C0.803924 33.9292 0.620865 33.4196 0.620082 32.7751C0.619801 32.7229 0.61952 32.6707 0.619231 32.6169C0.618487 32.4421 0.618879 32.2673 0.619268 32.0925C0.618969 31.9658 0.618601 31.8391 0.618169 31.7124C0.617189 31.3645 0.61721 31.0165 0.617399 30.6685C0.617432 30.2932 0.616548 29.9178 0.615788 29.5425C0.614458 28.8072 0.614018 28.0718 0.613929 27.3365C0.613853 26.7387 0.613523 26.141 0.613016 25.5433C0.611605 23.8485 0.610867 22.1538 0.610987 20.4591C0.610993 20.3677 0.610999 20.2763 0.611006 20.1822C0.611012 20.0907 0.611019 19.9992 0.611026 19.905C0.611091 18.4225 0.609558 16.94 0.6073 15.4575C0.605 13.9353 0.603894 12.4131 0.604032 10.8908C0.604085 10.0362 0.603645 9.18163 0.601921 8.32702C0.600463 7.59936 0.600115 6.87172 0.601202 6.14406C0.601725 5.77288 0.601734 5.40172 0.600345 5.03055C0.599085 4.6905 0.599315 4.35048 0.600711 4.01042C0.600957 3.88766 0.600666 3.76491 0.599772 3.64215C0.593761 2.75746 0.678206 1.99476 1.30508 1.32356C1.88111 0.805661 2.4772 0.615937 3.24728 0.618975ZM2.24725 2.38209C1.60973 3.38667 1.92193 4.62539 1.92193 5.76539C7.84131 5.76539 13.7607 5.76539 19.8594 5.76539C20.0474 3.95356 20.0474 3.95356 19.399 2.24696C18.9324 1.95088 18.4744 1.89792 17.9319 1.90076C17.8692 1.90046 17.8064 1.90015 17.7418 1.89984C17.5327 1.89901 17.3237 1.89933 17.1146 1.89965C16.9642 1.8993 16.8138 1.89888 16.6634 1.89841C16.2558 1.89733 15.8481 1.89729 15.4404 1.89749C15.0997 1.89758 14.7591 1.89718 14.4184 1.8968C13.6144 1.89591 12.8105 1.89588 12.0066 1.89636C11.178 1.89685 10.3495 1.89586 9.52093 1.89415C8.80881 1.89274 8.0967 1.89226 7.38458 1.89252C6.95959 1.89267 6.53462 1.89246 6.10964 1.89134C5.70988 1.89034 5.31013 1.89049 4.91037 1.89154C4.76398 1.89173 4.61759 1.89151 4.4712 1.89085C3.26332 1.83511 3.26332 1.83511 2.24725 2.38209ZM1.92193 7.04664C1.92193 14.2345 1.92193 21.4223 1.92193 28.8279C7.84131 28.8279 13.7607 28.8279 19.8594 28.8279C19.8594 24.5998 19.8594 20.3716 19.8594 16.0154C19.5952 16.0154 19.3309 16.0154 19.0587 16.0154C18.7391 16.8483 18.4206 17.6816 18.1027 18.5152C18.0134 18.7491 17.9241 18.9829 17.8347 19.2168C17.6776 19.6282 17.5209 20.0398 17.3645 20.4515C17.3027 20.6139 17.2409 20.7762 17.1788 20.9384C17.0913 21.1673 17.0044 21.3964 16.9175 21.6256C16.891 21.6945 16.8645 21.7635 16.8373 21.8345C16.8133 21.8979 16.7894 21.9613 16.7648 22.0267C16.7437 22.082 16.7227 22.1372 16.701 22.1942C16.6447 22.3542 16.6447 22.3542 16.6563 22.5818C16.6035 22.5818 16.5506 22.5818 16.4962 22.5818C16.4776 22.4781 16.459 22.3743 16.4399 22.2675C16.3135 21.6372 16.1304 21.0219 15.9547 20.404C15.9167 20.2698 15.8788 20.1355 15.8409 20.0012C15.7615 19.7199 15.6818 19.4387 15.602 19.1576C15.5014 18.8032 15.4012 18.4487 15.3011 18.0943C15.0934 17.3591 14.8847 16.6241 14.6752 15.8894C14.6108 15.6634 14.5466 15.4373 14.4827 15.2111C14.4047 14.9354 14.3262 14.6599 14.2474 14.3844C14.2145 14.2673 14.2145 14.2673 14.181 14.1479C14.1509 14.0434 14.1509 14.0434 14.1201 13.9368C14.1033 13.8775 14.0864 13.8181 14.069 13.757C14.0184 13.596 14.0184 13.596 13.8536 13.4529C13.5295 14.0973 13.2058 14.7418 12.8826 15.3866C12.7325 15.686 12.5822 15.9853 12.4318 16.2844C12.2866 16.573 12.1418 16.8617 11.9972 17.1505C11.9419 17.2608 11.8864 17.3711 11.8309 17.4813C11.7533 17.6353 11.6761 17.7895 11.599 17.9438C11.5549 18.0316 11.5108 18.1195 11.4654 18.21C11.3601 18.404 11.3601 18.404 11.3712 18.5779C10.367 18.5779 9.36279 18.5779 8.32818 18.5779C8.32818 18.1551 8.32818 17.7323 8.32818 17.2966C9.04168 17.2966 9.75518 17.2966 10.4903 17.2966C10.9709 16.339 11.4513 15.3813 11.9311 14.4233C12.1539 13.9785 12.3769 13.5337 12.6001 13.0891C12.8153 12.6604 13.0302 12.2315 13.245 11.8025C13.3271 11.6385 13.4093 11.4746 13.4917 11.3108C13.6067 11.082 13.7213 10.853 13.8357 10.6239C13.8874 10.5215 13.8874 10.5215 13.9401 10.4169C13.9711 10.3547 14.0021 10.2925 14.034 10.2284C14.0612 10.1742 14.0884 10.12 14.1164 10.0642C14.1844 9.92932 14.1844 9.92932 14.1739 9.7693C14.2267 9.7693 14.2796 9.7693 14.334 9.7693C14.3468 9.83944 14.3468 9.83944 14.3598 9.91099C14.4635 10.4576 14.6045 10.988 14.7591 11.5223C14.785 11.6125 14.8109 11.7028 14.8375 11.7958C14.9213 12.088 15.0055 12.3801 15.0898 12.6721C15.1477 12.8734 15.2056 13.0747 15.2634 13.276C15.3792 13.6787 15.4952 14.0813 15.6113 14.4838C15.7371 14.9206 15.862 15.3577 15.9862 15.795C16.0672 16.0802 16.1486 16.3652 16.2301 16.6502C16.2672 16.7803 16.3041 16.9106 16.3409 17.0408C16.3911 17.2186 16.442 17.3962 16.493 17.5738C16.5209 17.6719 16.5488 17.77 16.5776 17.8711C16.6405 18.1048 16.6405 18.1048 16.8165 18.2576C16.8496 18.1675 16.8827 18.0774 16.9168 17.9846C17.0401 17.6495 17.1633 17.3145 17.2866 16.9795C17.34 16.8346 17.3932 16.6898 17.4465 16.5449C17.5232 16.3364 17.5999 16.1279 17.6767 15.9194C17.7004 15.8549 17.7241 15.7904 17.7485 15.7239C17.7709 15.663 17.7934 15.6021 17.8165 15.5394C17.836 15.4862 17.8556 15.4331 17.8757 15.3783C17.9471 15.1893 18.0227 15.0018 18.0977 14.8142C18.6791 14.7878 19.2605 14.7614 19.8594 14.7341C19.8594 12.1973 19.8594 9.66039 19.8594 7.04664C13.9401 7.04664 8.02068 7.04664 1.92193 7.04664ZM1.92193 30.1091C1.73397 31.921 1.73397 31.921 2.38238 33.6276C2.84893 33.9236 3.30696 33.9766 3.84944 33.9738C3.91219 33.9741 3.97495 33.9744 4.0396 33.9747C4.24866 33.9755 4.4577 33.9752 4.66676 33.9749C4.81715 33.9752 4.96754 33.9756 5.11793 33.9761C5.5256 33.9772 5.93327 33.9772 6.34095 33.977C6.68163 33.977 7.02231 33.9773 7.363 33.9777C8.16693 33.9786 8.97086 33.9787 9.77479 33.9782C10.6033 33.9777 11.4319 33.9787 12.2604 33.9804C12.9726 33.9818 13.6847 33.9823 14.3968 33.982C14.8218 33.9819 15.2467 33.9821 15.6717 33.9832C16.0715 33.9842 16.4712 33.984 16.871 33.983C17.0174 33.9828 17.1638 33.983 17.3102 33.9837C18.4283 34.0339 18.4283 34.0339 19.4238 33.6106C20.2376 32.739 19.8594 31.0069 19.8594 30.1091C13.9401 30.1091 8.02068 30.1091 1.92193 30.1091Z" fill="white"/>
<path d="M31.6659 12.2921C32.1376 12.5771 32.5006 13.0112 32.6719 13.5333C32.6904 13.7415 32.7016 13.9421 32.7051 14.1504C32.7066 14.2085 32.7082 14.2666 32.7098 14.3265C32.7145 14.5108 32.7183 14.6952 32.722 14.8796C32.725 15.0051 32.7281 15.1306 32.7313 15.256C32.739 15.5626 32.7457 15.8692 32.752 16.1758C32.9634 15.9644 33.1748 15.753 33.3926 15.5352C33.7003 15.6891 33.8574 15.8229 34.0933 16.0657C34.1573 16.1312 34.2213 16.1966 34.2872 16.2641C34.3355 16.3142 34.3838 16.3644 34.4336 16.4161C34.3132 16.7014 34.148 16.8765 33.925 17.0892C33.8569 17.1554 33.7887 17.2216 33.7186 17.2897C33.5743 17.4283 33.4298 17.5666 33.285 17.7045C33.2171 17.7707 33.1492 17.8369 33.0792 17.905C32.9851 17.9951 32.9851 17.9951 32.8891 18.0869C32.7186 18.263 32.7186 18.263 32.752 18.5782C32.8255 18.5745 32.899 18.5708 32.9747 18.5669C33.6777 18.5463 34.1513 18.5595 34.6739 19.0483C34.9466 19.3392 35.099 19.537 35.1543 19.9395C35.2072 19.9131 35.26 19.8867 35.3145 19.8594C35.9471 19.8088 36.5605 19.7665 37.0762 20.1798C37.4169 20.4985 37.6519 20.7479 37.7168 21.2208C37.7697 21.1943 37.8225 21.1679 37.877 21.1407C38.5091 21.0901 39.1236 21.0473 39.6387 21.461C40.0125 21.817 40.324 22.169 40.3805 22.7003C40.3812 22.8053 40.3812 22.8053 40.3819 22.9124C40.3828 22.9933 40.3837 23.0742 40.3847 23.1576C40.3849 23.2894 40.3849 23.2894 40.3852 23.424C40.3864 23.5639 40.3864 23.5639 40.3876 23.7066C40.39 24.0155 40.3911 24.3243 40.3919 24.6332C40.3924 24.74 40.3928 24.8469 40.3933 24.9538C40.3955 25.4567 40.397 25.9596 40.3977 26.4625C40.3984 27.0399 40.4012 27.6172 40.4058 28.1946C40.4093 28.6427 40.4109 29.0908 40.4111 29.539C40.4113 29.8057 40.4124 30.0723 40.4151 30.339C40.426 31.5158 40.4018 32.4845 39.8789 33.5528C39.8161 33.7109 39.7544 33.8695 39.6947 34.0289C39.6134 34.2384 39.5319 34.4479 39.4496 34.657C39.4231 34.7255 39.3967 34.7941 39.3694 34.8647C39.346 34.9245 39.3227 34.9843 39.2986 35.0459C38.7589 36.7344 39.1087 38.587 39.0782 40.3594C35.6957 40.3594 32.3132 40.3594 28.8282 40.3594C28.8017 38.9589 28.7753 37.5583 28.7481 36.1153C28.6363 35.5063 28.6363 35.5063 28.3724 35.0314C28.3086 34.9422 28.3086 34.9422 28.2435 34.8512C28.0204 34.5604 27.7888 34.2779 27.5519 33.9982C26.7894 33.0829 26.201 32.2537 25.9074 31.0865C25.8902 31.0201 25.873 30.9537 25.8552 30.8853C25.799 30.668 25.7439 30.4504 25.6888 30.2327C25.6498 30.0794 25.6108 29.926 25.5717 29.7727C25.4902 29.4518 25.4093 29.1307 25.3286 28.8095C25.2262 28.402 25.1215 27.9951 25.0163 27.5882C24.9348 27.2717 24.855 26.9547 24.7756 26.6376C24.7377 26.4876 24.6993 26.3378 24.6603 26.1881C24.4636 25.4322 24.3103 24.7032 24.3004 23.9195C24.2991 23.8587 24.2978 23.7979 24.2965 23.7352C24.3051 23.2011 24.4849 22.784 24.8389 22.385C24.8985 22.3344 24.9581 22.2839 25.0194 22.2318C25.1085 22.154 25.1085 22.154 25.1993 22.0747C25.7396 21.6866 26.3494 21.7185 26.9864 21.7813C27.5279 21.9397 27.9884 22.2453 28.2676 22.7423C28.4478 23.2042 28.5655 23.6778 28.6723 24.161C28.6865 24.2254 28.7008 24.2898 28.7155 24.3561C28.7316 24.4293 28.7316 24.4293 28.7481 24.504C28.7874 23.7188 28.8171 22.9339 28.8352 22.1479C28.8439 21.7827 28.8556 21.4182 28.8749 21.0534C29.0267 19.1807 29.0267 19.1807 28.2543 17.5552C27.8954 17.1843 27.4939 16.8649 27.0664 16.5762C27.2022 16.2853 27.3658 16.1001 27.597 15.8756C27.6624 15.8116 27.7278 15.7476 27.7953 15.6816C27.8454 15.6333 27.8956 15.585 27.9473 15.5352C28.291 15.6674 28.4982 15.9146 28.7481 16.1758C28.7488 16.0991 28.7496 16.0225 28.7503 15.9434C28.7536 15.6563 28.7588 15.3691 28.7647 15.082C28.7669 14.9582 28.7686 14.8344 28.7698 14.7106C28.7833 13.3093 28.7833 13.3093 29.3058 12.7131C29.3579 12.6699 29.4101 12.6268 29.4638 12.5823C29.5157 12.538 29.5676 12.4936 29.6211 12.4478C30.1868 12.0581 31.0378 12.0137 31.6659 12.2921ZM30.3246 13.6784C30.0798 13.9957 30.0982 14.2995 30.0998 14.6821C30.0997 14.7726 30.0997 14.7726 30.0996 14.865C30.0994 15.0679 30.0999 15.2708 30.1003 15.4737C30.1003 15.6189 30.1003 15.7641 30.1003 15.9093C30.1003 16.304 30.1007 16.6987 30.1013 17.0935C30.1018 17.5058 30.1018 17.9181 30.1019 18.3304C30.1022 19.1115 30.1028 19.8925 30.1036 20.6736C30.1045 21.5626 30.105 22.4517 30.1054 23.3408C30.1062 25.1699 30.1076 26.9991 30.1094 28.8282C29.5016 28.8282 28.8938 28.8282 28.2676 28.8282C28.2164 28.5639 28.1652 28.2997 28.1125 28.0274C28.0325 27.6266 27.9502 27.2264 27.8672 26.8262C27.8539 26.7617 27.8405 26.6971 27.8267 26.6306C27.7377 26.202 27.6466 25.7738 27.5536 25.346C27.5225 25.2022 27.492 25.0584 27.462 24.9144C27.4191 24.7094 27.3743 24.5049 27.3292 24.3003C27.3168 24.2391 27.3043 24.1779 27.2915 24.1148C27.1958 23.6939 27.0504 23.451 26.7461 23.1426C26.5219 23.0598 26.3351 23.0814 26.1055 23.1426C25.8333 23.3337 25.727 23.4594 25.6427 23.7816C25.594 24.2036 25.7161 24.5998 25.8177 25.0066C25.8502 25.1417 25.8502 25.1417 25.8834 25.2794C25.9436 25.5287 26.0048 25.7777 26.0664 26.0267C26.1198 26.2436 26.1722 26.4608 26.2246 26.678C26.3648 27.2585 26.5075 27.8384 26.6525 28.4177C26.7276 28.7178 26.8021 29.018 26.8754 29.3186C26.9479 29.6162 27.0218 29.9135 27.0966 30.2105C27.1245 30.3218 27.1518 30.4332 27.1786 30.5447C27.3379 31.2055 27.52 31.7381 27.9473 32.2715C27.9902 32.3261 28.0332 32.3807 28.0774 32.4369C28.1987 32.5889 28.3229 32.7381 28.4478 32.8871C28.7876 33.3007 29.1222 33.7167 29.4387 34.1484C29.5009 34.2325 29.563 34.3166 29.6271 34.4033C30.468 35.8076 30.0749 37.4918 30.1094 39.0782C32.6463 39.0782 35.1832 39.0782 37.7969 39.0782C37.8042 37.7919 37.8042 37.7919 37.8063 36.5055C37.8142 35.4702 37.9144 34.6488 38.3575 33.713C38.4202 33.5548 38.4817 33.3961 38.5417 33.2369C38.623 33.0273 38.7044 32.8179 38.7868 32.6088C38.8133 32.5402 38.8397 32.4717 38.867 32.4011C38.8904 32.3413 38.9137 32.2815 38.9378 32.2199C39.0953 31.7272 39.0905 31.2364 39.0911 30.7247C39.0915 30.6426 39.0919 30.5605 39.0923 30.476C39.0934 30.2053 39.094 29.9347 39.0944 29.664C39.0949 29.4755 39.0953 29.2871 39.0958 29.0986C39.0966 28.7039 39.0971 28.3091 39.0974 27.9144C39.0978 27.4087 39.0998 26.903 39.102 26.3973C39.1035 26.0082 39.1039 25.6191 39.1041 25.23C39.1043 25.0436 39.105 24.8571 39.106 24.6707C39.1074 24.41 39.1072 24.1494 39.1067 23.8887C39.1078 23.7733 39.1078 23.7733 39.1089 23.6557C39.1063 23.2386 39.0759 22.941 38.8379 22.5821C38.6104 22.4684 38.4492 22.4768 38.1973 22.502C37.9692 22.6808 37.889 22.7863 37.7969 23.0626C37.7897 23.248 37.7875 23.4336 37.7878 23.6191C37.7878 23.7035 37.7878 23.7035 37.7878 23.7896C37.7878 23.9755 37.7885 24.1614 37.7891 24.3473C37.7892 24.4762 37.7893 24.6051 37.7894 24.734C37.7897 25.0733 37.7905 25.4125 37.7914 25.7518C37.7922 26.098 37.7926 26.4442 37.793 26.7904C37.7939 27.4697 37.7953 28.1489 37.7969 28.8282C37.3741 28.8282 36.9513 28.8282 36.5157 28.8282C36.5169 28.6172 36.5182 28.4063 36.5195 28.1889C36.5235 27.4915 36.5261 26.7941 36.5281 26.0967C36.5294 25.6739 36.5311 25.2511 36.5338 24.8283C36.5364 24.4202 36.5378 24.0121 36.5384 23.604C36.5389 23.4484 36.5398 23.2928 36.5411 23.1372C36.5428 22.919 36.543 22.7009 36.5429 22.4827C36.5438 22.4186 36.5447 22.3544 36.5455 22.2883C36.5434 21.9013 36.4894 21.6364 36.2754 21.3008C36.0479 21.1871 35.8867 21.1956 35.6348 21.2208C35.4067 21.3995 35.3265 21.505 35.2344 21.7813C35.2271 22.0067 35.2243 22.2301 35.2253 22.4555C35.2253 22.5242 35.2253 22.593 35.2253 22.6639C35.2253 22.8913 35.226 23.1188 35.2266 23.3463C35.2267 23.5039 35.2268 23.6616 35.2269 23.8192C35.2272 24.2343 35.228 24.6494 35.2289 25.0645C35.2297 25.488 35.2301 25.9115 35.2305 26.335C35.2314 27.166 35.2327 27.9971 35.2344 28.8282C34.8116 28.8282 34.3888 28.8282 33.9532 28.8282C33.9537 28.7249 33.9542 28.6217 33.9548 28.5153C33.9596 27.542 33.9632 26.5688 33.9656 25.5955C33.9669 25.0952 33.9686 24.5948 33.9713 24.0945C33.9739 23.6116 33.9753 23.1287 33.9759 22.6459C33.9764 22.4616 33.9773 22.2774 33.9786 22.0932C33.9803 21.8352 33.9805 21.5772 33.9804 21.3191C33.9813 21.243 33.9822 21.1668 33.983 21.0884C33.9811 20.6727 33.9498 20.3775 33.7129 20.0196C33.4854 19.9059 33.3242 19.9143 33.0723 19.9395C32.8442 20.1183 32.764 20.2238 32.6719 20.5001C32.6648 20.6149 32.6621 20.7301 32.6623 20.8451C32.6622 20.9155 32.6621 20.9859 32.6619 21.0585C32.6622 21.1355 32.6625 21.2125 32.6628 21.2918C32.6628 21.3731 32.6628 21.4544 32.6628 21.5381C32.6628 21.8072 32.6635 22.0762 32.6641 22.3453C32.6642 22.5317 32.6643 22.7181 32.6644 22.9044C32.6647 23.3953 32.6655 23.8862 32.6664 24.3772C32.6672 24.878 32.6676 25.3787 32.668 25.8795C32.6689 26.8624 32.6702 27.8453 32.6719 28.8282C32.2491 28.8282 31.8263 28.8282 31.3907 28.8282C31.3912 28.6447 31.3917 28.4611 31.3923 28.272C31.3972 26.5446 31.4008 24.8172 31.4031 23.0897C31.4043 22.2016 31.406 21.3134 31.4088 20.4253C31.4112 19.6512 31.4127 18.8771 31.4133 18.1031C31.4136 17.6932 31.4143 17.2833 31.4161 16.8734C31.4177 16.4875 31.4182 16.1017 31.4178 15.7159C31.4179 15.5743 31.4184 15.4327 31.4193 15.2912C31.4205 15.0977 31.4202 14.9044 31.4195 14.711C31.4202 14.655 31.4209 14.5991 31.4217 14.5415C31.4183 14.1754 31.3434 13.9241 31.1504 13.6133C30.8465 13.4614 30.592 13.4688 30.3246 13.6784Z" fill="white"/>
<path d="M7.04688 31.3906C9.58375 31.3906 12.1206 31.3906 14.7344 31.3906C14.7344 31.8134 14.7344 32.2362 14.7344 32.6719C12.1975 32.6719 9.66062 32.6719 7.04688 32.6719C7.04688 32.2491 7.04688 31.8263 7.04688 31.3906Z" fill="white"/>
<path d="M5.76562 17.2969C6.18844 17.2969 6.61125 17.2969 7.04688 17.2969C7.04688 17.7197 7.04688 18.1425 7.04688 18.5781C6.62406 18.5781 6.20125 18.5781 5.76562 18.5781C5.76562 18.1553 5.76562 17.7325 5.76562 17.2969Z" fill="white"/>
<path d="M3.20312 17.2969C3.62594 17.2969 4.04875 17.2969 4.48438 17.2969C4.48438 17.7197 4.48438 18.1425 4.48438 18.5781C4.06156 18.5781 3.63875 18.5781 3.20312 18.5781C3.20312 18.1553 3.20312 17.7325 3.20312 17.2969Z" fill="white"/>
</g>
<defs>
<clipPath id="clip0_177_2497">
<rect width="41" height="41" fill="white"/>
</clipPath>
</defs>
</svg>
