<svg width="45" height="46" viewBox="0 0 45 46" fill="none" xmlns="http://www.w3.org/2000/svg">
<path d="M26.4553 1.27411C27.8093 2.37851 28.7148 3.77121 29.0178 5.50345C29.0492 5.92686 29.0478 6.34647 29.0404 6.7708C29.04 6.87769 29.0395 6.98458 29.039 7.09471C29.033 7.77489 28.9939 8.44759 28.9273 9.12445C29.0207 9.16527 29.1142 9.2061 29.2105 9.24817C31.0389 10.0472 32.8643 10.8522 34.6823 11.6746C36.0198 12.2792 37.3637 12.8683 38.7113 13.45C38.7832 13.4812 38.8552 13.5124 38.9294 13.5445C39.0642 13.6028 39.1991 13.661 39.3342 13.719C39.7801 13.9121 39.7801 13.9121 39.8808 14.0128C39.8808 15.148 39.8808 16.2832 39.8808 17.4527C35.818 17.4527 31.7553 17.4527 27.5694 17.4527C27.5096 17.9307 27.4499 18.4087 27.3883 18.9011C27.571 18.9003 27.7536 18.8995 27.9418 18.8987C29.664 18.8913 31.3862 18.8859 33.1084 18.8824C33.9938 18.8805 34.8792 18.878 35.7645 18.8738C36.5365 18.8702 37.3085 18.8679 38.0805 18.8671C38.489 18.8666 38.8975 18.8655 39.306 18.8629C39.6911 18.8604 40.0761 18.8596 40.4613 18.8602C40.602 18.8601 40.7427 18.8594 40.8835 18.858C42.099 18.8465 43.0532 19.0366 43.9544 19.8969C45.0214 21.0146 45.003 22.2244 44.997 23.6827C44.9975 23.8828 44.9982 24.0829 44.999 24.283C45.0006 24.8242 45 25.3655 44.9988 25.9068C44.9979 26.4744 44.9987 27.042 44.9993 27.6096C45 28.6236 44.9989 29.6376 44.997 30.6516C44.9954 31.5693 44.9957 32.487 44.9974 33.4047C44.9993 34.4728 45 35.5408 44.999 36.6088C44.9984 37.1733 44.9983 37.7378 44.9995 38.3023C45.0006 38.8332 44.9998 39.364 44.9978 39.8948C44.9973 40.0891 44.9974 40.2834 44.9982 40.4777C45.0033 41.8442 44.9456 42.9382 43.9544 43.9765C42.9098 44.9737 41.8018 45.0258 40.4345 45.0192C40.263 45.0196 40.0914 45.0203 39.9199 45.0211C39.4564 45.0227 38.993 45.0221 38.5295 45.0209C38.0431 45.02 37.5566 45.0209 37.0702 45.0214C36.2536 45.0221 35.4369 45.0212 34.6203 45.0195C33.6778 45.0175 32.7355 45.0182 31.793 45.0202C30.982 45.0218 30.171 45.022 29.36 45.0211C28.8764 45.0205 28.3929 45.0205 27.9093 45.0217C27.4545 45.0227 26.9998 45.022 26.5451 45.0199C26.3788 45.0194 26.2125 45.0195 26.0462 45.0203C24.9456 45.0252 23.9615 44.99 23.0771 44.2424C23.0031 44.1816 22.9291 44.1209 22.8529 44.0582C22.681 43.886 22.681 43.886 22.5905 43.6144C22.5308 43.6144 22.471 43.6144 22.4095 43.6144C22.3891 43.6666 22.3686 43.7188 22.3476 43.7725C22.1943 44.035 22.0153 44.1653 21.7701 44.3443C21.6888 44.4051 21.6075 44.4659 21.5237 44.5285C20.6298 45.0574 19.7328 45.0116 18.7291 45.0089C18.5576 45.0094 18.3861 45.01 18.2145 45.0108C17.7503 45.0124 17.2861 45.0123 16.8219 45.0118C16.4336 45.0115 16.0453 45.012 15.6571 45.0126C14.7407 45.0139 13.8243 45.0137 12.9079 45.0127C11.9642 45.0116 11.0205 45.0129 10.0767 45.0153C9.26494 45.0173 8.45316 45.0179 7.64137 45.0174C7.15719 45.0171 6.67303 45.0173 6.18886 45.0189C5.73337 45.0203 5.27792 45.0199 4.82243 45.0182C4.65585 45.0179 4.48927 45.0182 4.32269 45.0191C3.03799 45.0259 2.01761 44.9044 1.0456 43.9765C-0.0213968 42.8588 -0.00304102 41.6491 0.00297429 40.1908C0.00248308 39.9907 0.00183804 39.7906 0.00105152 39.5905C-0.000593838 39.0492 3.94615e-05 38.5079 0.00118965 37.9667C0.00210915 37.3991 0.00125457 36.8314 0.000686858 36.2638C-1.32067e-05 35.2498 0.00110787 34.2358 0.00295219 33.2218C0.00456977 32.3041 0.00428988 31.3864 0.00262068 30.4687C0.000678989 29.4007 -3.60338e-05 28.3327 0.00103218 27.2646C0.00159546 26.7001 0.00167371 26.1356 0.000474138 25.5711C-0.000575149 25.0403 0.000161139 24.5095 0.00224773 23.9786C0.00272476 23.7843 0.00259341 23.59 0.0017919 23.3957C-0.00332301 22.0292 0.0544106 20.9352 1.0456 19.8969C2.01046 18.9758 3.03847 18.8473 4.32366 18.86C4.46918 18.8601 4.6147 18.8601 4.76022 18.8599C5.15238 18.8598 5.54449 18.8619 5.93664 18.8644C6.34753 18.8667 6.75843 18.8669 7.16932 18.8673C7.94612 18.8684 8.72289 18.8714 9.49968 18.8751C10.3846 18.8791 11.2695 18.8811 12.1544 18.8829C13.9735 18.8867 15.7926 18.8931 17.6117 18.9011C17.522 18.1842 17.522 18.1842 17.4306 17.4527C13.3678 17.4527 9.30509 17.4527 5.11922 17.4527C5.11922 16.3176 5.11922 15.1824 5.11922 14.0128C6.68825 13.2806 6.68825 13.2806 7.27131 13.0181C7.33967 12.9872 7.40804 12.9564 7.47847 12.9246C7.69909 12.8252 7.91978 12.7259 8.14049 12.6266C8.2176 12.5919 8.29472 12.5572 8.37416 12.5215C9.97203 11.8027 11.5757 11.0974 13.1809 10.3953C13.8454 10.1047 14.5094 9.81279 15.1731 9.52049C15.2668 9.47925 15.3605 9.43801 15.4571 9.39551C15.6623 9.30517 15.8675 9.21482 16.0727 9.12445C16.0665 9.06054 16.0603 8.99662 16.0539 8.93078C15.846 6.64566 15.7822 4.35337 17.3051 2.48643C19.5815 -0.147619 23.5694 -0.907001 26.4553 1.27411ZM19.4222 2.60665C19.3647 2.64633 19.3073 2.686 19.2482 2.72688C18.2514 3.4859 17.7141 4.70298 17.4872 5.8995C17.4268 6.42275 17.4418 6.90774 17.4956 7.43091C17.5038 7.51285 17.512 7.59479 17.5204 7.67921C17.634 8.76761 17.7999 9.84882 17.9628 10.9307C17.9969 11.1591 18.0309 11.3876 18.0649 11.616C18.1355 12.0902 18.2065 12.5643 18.2778 13.0383C18.3602 13.5863 18.442 14.1343 18.5234 14.6824C18.6023 15.2129 18.6815 15.7432 18.761 16.2736C18.7946 16.4983 18.8281 16.7231 18.8615 16.948C18.908 17.2597 18.9549 17.5715 19.0019 17.8832C19.0157 17.9764 19.0295 18.0695 19.0437 18.1656C19.0565 18.2498 19.0693 18.334 19.0825 18.4207C19.0935 18.4943 19.1045 18.5678 19.1159 18.6436C19.1348 18.8114 19.1348 18.8114 19.2411 18.9011C19.4182 18.9133 19.5956 18.9221 19.7729 18.9294C20.819 19.0072 21.5572 19.3538 22.319 20.078C22.3488 20.1377 22.3787 20.1975 22.4095 20.259C22.4692 20.259 22.529 20.259 22.5905 20.259C22.6372 20.1955 22.6839 20.132 22.732 20.0666C23.2893 19.4093 24.0481 19.0532 24.895 18.9556C25.183 18.9325 25.4703 18.9141 25.7589 18.9011C25.9304 18.3604 26.0184 17.8206 26.1003 17.26C26.1152 17.1604 26.1301 17.0608 26.1455 16.9582C26.1944 16.6298 26.2428 16.3013 26.2911 15.9729C26.3251 15.7434 26.3591 15.5139 26.3932 15.2845C26.4644 14.8035 26.5354 14.3225 26.6061 13.8415C26.6875 13.2885 26.7694 12.7356 26.8517 12.1827C26.9313 11.6479 27.0104 11.1129 27.0892 10.578C27.1226 10.3519 27.1562 10.1258 27.1898 9.89968C27.734 6.67599 27.734 6.67599 26.6357 3.6859C25.8205 2.59425 24.7408 1.90446 23.4053 1.61088C21.8937 1.48248 20.6657 1.70006 19.4222 2.60665ZM28.5652 10.7539C28.2574 12.498 28.0069 14.2519 27.7504 16.0043C31.2755 16.0043 34.8005 16.0043 38.4324 16.0043C38.4324 15.7056 38.4324 15.4069 38.4324 15.0991C37.5329 14.6345 36.6184 14.2169 35.6898 13.8142C35.2834 13.6379 34.8775 13.4604 34.4716 13.2829C34.3881 13.2464 34.3045 13.2099 34.2185 13.1723C33.1508 12.7046 32.0889 12.2241 31.0272 11.743C29.8294 11.0913 29.8294 11.0913 28.5652 10.7539ZM15.5515 11.0531C15.4431 11.1007 15.4431 11.1007 15.3324 11.1492C15.0925 11.2547 14.8527 11.3607 14.613 11.4668C14.4455 11.5406 14.278 11.6144 14.1105 11.6882C12.7999 12.2663 11.4931 12.8528 10.1877 13.4425C9.22332 13.878 8.25701 14.3083 7.28634 14.7295C7.20331 14.7657 7.12029 14.8019 7.03474 14.8392C6.96345 14.8701 6.89216 14.9009 6.81871 14.9327C6.65978 14.9967 6.65978 14.9967 6.56762 15.0991C6.56762 15.3978 6.56762 15.6966 6.56762 16.0043C10.0927 16.0043 13.6177 16.0043 17.2496 16.0043C16.9948 13.3429 16.9948 13.3429 16.4348 10.7539C16.1186 10.7539 15.8371 10.9265 15.5515 11.0531ZM2.16549 21.0412C1.55128 21.722 1.48435 22.3989 1.48612 23.2968C1.48592 23.3736 1.48571 23.4504 1.4855 23.5295C1.48493 23.7861 1.485 24.0427 1.48508 24.2993C1.48481 24.4836 1.4845 24.6679 1.48415 24.8521C1.48335 25.3523 1.48314 25.8524 1.48308 26.3525C1.48302 26.6651 1.48283 26.9777 1.48259 27.2903C1.48175 28.3812 1.48138 29.4721 1.48145 30.563C1.48151 31.5793 1.48055 32.5956 1.47912 33.6119C1.47794 34.485 1.47745 35.358 1.47751 36.2311C1.47753 36.7523 1.47728 37.2735 1.47632 37.7947C1.47544 38.285 1.47543 38.7753 1.47609 39.2656C1.47619 39.4453 1.47597 39.6249 1.47543 39.8046C1.47473 40.0504 1.47515 40.2963 1.47585 40.5422C1.47538 40.6127 1.47491 40.6832 1.47443 40.7559C1.47945 41.5613 1.59766 42.2686 2.18989 42.8566C2.84029 43.4434 3.47169 43.5349 4.33551 43.536C4.40046 43.5362 4.46541 43.5364 4.53233 43.5366C4.74892 43.5372 4.96551 43.5371 5.1821 43.5371C5.33782 43.5373 5.49355 43.5376 5.64927 43.538C6.07161 43.5388 6.49394 43.539 6.91628 43.539C7.18035 43.5391 7.44442 43.5393 7.70849 43.5395C8.63036 43.5404 9.55223 43.5407 10.4741 43.5407C11.3324 43.5406 12.1907 43.5416 13.0491 43.543C13.7868 43.5442 14.5246 43.5447 15.2623 43.5446C15.7026 43.5446 16.1428 43.5449 16.5831 43.5458C16.9973 43.5467 17.4115 43.5467 17.8258 43.546C17.9774 43.5459 18.129 43.5462 18.2806 43.5467C19.7078 43.5835 19.7078 43.5835 20.9611 42.9808C21.6763 42.2604 21.7899 41.5763 21.7879 40.5766C21.7882 40.4615 21.7882 40.4615 21.7885 40.344C21.7891 40.0874 21.789 39.8307 21.789 39.5741C21.7892 39.3899 21.7895 39.2056 21.7899 39.0213C21.7907 38.5212 21.7909 38.021 21.7909 37.5209C21.791 37.2083 21.7912 36.8957 21.7914 36.5831C21.7923 35.4922 21.7926 34.4013 21.7926 33.3104C21.7925 32.2941 21.7935 31.2778 21.7949 30.2615C21.7961 29.3885 21.7966 28.5154 21.7965 27.6424C21.7965 27.1212 21.7968 26.6 21.7977 26.0788C21.7986 25.5884 21.7986 25.0981 21.7979 24.6078C21.7978 24.4281 21.7981 24.2485 21.7986 24.0689C21.7993 23.823 21.7989 23.5771 21.7982 23.3313C21.7989 23.2255 21.7989 23.2255 21.7996 23.1176C21.7946 22.3121 21.6764 21.6048 21.0841 21.0168C20.4337 20.43 19.8023 20.3386 18.9385 20.3374C18.8411 20.3371 18.8411 20.3371 18.7417 20.3368C18.5251 20.3362 18.3085 20.3363 18.0919 20.3364C17.9362 20.3361 17.7805 20.3358 17.6248 20.3355C17.2024 20.3347 16.7801 20.3344 16.3577 20.3344C16.0937 20.3343 15.8296 20.3341 15.5655 20.3339C14.6437 20.3331 13.7218 20.3327 12.7999 20.3328C11.9416 20.3328 11.0833 20.3319 10.225 20.3304C9.48722 20.3292 8.74947 20.3288 8.01173 20.3288C7.57147 20.3288 7.13123 20.3286 6.69097 20.3276C6.27674 20.3267 5.86251 20.3267 5.44827 20.3274C5.29665 20.3275 5.14503 20.3273 4.99341 20.3267C3.45525 20.2898 3.45525 20.2898 2.16549 21.0412ZM23.8915 21.0412C23.2773 21.722 23.2103 22.3989 23.2121 23.2968C23.2119 23.3736 23.2117 23.4504 23.2115 23.5295C23.2109 23.7861 23.211 24.0427 23.2111 24.2993C23.2108 24.4836 23.2105 24.6679 23.2101 24.8521C23.2093 25.3523 23.2091 25.8524 23.2091 26.3525C23.209 26.6651 23.2088 26.9777 23.2086 27.2903C23.2077 28.3812 23.2074 29.4721 23.2074 30.563C23.2075 31.5793 23.2065 32.5956 23.2051 33.6119C23.2039 34.485 23.2034 35.358 23.2035 36.2311C23.2035 36.7523 23.2032 37.2735 23.2023 37.7947C23.2014 38.285 23.2014 38.7753 23.2021 39.2656C23.2022 39.4453 23.2019 39.6249 23.2014 39.8046C23.2007 40.0504 23.2011 40.2963 23.2018 40.5422C23.2014 40.6127 23.2009 40.6832 23.2004 40.7559C23.2054 41.5613 23.3236 42.2686 23.9159 42.8566C24.5663 43.4434 25.1977 43.5349 26.0615 43.536C26.1264 43.5362 26.1914 43.5364 26.2583 43.5366C26.4749 43.5372 26.6915 43.5371 26.9081 43.5371C27.0638 43.5373 27.2195 43.5376 27.3752 43.538C27.7976 43.5388 28.2199 43.539 28.6423 43.539C28.9063 43.5391 29.1704 43.5393 29.4345 43.5395C30.3563 43.5404 31.2782 43.5407 32.2001 43.5407C33.0584 43.5406 33.9167 43.5416 34.775 43.543C35.5128 43.5442 36.2505 43.5447 36.9883 43.5446C37.4285 43.5446 37.8688 43.5449 38.309 43.5458C38.7233 43.5467 39.1375 43.5467 39.5517 43.546C39.7034 43.5459 39.855 43.5462 40.0066 43.5467C41.4338 43.5835 41.4338 43.5835 42.6871 42.9808C43.4023 42.2604 43.5159 41.5763 43.5139 40.5766C43.5142 40.4615 43.5142 40.4615 43.5145 40.344C43.5151 40.0874 43.515 39.8307 43.5149 39.5741C43.5152 39.3899 43.5155 39.2056 43.5158 39.0213C43.5166 38.5212 43.5169 38.021 43.5169 37.5209C43.517 37.2083 43.5172 36.8957 43.5174 36.5831C43.5183 35.4922 43.5186 34.4013 43.5186 33.3104C43.5185 32.2941 43.5195 31.2778 43.5209 30.2615C43.5221 29.3885 43.5225 28.5154 43.5225 27.6424C43.5225 27.1212 43.5227 26.6 43.5237 26.0788C43.5246 25.5884 43.5246 25.0981 43.5239 24.6078C43.5238 24.4281 43.524 24.2485 43.5246 24.0689C43.5253 23.823 43.5249 23.5771 43.5242 23.3313C43.5249 23.2255 43.5249 23.2255 43.5256 23.1176C43.5206 22.3121 43.4023 21.6048 42.8101 21.0168C42.1597 20.43 41.5283 20.3386 40.6645 20.3374C40.5671 20.3371 40.5671 20.3371 40.4677 20.3368C40.2511 20.3362 40.0345 20.3363 39.8179 20.3364C39.6622 20.3361 39.5065 20.3358 39.3507 20.3355C38.9284 20.3347 38.5061 20.3344 38.0837 20.3344C37.8197 20.3343 37.5556 20.3341 37.2915 20.3339C36.3696 20.3331 35.4478 20.3327 34.5259 20.3328C33.6676 20.3328 32.8093 20.3319 31.9509 20.3304C31.2132 20.3292 30.4754 20.3288 29.7377 20.3288C29.2974 20.3288 28.8572 20.3286 28.4169 20.3276C28.0027 20.3267 27.5885 20.3267 27.1742 20.3274C27.0226 20.3275 26.871 20.3273 26.7194 20.3267C25.1812 20.2898 25.1812 20.2898 23.8915 21.0412Z" fill="white"/>
<path d="M38.7039 23.5177C40.4615 24.9507 41.7867 26.9286 42.0533 29.2207C42.235 31.7901 41.7918 34.0403 40.1382 36.0684C38.6515 37.7723 36.6367 39.0366 34.339 39.1991C31.7486 39.3142 29.5427 38.799 27.5524 37.0624C25.8739 35.4887 24.7414 33.4759 24.6379 31.1479C24.5735 28.5679 25.1961 26.376 26.9958 24.4565C30.1194 21.2859 35.1306 20.7854 38.7039 23.5177ZM28.2936 25.4187C28.2283 25.4813 28.1631 25.544 28.0959 25.6086C27.8731 25.8259 27.8731 25.8259 27.6599 26.0524C27.6599 26.0822 27.6599 26.1121 27.6599 26.1429C28.4366 26.1429 29.2133 26.1429 30.0135 26.1429C30.1349 25.9095 30.2562 25.6761 30.3813 25.4357C30.7123 24.805 31.0645 24.1998 31.4619 23.6082C30.2813 23.6082 29.0928 24.6488 28.2936 25.4187ZM35.264 23.6082C35.3184 23.6892 35.3184 23.6892 35.3739 23.7719C35.8748 24.5363 36.2908 25.3321 36.7124 26.1429C37.4891 26.1429 38.2658 26.1429 39.066 26.1429C38.057 24.9657 37.0379 24.1042 35.5355 23.6082C35.4459 23.6082 35.3563 23.6082 35.264 23.6082ZM33.2724 23.7892C32.2864 24.867 32.2864 24.867 31.7335 26.1429C32.8089 26.1429 33.8844 26.1429 34.9924 26.1429C34.7247 25.6075 34.4669 25.1463 34.1324 24.6605C34.0896 24.5962 34.0468 24.5319 34.0026 24.4657C33.9394 24.3735 33.9394 24.3735 33.875 24.2793C33.8375 24.2242 33.7999 24.1691 33.7613 24.1123C33.6146 23.948 33.4735 23.8755 33.2724 23.7892ZM26.7546 27.5913C26.6818 27.7985 26.609 28.0058 26.534 28.2193C26.5112 28.2828 26.4884 28.3462 26.4649 28.4116C26.3036 28.8833 26.2693 29.2438 26.2115 29.7639C27.1376 29.7639 28.0636 29.7639 29.0178 29.7639C29.0775 29.4726 29.1372 29.1814 29.1988 28.8813C29.2177 28.79 29.2366 28.6988 29.2561 28.6048C29.2708 28.5322 29.2855 28.4596 29.3006 28.3848C29.3158 28.3108 29.331 28.2369 29.3466 28.1607C29.3894 27.9288 29.3894 27.9288 29.3799 27.5913C28.5135 27.5913 27.6472 27.5913 26.7546 27.5913ZM31.0998 27.5913C31.0409 27.7364 30.9821 27.8816 30.9235 28.0268C30.8907 28.1076 30.858 28.1885 30.8243 28.2718C30.7336 28.5072 30.6691 28.7348 30.6246 28.9831C30.611 29.0548 30.5975 29.1264 30.5835 29.2002C30.5487 29.4277 30.5487 29.4277 30.5567 29.7639C32.4088 29.7639 34.261 29.7639 36.1692 29.7639C36.1081 29.2138 36.0501 28.7857 35.8976 28.2702C35.8659 28.161 35.8342 28.0518 35.8015 27.9392C35.7419 27.6935 35.7419 27.6935 35.6261 27.5913C35.4844 27.5828 35.3423 27.5806 35.2003 27.581C35.0644 27.581 35.0644 27.581 34.9257 27.581C34.8272 27.5815 34.7286 27.582 34.6271 27.5824C34.4766 27.5826 34.4766 27.5826 34.3231 27.5828C34.0011 27.5833 33.6792 27.5845 33.3573 27.5856C33.1396 27.5861 32.922 27.5865 32.7043 27.5869C32.1695 27.5879 31.6347 27.5894 31.0998 27.5913ZM37.346 27.5913C37.4135 28.1506 37.4135 28.1506 37.5048 28.703C37.5156 28.76 37.5264 28.817 37.5375 28.8758C37.5509 28.9448 37.5643 29.0138 37.578 29.0849C37.621 29.309 37.6639 29.533 37.7081 29.7639C38.6342 29.7639 39.5603 29.7639 40.5144 29.7639C40.4509 29.192 40.3806 28.7445 40.1919 28.2193C40.1191 28.0121 40.0463 27.8048 39.9713 27.5913C39.1049 27.5913 38.2386 27.5913 37.346 27.5913ZM26.2115 31.2123C26.275 31.7841 26.3453 32.2317 26.534 32.7569C26.6068 32.9641 26.6796 33.1713 26.7546 33.3849C27.621 33.3849 28.4873 33.3849 29.3799 33.3849C29.3124 32.8255 29.3124 32.8255 29.2211 32.2731C29.2103 32.2161 29.1995 32.1591 29.1883 32.1004C29.175 32.0314 29.1616 31.9623 29.1479 31.8912C29.1049 31.6672 29.062 31.4431 29.0178 31.2123C28.0917 31.2123 27.1656 31.2123 26.2115 31.2123ZM30.5567 31.2123C30.6178 31.7623 30.6758 32.1904 30.8282 32.7059C30.86 32.8152 30.8917 32.9244 30.9244 33.0369C30.984 33.2827 30.984 33.2827 31.0998 33.3849C31.2415 33.3933 31.3836 33.3955 31.5256 33.3952C31.6615 33.3951 31.6615 33.3951 31.8002 33.3951C31.8987 33.3947 31.9973 33.3942 32.0988 33.3937C32.1991 33.3936 32.2995 33.3935 32.4028 33.3933C32.7248 33.3928 33.0467 33.3917 33.3686 33.3905C33.5863 33.3901 33.8039 33.3897 34.0216 33.3893C34.5564 33.3883 35.0912 33.3868 35.6261 33.3849C35.685 33.2398 35.7438 33.0946 35.8024 32.9494C35.8515 32.8281 35.8515 32.8281 35.9016 32.7044C35.9923 32.4689 36.0568 32.2414 36.1013 31.9931C36.1149 31.9214 36.1284 31.8498 36.1423 31.7759C36.1772 31.5484 36.1772 31.5484 36.1692 31.2123C34.3171 31.2123 32.4649 31.2123 30.5567 31.2123ZM37.7081 31.2123C37.6484 31.5035 37.5886 31.7948 37.5271 32.0949C37.5082 32.1861 37.4893 32.2773 37.4698 32.3713C37.4551 32.4439 37.4404 32.5166 37.4253 32.5914C37.4025 32.7023 37.4025 32.7023 37.3793 32.8155C37.3365 33.0474 37.3365 33.0474 37.346 33.3849C38.2124 33.3849 39.0787 33.3849 39.9713 33.3849C40.0441 33.1776 40.1169 32.9704 40.1919 32.7569C40.2261 32.6616 40.2261 32.6616 40.261 32.5645C40.4223 32.0928 40.4566 31.7324 40.5144 31.2123C39.5883 31.2123 38.6623 31.2123 37.7081 31.2123ZM27.6599 34.8333C28.6459 35.9836 29.6926 36.9329 31.1903 37.368C31.28 37.3381 31.3696 37.3082 31.4619 37.2774C31.4105 37.1996 31.359 37.1218 31.306 37.0416C30.8349 36.3227 30.4114 35.5952 30.0135 34.8333C29.2368 34.8333 28.4601 34.8333 27.6599 34.8333ZM31.7335 34.8333C32.0012 35.3686 32.259 35.8299 32.5935 36.3156C32.6363 36.3799 32.6791 36.4442 32.7233 36.5105C32.7654 36.572 32.8075 36.6335 32.8509 36.6968C32.8884 36.7519 32.9259 36.8071 32.9646 36.8638C33.1113 37.0282 33.2524 37.1007 33.4535 37.1869C34.4395 36.1092 34.4395 36.1092 34.9924 34.8333C33.917 34.8333 32.8415 34.8333 31.7335 34.8333ZM36.7124 34.8333C36.591 35.0667 36.4696 35.3 36.3446 35.5405C36.0136 36.1712 35.6614 36.7763 35.264 37.368C36.8981 37.1386 38.0367 36.0341 39.066 34.8333C38.2893 34.8333 37.5126 34.8333 36.7124 34.8333Z" fill="white"/>
<path d="M14.1095 22.4599C15.0364 23.1599 15.8048 24.0528 15.9822 25.2379C16.1272 27.007 15.7318 28.1156 14.6244 29.4925C14.6881 29.5158 14.7518 29.539 14.8174 29.5629C17.0089 30.4126 18.6981 32.0777 19.6938 34.1998C20.3823 35.8459 20.3274 37.3399 20.3274 39.1787C14.5918 39.1787 8.85612 39.1787 2.94666 39.1787C2.94666 36.045 3.23322 33.8072 5.40568 31.5576C6.31043 30.6604 7.41283 29.8588 8.64972 29.4925C8.57131 29.4085 8.49289 29.3245 8.4121 29.2379C7.65725 28.3546 7.23799 27.318 7.25225 26.1601C7.253 26.0809 7.25375 26.0016 7.25452 25.92C7.28639 24.6931 7.76081 23.7979 8.58749 22.9068C10.0626 21.5107 12.4272 21.3433 14.1095 22.4599ZM9.37392 24.3326C8.83468 25.1267 8.75757 25.8231 8.83077 26.7768C9.02846 27.6138 9.47884 28.1737 10.2 28.6212C10.9115 29.0358 11.732 29.0766 12.5327 28.8875C13.4275 28.5563 13.936 27.9865 14.3528 27.1389C14.604 26.4021 14.522 25.4963 14.1944 24.8012C13.8019 24.1179 13.2162 23.6263 12.4617 23.369C11.2585 23.1663 10.192 23.4018 9.37392 24.3326ZM10.1886 30.6694C10.3938 31.0422 10.6408 31.3367 10.9298 31.6482C10.9718 31.6936 11.0137 31.7391 11.0569 31.7859C11.1594 31.8968 11.2624 32.0073 11.3655 32.1178C11.7263 31.9777 11.9072 31.7483 12.1462 31.4501C12.2165 31.3635 12.2867 31.277 12.3591 31.1878C12.508 30.9871 12.6231 30.8062 12.7233 30.5788C11.8399 30.4686 11.0607 30.5234 10.1886 30.6694ZM14.3528 31.122C14.3055 31.1813 14.2583 31.2405 14.2096 31.3016C13.6783 31.9603 13.1196 32.5858 12.5423 33.2041C12.8141 33.4914 13.1033 33.7212 13.4249 33.9509C13.5586 34.0468 13.5586 34.0468 13.6951 34.1447C13.7628 34.1927 13.8304 34.2408 13.9002 34.2904C14.0883 34.0081 14.1842 33.7572 14.2969 33.4378C14.3168 33.3819 14.3366 33.326 14.357 33.2685C14.4201 33.0906 14.4826 32.9125 14.5452 32.7345C14.5879 32.6136 14.6307 32.4927 14.6735 32.3718C14.7782 32.076 14.8825 31.7801 14.9865 31.4841C14.7806 31.2641 14.6531 31.1738 14.3528 31.122ZM8.01605 31.4841C8.07015 32.0894 8.26965 32.6289 8.47433 33.1984C8.50846 33.2948 8.5426 33.3913 8.57776 33.4907C8.66157 33.7272 8.74592 33.9636 8.83077 34.1998C9.21686 34.1998 9.41921 33.9785 9.70773 33.7472C9.76264 33.704 9.81754 33.6609 9.87411 33.6164C10.0096 33.5097 10.1444 33.4022 10.2792 33.2946C9.91974 32.79 9.52682 32.3285 9.10694 31.8731C8.9213 31.6651 8.9213 31.6651 8.77808 31.4572C8.73573 31.4063 8.69337 31.3555 8.64972 31.303C8.3686 31.303 8.2557 31.3519 8.01605 31.4841ZM16.2538 32.2988C15.746 33.7327 15.2381 35.1666 14.7149 36.644C14.3637 36.5035 14.1796 36.4194 13.8998 36.1967C13.8333 36.1442 13.7667 36.0917 13.6981 36.0376C13.6285 35.9819 13.5589 35.9262 13.4871 35.8689C13.3415 35.7546 13.1958 35.6404 13.0501 35.5262C12.7984 35.3277 12.5486 35.1273 12.3004 34.9244C12.2057 34.8488 12.1109 34.7733 12.0161 34.6977C11.9353 34.6314 11.8544 34.5652 11.7711 34.4969C11.5531 34.3511 11.5531 34.3511 11.3288 34.4475C11.1038 34.5571 10.9267 34.6727 10.7314 34.8282C10.6649 34.8807 10.5983 34.9332 10.5297 34.9873C10.4601 35.0429 10.3905 35.0986 10.3188 35.156C10.1734 35.2706 10.0279 35.3852 9.88242 35.4997C9.81144 35.5558 9.74046 35.6119 9.66733 35.6696C9.39245 35.8859 9.11545 36.0992 8.83643 36.3102C8.75346 36.3733 8.67049 36.4365 8.58501 36.5015C8.37815 36.644 8.37815 36.644 8.10657 36.7345C8.09347 36.6812 8.08036 36.6279 8.06686 36.573C7.8525 35.7436 7.56322 34.9434 7.27488 34.1376C7.22375 33.9939 7.17265 33.8501 7.12159 33.7064C6.99767 33.3577 6.87331 33.0093 6.7487 32.6609C6.65908 32.6609 6.56946 32.6609 6.47713 32.6609C6.30545 32.8359 6.15728 33.0058 6.00753 33.1984C5.96365 33.2548 5.91978 33.3112 5.87457 33.3693C4.87864 34.7005 4.48558 36.074 4.48558 37.7303C9.20555 37.7303 13.9255 37.7303 18.7885 37.7303C18.7885 35.9331 18.2539 34.3856 17.0685 33.023C17.0265 32.9692 16.9845 32.9154 16.9412 32.86C16.7207 32.5783 16.584 32.4639 16.2538 32.2988Z" fill="white"/>
<path d="M18.879 4.41699C21.2689 4.41699 23.6588 4.41699 26.121 4.41699C26.1285 5.12835 26.136 5.8397 26.1437 6.57262C26.147 6.79513 26.1503 7.01764 26.1537 7.24689C26.1547 7.42631 26.1556 7.60573 26.1564 7.78515C26.1582 7.87584 26.1601 7.96652 26.162 8.05994C26.1625 9.0868 25.8356 9.91909 25.1253 10.6632C24.29 11.4606 23.4188 11.7156 22.286 11.7016C21.2153 11.6592 20.4324 11.2472 19.6962 10.4761C19.0174 9.67048 18.8226 8.81921 18.8437 7.78515C18.844 7.69896 18.8444 7.61276 18.8448 7.52396C18.8467 7.20682 18.8517 6.88972 18.8564 6.57262C18.8639 5.86126 18.8713 5.1499 18.879 4.41699ZM20.3274 5.86539C20.1931 7.73242 20.1931 7.73242 20.8706 9.39586C21.3593 9.88108 21.7759 10.1447 22.4831 10.154C23.0997 10.1404 23.4972 10.0143 23.946 9.58858C24.9508 8.49708 24.6726 7.3963 24.6726 5.86539C23.2387 5.86539 21.8048 5.86539 20.3274 5.86539Z" fill="white"/>
<path d="M5.84338 40.627C10.6231 40.627 15.4028 40.627 20.3274 40.627C20.3274 41.1049 20.3274 41.5829 20.3274 42.0754C15.5477 42.0754 10.7679 42.0754 5.84338 42.0754C5.84338 41.5974 5.84338 41.1194 5.84338 40.627Z" fill="white"/>
<path d="M30.4662 40.627C34.29 40.627 38.1137 40.627 42.0534 40.627C42.0534 41.1049 42.0534 41.5829 42.0534 42.0754C38.2296 42.0754 34.4058 42.0754 30.4662 42.0754C30.4662 41.5974 30.4662 41.1194 30.4662 40.627Z" fill="white"/>
<path d="M27.5693 40.627C28.0473 40.627 28.5253 40.627 29.0177 40.627C29.0177 41.1049 29.0177 41.5829 29.0177 42.0754C28.5398 42.0754 28.0618 42.0754 27.5693 42.0754C27.5693 41.5974 27.5693 41.1194 27.5693 40.627Z" fill="white"/>
<path d="M24.6726 40.627C25.1506 40.627 25.6286 40.627 26.121 40.627C26.121 41.1049 26.121 41.5829 26.121 42.0754C25.643 42.0754 25.1651 42.0754 24.6726 42.0754C24.6726 41.5974 24.6726 41.1194 24.6726 40.627Z" fill="white"/>
<path d="M2.94666 40.627C3.42463 40.627 3.9026 40.627 4.39505 40.627C4.39505 41.1049 4.39505 41.5829 4.39505 42.0754C3.91708 42.0754 3.43911 42.0754 2.94666 42.0754C2.94666 41.5974 2.94666 41.1194 2.94666 40.627Z" fill="white"/>
</svg>
