<svg width="41" height="41" viewBox="0 0 41 41" fill="none" xmlns="http://www.w3.org/2000/svg">
<path fill-rule="evenodd" clip-rule="evenodd" d="M17.5367 18.9106C17.5781 18.9106 17.6278 18.9437 17.6444 18.9934C17.6527 19.0347 17.8928 19.1009 18.1744 19.134C18.6548 19.1919 18.6879 19.2168 18.6548 19.3822C18.6217 19.5477 18.7625 19.68 20.5183 20.9789L21.4707 20.2757C22.241 19.7049 22.4149 19.5394 22.3818 19.407C22.3486 19.2581 22.39 19.2333 22.8207 19.1919C23.0775 19.1671 23.3756 19.134 23.4833 19.1092C23.5992 19.0927 23.682 19.1257 23.7069 19.2002C23.7317 19.2747 23.9388 19.3657 24.1873 19.4153C24.4192 19.4732 24.9326 19.6221 25.3219 19.7545C25.7112 19.8952 26.4152 20.2013 26.8955 20.4495C27.3759 20.6976 28.0881 21.1444 28.494 21.434C28.8915 21.7318 29.5127 22.2613 29.8854 22.6087C30.2581 22.9728 30.5397 23.3037 30.5231 23.3782C30.5065 23.4443 30.4403 23.494 30.374 23.494C30.3078 23.4857 30.0841 23.6015 29.5044 24.0235L28.8335 23.3947C28.4691 23.039 27.8728 22.5508 27.5084 22.3026C27.1523 22.0544 26.498 21.6739 26.0673 21.4588C25.6366 21.2354 25.2557 21.0617 25.2142 21.0617C25.1811 21.0617 25.1563 21.5581 25.1563 22.1537C25.1563 22.7577 25.1314 23.3782 25.0983 23.5188C25.0569 23.6843 24.9658 23.8001 24.8664 23.8249C24.7753 23.8497 24.4606 23.8911 24.1624 23.9242C23.8643 23.949 23.6075 23.9904 23.5827 24.0069C23.5578 24.0235 23.2845 23.8994 22.9615 23.7422C22.6385 23.5767 22.3652 23.4857 22.3403 23.5271C22.3155 23.5684 22.241 23.6181 22.1747 23.6429C22.1084 23.6594 21.8931 23.6346 21.6943 23.5684C21.479 23.5022 21.3465 23.494 21.3465 23.5436C21.3465 23.5933 21.2554 23.6263 21.1394 23.6263C21.0235 23.6263 20.9324 23.6098 20.9324 23.585C20.9324 23.5602 21.0069 23.3947 21.2637 22.8818L20.5183 22.5095L19.7729 22.8818L19.9799 23.2954C20.1787 23.6925 20.1787 23.7091 20.0213 23.7091C19.9302 23.7091 19.6486 23.7835 18.9447 24.04L18.8122 23.767C18.7376 23.6263 18.6631 23.494 18.6465 23.4774C18.6299 23.4692 18.3898 23.5767 18.1165 23.7091C17.8431 23.8414 17.5201 23.9573 17.3876 23.9573C17.2634 23.9573 16.8741 23.9076 15.8803 23.7504L15.8389 20.9872L15.0107 21.3843C14.5551 21.5994 13.8843 21.9965 13.5199 22.253C13.1555 22.5177 12.5923 22.9893 11.6978 23.8745L11.4493 23.7091C11.3085 23.6181 11.0601 23.5022 10.8862 23.4609C10.7205 23.4112 10.5797 23.3451 10.5797 23.2954C10.5797 23.2458 10.9276 22.8652 11.3417 22.4433C11.7641 22.0214 12.4101 21.4753 12.7745 21.2189C13.1389 20.9624 13.7186 20.6066 14.0582 20.4164C14.3978 20.2344 15.0355 19.9531 15.4662 19.7959C15.8968 19.6304 16.4932 19.4567 16.783 19.3905C17.1971 19.3078 17.3214 19.2416 17.3793 19.0927C17.4208 18.9934 17.487 18.9106 17.5367 18.9106V18.9106ZM17.1889 21.6491C17.1971 22.1868 17.2303 22.6336 17.2634 22.6253C17.3048 22.6253 17.752 22.4102 18.2655 22.1537L19.1931 21.6822C18.0419 20.8135 17.6527 20.5735 17.5947 20.5735C17.545 20.5818 17.4208 20.5984 17.3297 20.6232C17.1723 20.6563 17.164 20.7225 17.1889 21.6491ZM21.8434 21.6822C23.2845 22.4102 23.7317 22.6253 23.7649 22.6253C23.8063 22.6336 23.8311 22.1868 23.8311 21.6408C23.8311 20.9045 23.8063 20.648 23.7235 20.648C23.6738 20.648 23.5495 20.6315 23.4584 20.6066C23.3425 20.5818 23.0609 20.7473 22.564 21.1279L21.8434 21.6822ZM39.385 19.043C39.4429 19.0596 39.5423 19.0761 39.6169 19.0761C39.7163 19.0761 39.7411 19.225 39.7411 19.92C39.7411 20.3915 39.6997 20.9955 39.65 21.2685C39.6003 21.5415 39.4595 21.9469 39.3436 22.1785C39.2276 22.4019 38.9709 22.7577 38.7721 22.9645C38.5733 23.1713 38.416 23.4195 38.416 23.5188C38.416 23.6843 38.3663 23.7091 38.1012 23.7091C37.9273 23.7091 37.447 23.7339 37.0246 23.7504C36.5442 23.7753 36.2626 23.7587 36.2626 23.7091C36.2626 23.6594 36.2046 23.6512 36.1301 23.6843C36.0307 23.7339 35.9893 23.7008 35.9645 23.5602C35.9313 23.3947 35.8816 23.3782 35.3516 23.3782C34.8878 23.3782 34.7718 23.403 34.7718 23.5022C34.7718 23.585 34.7221 23.607 34.6227 23.5684C34.5399 23.5436 34.3743 23.5022 34.25 23.4857C34.0761 23.4692 34.0264 23.494 34.0264 23.6015C34.0264 23.7256 33.9519 23.7504 33.5295 23.7256C33.0574 23.7091 33.0326 23.7008 33.0657 23.5188C33.0905 23.3864 33.0077 23.2375 32.751 22.9645C32.5522 22.7577 32.2955 22.4019 32.1795 22.1785C32.0636 21.9469 31.9311 21.5415 31.8814 21.2685C31.8234 20.9955 31.7903 20.3915 31.7903 19.92C31.7903 19.1671 31.8068 19.0761 31.931 19.0761C32.0139 19.0761 32.312 19.1257 33.1154 19.2829V20.2344C33.1154 20.9707 33.1485 21.2602 33.2645 21.5167C33.3473 21.6987 33.5295 21.9883 33.9436 22.4681H37.5877L37.8693 22.1124C38.0267 21.9221 38.2089 21.6242 38.416 21.1444H37.3558C36.6601 21.1444 36.1549 21.103 35.8651 21.0203C35.5669 20.9376 35.3184 20.7887 35.0783 20.5405C34.8795 20.3502 34.6807 20.0772 34.631 19.9448C34.5648 19.7628 34.5648 19.6718 34.6393 19.6139C34.689 19.5642 34.7884 19.5146 34.8546 19.498C34.9209 19.4815 35.1362 19.4319 35.3267 19.3988C35.6497 19.3326 35.6994 19.3408 36.1798 19.8207H38.416V19.5311C38.416 19.3739 38.4574 19.225 38.5153 19.2085C38.5733 19.1919 38.7721 19.1423 38.9543 19.0927C39.1365 19.0513 39.327 19.0265 39.385 19.043Z" fill="white"/>
<path d="M21.8186 4.35021C22.0339 4.35021 22.0919 4.31712 22.0919 4.18475C22.0919 4.06065 22.1499 4.01929 22.2989 4.01929C22.4729 4.01929 22.506 4.06065 22.506 4.26748C22.506 4.39985 22.5805 4.71423 22.6716 4.94588C22.7545 5.1858 22.945 5.54155 23.0857 5.73183C23.2183 5.93039 23.4999 6.21167 23.7069 6.35232C23.914 6.50124 24.2949 6.70806 24.5517 6.80734C24.825 6.90662 25.2225 7.16309 25.4793 7.38646C25.7774 7.6512 26.0093 7.94904 26.1584 8.27996C26.2909 8.55298 26.3738 8.80117 26.3572 8.83427C26.3323 8.87563 26.0673 8.97491 25.7609 9.06591C25.4462 9.15692 25.1977 9.2231 25.1977 9.20656C25.1977 9.19829 25.0983 8.99973 24.9824 8.77635C24.7836 8.38752 24.7173 8.33788 23.8891 7.92422C23.2348 7.60984 22.8787 7.36992 22.5226 7.02244C22.2575 6.7577 21.9262 6.33577 21.7854 6.08758C21.6364 5.83938 21.4542 5.39263 21.3713 5.10307C21.2223 4.59014 21.2223 4.58186 21.3879 4.46604C21.479 4.39985 21.6778 4.35021 21.8186 4.35021Z" fill="white"/>
<path d="M12.261 5.75665C12.3604 5.50846 12.5674 5.10307 12.7165 4.86315C12.8739 4.6315 13.0395 4.43295 13.0892 4.43295C13.1389 4.43295 13.3211 4.51568 13.495 4.61495C13.669 4.72251 13.8594 4.89624 13.9174 5.01207C14.0085 5.19408 14.0002 5.26026 13.7766 5.59119C13.6358 5.79802 13.4619 6.17858 13.3791 6.43505C13.2963 6.69979 13.23 7.15481 13.23 7.45265C13.23 7.75048 13.2714 8.18896 13.3211 8.42061C13.3625 8.66053 13.3956 8.86736 13.3791 8.8839C13.3625 8.89218 13.2217 8.917 13.0644 8.94182C12.907 8.96664 12.7 8.99973 12.6088 9.02455C12.5177 9.0411 12.3769 9.07419 12.3024 9.09901C12.1782 9.14037 12.1368 9.07419 12.0788 8.71017C12.0374 8.47852 11.9794 8.08968 11.9546 7.86631C11.9214 7.63466 11.938 7.17136 11.9877 6.83216C12.0374 6.49296 12.1616 6.00485 12.261 5.75665Z" fill="white"/>
<path d="M0.0531325 6.00485C0.102825 5.61601 0.202211 5.12789 0.268468 4.91279L0.400982 4.52395L0.707421 4.72251C0.873064 4.83006 1.13809 4.95415 1.28717 4.98725C1.43625 5.02034 1.5522 5.06998 1.5522 5.0948C1.5522 5.11962 1.49422 5.31817 1.42797 5.54982C1.35343 5.7732 1.30373 6.24477 1.30373 6.58397C1.30373 6.97281 1.36171 7.41128 1.4611 7.74221C1.5522 8.04004 1.74269 8.4537 1.88348 8.6688C2.08226 8.98318 2.09882 9.05764 1.99115 9.02455C1.90833 8.99973 1.61846 9.05764 1.34515 9.14865C1.07183 9.23965 0.831653 9.31411 0.806807 9.31411C0.78196 9.31411 0.641164 9.04937 0.483803 8.71844C0.318161 8.3627 0.152518 7.81667 0.0779789 7.41128C-0.0214067 6.84871 -0.0214067 6.56742 0.0531325 6.00485Z" fill="white"/>
<path d="M30.5562 5.83938C30.6225 5.40918 30.7302 4.94588 30.7881 4.81351C30.871 4.61495 30.9206 4.59014 31.1028 4.63977C31.2271 4.66459 31.4259 4.71423 31.5501 4.73905C31.6743 4.76387 31.7737 4.81351 31.7737 4.85488C31.782 4.89624 31.8565 4.92933 32.1133 4.92933L31.9476 5.42572C31.84 5.74838 31.782 6.14549 31.782 6.55915C31.7737 6.97281 31.8317 7.39474 31.9393 7.74221C32.0304 8.04004 32.1878 8.41233 32.2789 8.56952C32.3783 8.72672 32.4197 8.8839 32.3866 8.917C32.3452 8.95009 32.1961 9.008 32.047 9.0411C31.8482 9.09073 31.7737 9.07419 31.7737 8.99973C31.782 8.92527 31.7074 8.93354 31.4673 9.02455C31.3016 9.09901 31.1608 9.14865 31.1608 9.15692C31.1608 9.15692 31.0532 8.917 30.9206 8.63571C30.7881 8.34615 30.6225 7.7753 30.5479 7.36992C30.4403 6.69979 30.4403 6.5426 30.5562 5.83938Z" fill="white"/>
<path d="M9.32084 4.86315C9.53617 4.89624 9.79292 4.88797 9.87574 4.8466C9.96685 4.80524 10.0828 4.77214 10.1408 4.77214C10.1987 4.76387 10.2816 4.90452 10.3313 5.06998C10.3727 5.24371 10.4555 5.64083 10.4969 5.96348C10.5466 6.27786 10.5632 6.74943 10.53 6.99762C10.5052 7.24582 10.4224 7.67602 10.3561 7.94904C10.2898 8.22205 10.1408 8.61916 10.0331 8.83427C9.92544 9.05764 9.80949 9.23138 9.79292 9.23138C9.76807 9.23138 9.49476 9.14865 9.18832 9.05764C8.88189 8.95836 8.62514 8.86736 8.60858 8.85081C8.60029 8.83427 8.66655 8.69362 8.75765 8.54471C8.84876 8.40406 8.99784 8.04004 9.08894 7.74221C9.19661 7.39474 9.25458 6.97281 9.25458 6.55915C9.25458 6.15376 9.18832 5.73183 9.08894 5.4009C8.99784 5.11962 8.9233 4.87142 8.9233 4.8466C8.9233 4.82178 9.09722 4.83006 9.32084 4.86315Z" fill="white"/>
<path d="M27.4339 5.02861C27.3925 4.87142 27.4256 4.83833 27.6575 4.81351C27.8066 4.80524 27.9556 4.78042 27.9888 4.77214C28.0219 4.77214 28.055 4.79696 28.055 4.8466C28.055 4.88797 28.1296 4.92933 28.2207 4.92933C28.3118 4.92933 28.4608 4.88797 28.552 4.8466C28.701 4.77214 28.7259 4.81351 28.875 5.48364C28.9578 5.88902 29.0572 6.4516 29.082 6.74943C29.1151 7.04726 29.0986 7.61811 29.0489 8.03177C28.9992 8.43715 28.9412 8.83427 28.9164 8.90045C28.8915 8.99973 28.7921 9.008 28.3615 8.95009L28.3614 8.95009C28.0799 8.90872 27.7983 8.86736 27.7403 8.85081C27.6823 8.82599 27.6575 8.74326 27.6906 8.62744C27.7155 8.52816 27.7569 8.01522 27.7817 7.49401C27.8148 6.69979 27.7983 6.43505 27.6492 5.88075C27.5581 5.51673 27.4587 5.13616 27.4339 5.02861Z" fill="white"/>
<path d="M39.7328 4.92106C39.9482 4.98725 40.0972 4.97897 40.3457 4.89624C40.5942 4.80524 40.6853 4.80524 40.7267 4.87142C40.7598 4.92933 40.8344 5.17753 40.8923 5.42572C40.9586 5.67392 41 6.21167 41 6.62533C41 7.05554 40.9337 7.59329 40.8509 7.90767C40.7764 8.20551 40.619 8.61916 40.5114 8.83427C40.3291 9.19829 40.2877 9.2231 40.0807 9.17347C39.9565 9.14865 39.6583 9.08246 38.9957 8.94182L39.2028 8.61089C39.3104 8.42888 39.4761 8.04004 39.5672 7.74221C39.6749 7.39474 39.7328 6.97281 39.7328 6.55915C39.7328 6.16204 39.6666 5.72356 39.5672 5.4009C39.4761 5.11962 39.4181 4.87142 39.4264 4.86315C39.4347 4.8466 39.5672 4.87142 39.7328 4.92106Z" fill="white"/>
<path d="M15.8803 5.6491C16.0376 5.54982 16.3358 5.42572 16.5429 5.36781C16.7416 5.31817 16.9818 5.26853 17.0564 5.26853C17.1806 5.26026 17.2054 5.34299 17.2054 5.92211C17.2054 6.55087 17.1971 6.58397 17.0149 6.58397C16.9156 6.57569 16.7002 6.6667 16.5429 6.77425C16.3772 6.87353 16.1619 7.08863 16.0625 7.24582C15.8969 7.49401 15.872 7.64293 15.8803 9.06591L15.6484 9.01628C15.5242 8.99146 15.226 8.95009 14.5303 8.85909L14.5717 8.07314C14.6048 7.52711 14.6711 7.17136 14.7953 6.89007C14.8864 6.67497 15.1101 6.34404 15.2757 6.16204C15.4496 5.97175 15.7146 5.7401 15.8803 5.6491Z" fill="white"/>
<path d="M12.1533 36.8635C12.2941 36.8635 12.4018 36.8304 12.4018 36.7807C12.4018 36.7311 12.5591 36.698 12.7579 36.698C13.0809 36.698 13.1058 36.7145 13.172 36.9627C13.2051 37.1117 13.23 37.7818 13.23 39.6763H19.8557V37.0289H20.2284C20.5431 37.0289 20.6011 37.0041 20.6011 36.8635C20.6011 36.7311 20.6591 36.698 21.1808 36.698V39.6763H27.8065V38.5181C27.8065 37.5419 27.8231 37.3599 27.9308 37.3599C27.997 37.3599 28.055 37.3929 28.055 37.4426C28.055 37.4922 28.2869 37.5253 29.1317 37.5253V41H9.33739L9.0061 40.5037L9.20487 40.4871C9.38708 40.4623 9.37052 40.4375 8.67482 39.9245V40.3796C8.67482 40.6277 8.65825 40.8346 8.63341 40.8346C8.60856 40.8346 8.44292 40.7353 7.92114 40.3796L7.92942 37.3599H9.25457V39.6763H11.9048V36.8635H12.1533Z" fill="white"/>
<path d="M29.8108 37.3599C29.9185 37.3599 30.167 37.2688 30.374 37.153C30.5811 37.0455 30.7633 36.9545 30.7881 36.9462C30.813 36.9462 31.0366 37.1365 31.285 37.3764C31.5335 37.608 31.9807 37.9224 32.2789 38.0548C32.7758 38.2864 32.8918 38.3113 33.6869 38.3113C34.4985 38.3113 34.5979 38.2947 35.1114 38.0383C35.4261 37.8976 35.8733 37.5832 36.1052 37.3516C36.5276 36.9462 36.5525 36.9379 36.7761 37.0455C36.9307 37.1172 37.0052 37.2137 36.9997 37.335C36.9997 37.4922 37.0411 37.5253 37.2482 37.5253C37.389 37.5253 37.4966 37.5667 37.4966 37.6246C37.4966 37.6825 37.3062 37.9307 37.066 38.1789C36.8258 38.4271 36.4365 38.7497 36.2129 38.8987C35.981 39.0558 35.5172 39.271 35.1776 39.395C34.6642 39.5771 34.4074 39.6102 33.6869 39.6102C32.9994 39.6184 32.7013 39.5771 32.2789 39.4364C31.9807 39.3289 31.5335 39.1303 31.285 38.9897C31.0366 38.849 30.5893 38.485 30.2995 38.1872C30.0096 37.8893 29.7363 37.5832 29.7032 37.5005C29.6452 37.3847 29.6617 37.3599 29.8108 37.3599Z" fill="white"/>
<path d="M9.27952 25.2397C9.5197 24.7847 9.88411 24.1642 10.0994 23.8663L10.4887 23.3203L10.8448 23.4361C11.0436 23.5023 11.3004 23.6181 11.4329 23.6926C11.5571 23.7753 11.6565 23.8581 11.6565 23.8994C11.6565 23.9325 11.4494 24.2304 11.201 24.5613C10.9525 24.8839 10.5632 25.5127 10.3479 25.9429C10.1243 26.3731 9.90068 26.853 9.85098 27.0019C9.7516 27.2666 9.7516 27.2666 9.32093 27.217C9.08074 27.1839 8.79915 27.126 8.50928 27.0184L8.67492 26.5468C8.77431 26.2821 9.03933 25.6947 9.27952 25.2397Z" fill="white"/>
<path d="M30.3493 23.5106C30.4072 23.5271 30.4818 23.494 30.5149 23.4361C30.548 23.37 30.6557 23.4444 30.8462 23.6678C31.0036 23.8498 31.2934 24.2386 31.4922 24.5365C31.691 24.8343 32.0057 25.3721 32.2045 25.7361C32.4032 26.1001 32.5689 26.3566 32.5854 26.3152C32.5937 26.2656 32.6848 25.7692 32.7759 25.1983C32.867 24.6275 32.9664 24.0649 32.983 23.9325C33.0244 23.7174 33.041 23.7092 33.5213 23.7257C33.9437 23.7505 34.0182 23.7257 34.0182 23.6016C34.0182 23.494 34.0762 23.4692 34.2419 23.494C34.3744 23.5106 34.54 23.5437 34.6146 23.5768C34.7139 23.6099 34.7636 23.5851 34.7636 23.5023C34.7636 23.403 34.8796 23.3782 35.3434 23.3782C35.8817 23.3782 35.9231 23.3948 35.9563 23.5602C35.9811 23.7009 36.0308 23.734 36.1219 23.6843C36.1964 23.6512 36.2544 23.6595 36.2544 23.7092C36.2544 23.7588 35.8734 23.7919 34.3081 23.7919L33.9768 25.7774L33.4799 25.8023L33.7284 25.8354C33.9686 25.8684 33.9768 25.885 33.9189 26.1746C33.8857 26.34 33.8526 26.5468 33.8526 26.6213C33.8526 26.704 33.7946 26.8281 33.7201 26.8943C33.6538 26.9605 33.629 27.0184 33.6787 27.0184C33.7367 27.0184 33.7532 27.1342 33.7201 27.3245C33.687 27.4983 33.6538 27.6637 33.6373 27.6968C33.6207 27.7382 33.5296 27.7134 33.4385 27.6554C33.3391 27.5975 33.2729 27.4652 33.2729 27.3245C33.2729 27.2004 33.2563 27.1011 33.2314 27.1011C33.2066 27.1011 32.9002 27.1591 32.544 27.2252C32.1962 27.2914 31.8318 27.3493 31.7407 27.3493C31.6164 27.3493 31.4674 27.1342 31.0947 26.4145C30.8379 25.9098 30.3824 25.1652 30.0842 24.7598C29.7861 24.3627 29.5459 24.0318 29.5459 24.0153C29.5459 24.007 29.7033 23.8829 29.8937 23.7422C30.0925 23.6016 30.2996 23.494 30.3493 23.5106Z" fill="white"/>
<path d="M21.0981 23.6264C21.2306 23.6264 21.3466 23.5933 21.3383 23.5437C21.3383 23.5023 21.4874 23.5106 21.6944 23.5768C21.8932 23.6347 22.1003 23.6678 22.15 23.6512C22.2079 23.6347 22.2576 23.643 22.2576 23.6678C22.2576 23.6926 22.1665 23.8829 21.8601 24.4951L22.2162 25.9429C22.415 26.7371 22.5641 27.4155 22.5392 27.4486C22.5226 27.49 22.5558 27.5396 22.6055 27.5644C22.6717 27.5975 22.6055 27.6637 22.4233 27.7382C22.2659 27.7961 21.9677 27.8457 21.388 27.8457L21.1147 26.7454C20.9656 26.1497 20.8082 25.5292 20.7586 25.3803C20.7089 25.1983 20.6343 25.1156 20.5184 25.1156C20.4024 25.1156 20.3279 25.1983 20.2782 25.3803C20.2285 25.5292 20.0711 26.1497 19.9221 26.7454C19.6984 27.6306 19.6239 27.8457 19.4997 27.8457C19.4251 27.8457 19.3009 27.8292 19.2346 27.8044C19.1684 27.7795 19.1104 27.7051 19.1104 27.6389C19.1104 27.5644 19.1932 27.5065 19.2926 27.5065L19.3009 27.5057C19.4585 27.49 19.464 27.4894 19.3175 27.4569C19.207 27.4348 19.1518 27.3576 19.1518 27.2252C19.1518 27.0598 19.2015 27.0184 19.4417 26.9936C19.5991 26.977 19.4831 26.9605 19.1684 26.9522C18.7874 26.9357 18.6135 26.9026 18.6135 26.8281C18.6135 26.7785 18.746 26.2242 18.8951 25.612C19.1518 24.5944 19.1684 24.4703 19.0607 24.2635C18.9448 24.0484 18.953 24.0401 19.2512 23.8994C19.4748 23.8084 19.7647 23.7671 20.2036 23.7753C20.5929 23.7836 20.8497 23.7588 20.8497 23.7092C20.8497 23.6595 20.9573 23.6264 21.0981 23.6264Z" fill="white"/>
<path d="M24.7588 23.8415C25.0156 23.8002 25.0735 23.7588 25.0735 23.6016C25.0735 23.5023 25.0901 23.4444 25.1232 23.4692C25.1481 23.494 25.1315 23.9077 25.0818 24.3793C25.0321 24.8508 24.8913 25.6285 24.7754 26.1084C24.6594 26.5882 24.5104 27.0598 24.4441 27.1591C24.3778 27.2666 24.3282 27.4073 24.3282 27.4734C24.3282 27.5727 24.2619 27.5893 23.9555 27.5314C23.5993 27.4734 23.5828 27.4817 23.5828 27.6554C23.5828 27.8126 23.5496 27.8375 23.3923 27.8044C23.2929 27.7795 23.1272 27.763 22.8374 27.763L23.0444 27.2666C23.1604 26.9936 23.3426 26.4641 23.4502 26.0835C23.5579 25.7113 23.6904 25.1239 23.7318 24.7847C23.8064 24.2386 23.7981 24.1559 23.6821 24.0649C23.5579 23.9739 23.5828 23.9573 23.8312 23.9491C23.9886 23.9408 24.1956 23.9243 24.2867 23.916C24.3778 23.9077 24.5932 23.8746 24.7588 23.8415Z" fill="white"/>
<path d="M37.0826 27.8457L37.0744 25.7857V23.7174H38.3995L38.4078 27.8457H37.0826Z" fill="white"/>
<path d="M16.0791 25.2066C16.0129 24.8591 15.9715 24.4041 15.9715 24.1807L15.9798 23.7753L16.4022 23.8415C16.6341 23.8746 16.9985 23.9243 17.1972 23.9573C17.5037 23.9987 17.5368 24.0235 17.3877 24.0649C17.2221 24.1228 17.2055 24.1642 17.2469 24.4372C17.2718 24.6109 17.3546 25.0494 17.4209 25.4134C17.4954 25.7774 17.6362 26.3069 17.9426 27.1094L17.7604 27.1839C17.5865 27.2583 17.5865 27.2583 18.0669 27.2749L17.777 27.399C17.6196 27.4652 17.3463 27.5231 17.1807 27.5231C16.9571 27.5231 16.8659 27.4817 16.8659 27.399C16.8659 27.3245 16.7997 27.2583 16.7252 27.2418C16.6175 27.2252 16.5264 27.0267 16.3856 26.522C16.2779 26.1415 16.1371 25.5458 16.0791 25.2066Z" fill="white"/>
<path d="M12.1451 26.7785C11.9546 26.7785 11.8967 26.7371 11.8967 26.613C11.8967 26.4558 11.9546 26.4476 12.5427 26.4641C12.9485 26.4724 13.0396 26.4889 12.7911 26.5055C12.5095 26.522 12.3936 26.5634 12.3936 26.6544C12.3936 26.7371 12.3108 26.7785 12.1451 26.7785Z" fill="white"/>
<path fill-rule="evenodd" clip-rule="evenodd" d="M20.9737 0.0064912C22.597 0.0230375 22.978 0.0561302 23.5826 0.21332C23.9719 0.304325 24.5682 0.519427 24.9078 0.676617C25.2473 0.84208 25.7525 1.13164 26.0258 1.32192C26.2992 1.52048 26.8044 1.9755 27.1439 2.33952C27.4835 2.70354 27.9059 3.2413 28.0798 3.53086C28.2455 3.82042 28.4525 4.21753 28.5353 4.41609C28.6596 4.73047 28.6596 4.78838 28.5519 4.85456C28.4856 4.89593 28.3448 4.92902 28.2372 4.92902C28.1378 4.92902 28.0467 4.89593 28.0301 4.85456C28.0218 4.8132 27.8645 4.80492 27.3593 4.88766L27.1191 4.43263C26.9866 4.18444 26.6801 3.73769 26.4482 3.44813C26.2163 3.15857 25.7857 2.73663 25.4875 2.52153C25.1894 2.29816 24.709 2.00032 24.4108 1.85968C24.1127 1.71904 23.5909 1.52875 23.2513 1.44602C22.7296 1.31365 22.3237 1.28883 20.7253 1.28883C19.2925 1.28883 18.6962 1.32192 18.3235 1.41293C18.0502 1.48739 17.5864 1.66112 17.2882 1.81004C16.9569 1.96723 16.5428 2.28161 16.2115 2.61254C15.8554 2.96001 15.5572 3.35712 15.3585 3.75423C15.1431 4.17616 14.9361 4.44091 14.6545 4.65601C14.4391 4.82147 14.2321 5.01175 14.1824 5.07794C14.1327 5.14412 14.0499 5.17722 13.9919 5.1524C13.9422 5.1193 13.8925 5.03657 13.8925 4.97039C13.8925 4.9042 13.6937 4.74701 13.0229 4.40781L13.5281 3.94452C13.8014 3.68805 14.141 3.27439 14.2818 3.02619C14.4226 2.778 14.7042 2.36434 14.9029 2.11615C15.11 1.86795 15.5075 1.47911 15.8057 1.25574C16.0956 1.04064 16.5428 0.751076 16.7913 0.626978C17.0397 0.502881 17.4704 0.329144 17.7437 0.254686C18.017 0.171954 18.4228 0.0809496 18.6547 0.0395838C18.8784 0.0064912 19.9219 -0.0100551 20.9737 0.0064912ZM5.23769 1.2971C5.4199 1.2971 5.86713 1.34674 6.23155 1.41293C6.66222 1.48739 7.14258 1.65285 7.5981 1.87623C8.153 2.14924 8.44288 2.36434 8.96465 2.89382C9.41189 3.34057 9.73489 3.76251 10.2401 4.72219L9.93366 4.82147C9.76802 4.87111 9.46158 4.89593 9.25453 4.87111C8.90668 4.82147 8.85698 4.78838 8.55054 4.31681C8.36006 4.03552 7.99564 3.64668 7.72233 3.43158C7.44902 3.22475 7.00179 2.96828 6.72848 2.86073C6.38891 2.72836 5.99136 2.6539 5.48616 2.62908C4.88984 2.59599 4.62481 2.62081 4.16101 2.76145C3.83801 2.85246 3.34108 3.09238 3.05121 3.29094C2.75305 3.48949 2.36379 3.82869 2.18987 4.06034C2.00766 4.28372 1.80061 4.59809 1.72607 4.74701C1.60183 5.00348 1.56871 5.02003 1.30368 4.97866C1.14632 4.94557 0.889571 4.85456 0.740492 4.76356C0.599696 4.67255 0.475464 4.54846 0.475464 4.49054C0.475464 4.44091 0.61626 4.15134 0.781903 3.86178C0.955828 3.57222 1.35337 3.09238 1.67637 2.78627C2.07392 2.40571 2.47974 2.12442 2.9601 1.8845C3.39906 1.66112 3.89599 1.48739 4.28525 1.41293C4.62481 1.35502 5.05548 1.30538 5.23769 1.2971ZM35.7159 1.2971C35.8982 1.2971 36.3454 1.34674 36.7098 1.41293C37.1405 1.48739 37.6208 1.65285 38.0764 1.87623C38.6313 2.14924 38.9211 2.36434 39.4429 2.89382C39.9067 3.35712 40.2049 3.74596 40.4202 4.15962C40.6935 4.69737 40.7101 4.77183 40.5776 4.8132C40.503 4.83802 40.3539 4.89593 40.2463 4.93729C40.1303 4.98693 39.9398 4.97866 39.7079 4.91248C39.4181 4.82974 39.3104 4.73874 39.0288 4.31681C38.8383 4.03552 38.4739 3.64668 38.2006 3.43158C37.9273 3.22475 37.48 2.96828 37.2067 2.86073C36.7843 2.687 36.569 2.66218 35.7574 2.66218C34.9457 2.66218 34.7304 2.687 34.308 2.86073C34.0347 2.96828 33.5874 3.22475 33.3224 3.43158C33.0408 3.64668 32.6681 4.04379 32.4611 4.3499C32.254 4.64773 32.0221 4.89593 31.9393 4.9042C31.8482 4.92075 31.7819 4.9042 31.7819 4.86284C31.7819 4.82974 31.5832 4.75529 30.8709 4.5981L31.1359 4.07689C31.3016 3.75423 31.6494 3.31576 32.0718 2.89382C32.5936 2.36434 32.8835 2.14924 33.4384 1.87623C33.869 1.66112 34.3825 1.48739 34.7635 1.41293C35.1031 1.35502 35.5337 1.30538 35.7159 1.2971ZM21.8599 3.94452C22.2409 3.95279 22.448 3.97761 22.3237 3.98588C22.1581 4.0107 22.0918 4.06861 22.0918 4.18444C22.0918 4.31681 22.0339 4.3499 21.8268 4.3499C21.6777 4.3499 21.4955 4.39127 21.4293 4.43263C21.3382 4.49054 21.2885 4.474 21.2471 4.36645C21.2139 4.29199 21.1891 4.15962 21.1891 4.07689C21.1808 3.95279 21.2636 3.93624 21.8682 3.94452H21.8599Z" fill="white"/>
<path fill-rule="evenodd" clip-rule="evenodd" d="M26.3821 9.02396C26.3987 9.15633 26.5146 9.21424 26.9453 9.31352C27.2931 9.39625 27.5002 9.40453 27.5168 9.35489C27.5333 9.31352 27.5665 9.18115 27.5913 9.06533C27.6327 8.8585 27.641 8.8585 28.1959 8.92468C28.5023 8.96605 28.7839 9.01569 28.8253 9.04878C28.8585 9.08187 28.8253 9.38798 28.6349 10.3477L28.8585 10.8027C29.0407 11.175 29.0821 11.3653 29.0821 11.8782C29.0821 12.3167 29.0241 12.6062 28.9082 12.871C28.8171 13.0778 28.6183 13.3839 28.4609 13.5659C28.3036 13.7397 28.08 13.9548 27.9474 14.0375C27.8149 14.1368 27.641 14.1781 27.5168 14.1533C27.3594 14.1202 27.3097 14.0623 27.3097 13.9051C27.3097 13.7148 27.2766 13.6983 26.937 13.6983C26.5892 13.6983 26.5643 13.6818 26.5643 13.4666C26.5643 13.2929 26.6057 13.235 26.7879 13.1936C26.9205 13.1605 27.1441 13.0282 27.3014 12.9041C27.4505 12.7717 27.6327 12.5649 27.6907 12.4325C27.7569 12.3084 27.8066 12.0519 27.8066 11.8534C27.8066 11.63 27.7487 11.4066 27.6244 11.2163C27.5168 11.0592 27.3014 10.8441 27.1441 10.7448C26.9867 10.6372 26.7714 10.5545 26.6637 10.5545C26.4815 10.5545 26.4815 10.5628 26.4815 13.0778L26.1502 13.0613C25.968 13.0447 25.8189 13.0034 25.8189 12.9537C25.8189 12.9041 25.7278 12.871 25.6119 12.871C25.4959 12.871 25.3468 12.8544 25.2806 12.8296C25.1729 12.7965 25.1564 12.5152 25.1481 9.27216L25.7527 9.06533C26.349 8.8585 26.3573 8.8585 26.3821 9.02396ZM8.62522 8.89986C8.67491 8.89986 8.96479 8.9826 9.82613 9.27216L9.59423 9.60308C9.46171 9.78509 9.11386 10.1657 8.80743 10.4552C8.45129 10.7861 8.02062 11.084 7.57339 11.3074C7.06818 11.5555 6.6872 11.6714 6.06604 11.7707C5.30408 11.8947 5.17157 11.8947 4.45102 11.7707C3.87127 11.6714 3.48201 11.5473 2.96024 11.2908C2.47988 11.0426 2.07405 10.7613 1.67651 10.3808C1.35351 10.0747 1.0305 9.71063 0.806885 9.31352L1.0305 9.23906C1.16302 9.1977 1.39492 9.12324 1.55228 9.06533C1.70964 9.01569 1.91669 9.00742 2.00779 9.04051C2.0989 9.0736 2.26454 9.20597 2.38049 9.33834C2.49644 9.47071 2.81116 9.72718 3.08447 9.90919C3.35778 10.0829 3.82158 10.3063 4.11974 10.3973C4.45102 10.4966 4.89826 10.5545 5.27924 10.5545C5.66022 10.5545 6.10745 10.4966 6.43874 10.3973C6.73689 10.3063 7.21726 10.0747 7.50713 9.8761C7.80529 9.67754 8.15314 9.37971 8.28565 9.20597C8.42645 9.04051 8.57553 8.89986 8.62522 8.89986ZM13.2715 8.94123C13.3874 8.94123 13.4454 9.01569 13.4785 9.18115C13.5034 9.3218 13.5448 9.42107 13.5779 9.4128C13.6193 9.40453 13.8512 9.35489 14.0997 9.31352C14.4724 9.24734 14.5552 9.1977 14.5552 9.06533C14.5552 8.93296 14.6132 8.89986 14.8451 8.89986C15.0025 8.89986 15.3006 8.9495 15.8804 9.10669V13.1192H15.6319C15.4663 13.1192 15.3834 13.1605 15.3834 13.2433C15.3834 13.3095 15.4331 13.3674 15.4828 13.3756C15.5656 13.3756 15.5656 13.3839 15.4828 13.417C15.4331 13.4336 15.3834 13.508 15.3834 13.5742C15.3834 13.6652 15.3172 13.69 15.0936 13.6569C14.8865 13.6238 14.7457 13.6569 14.5966 13.781C14.4144 13.9217 14.4061 13.9548 14.5304 13.9796C14.6132 13.9961 14.5635 14.0127 14.431 14.021C14.2902 14.0292 14.1246 14.0623 14.0583 14.1037C13.992 14.145 13.9589 14.2195 13.992 14.2691C14.0335 14.3188 14.0252 14.3602 13.9755 14.3602C13.9258 14.3602 13.8927 14.2526 13.8927 14.112C13.8927 13.9134 13.8678 13.872 13.7436 13.9217C13.669 13.9465 13.4703 13.9879 13.3129 14.0127C13.0562 14.0458 12.9816 14.0044 12.6586 13.6404C12.4516 13.4253 12.2114 13.0778 12.1203 12.871C12.0043 12.6062 11.9546 12.3167 11.9546 11.8782C11.9546 11.3735 11.996 11.1667 12.1783 10.7779C12.377 10.3559 12.3936 10.2649 12.3191 9.90919C12.2694 9.69409 12.2197 9.43762 12.1948 9.33007C12.1617 9.17288 12.1948 9.13979 12.4433 9.08187C12.6089 9.04051 12.8243 8.99087 12.9236 8.97432C13.023 8.9495 13.1804 8.93296 13.2715 8.94123ZM13.6442 10.9682C13.5034 11.1088 13.3626 11.3653 13.3129 11.5473C13.2632 11.7293 13.2549 11.9775 13.2798 12.1099C13.3129 12.2339 13.404 12.4408 13.4868 12.5814C13.5697 12.7221 13.7353 12.8875 13.8678 12.962C13.992 13.0364 14.1991 13.1192 14.3233 13.1523L14.5552 13.2019C14.5552 11.1502 14.5304 10.5545 14.489 10.5628C14.4558 10.5628 14.3068 10.6041 14.1577 10.6455C14.0169 10.6869 13.785 10.8275 13.6442 10.9682ZM31.7903 9.00742C31.84 9.08187 31.9311 9.08187 32.1713 9.00742C32.486 8.90814 32.486 8.91641 32.7759 9.24734C32.9333 9.42935 33.2894 9.72718 33.5627 9.90919C33.836 10.0829 34.2998 10.3063 34.598 10.3973C34.9293 10.4966 35.3765 10.5545 35.7575 10.5545C36.1385 10.5545 36.5857 10.4966 36.917 10.3973C37.2151 10.3063 37.6955 10.0747 37.9854 9.8761C38.2835 9.67754 38.6148 9.39625 38.7308 9.25561C38.8716 9.0736 39.0206 8.9826 39.1532 8.9826C39.2691 8.9826 39.5756 9.04051 40.3127 9.23079L40.0725 9.57826C39.9482 9.77682 39.5921 10.1657 39.2857 10.4469C38.9295 10.7861 38.4989 11.084 38.0599 11.3074C37.5464 11.5555 37.1655 11.6714 36.5443 11.7707C35.7823 11.8947 35.6498 11.8947 34.9293 11.7707C34.3661 11.6796 33.952 11.5473 33.4633 11.3074C33.0161 11.084 32.5854 10.7861 32.2293 10.4469C31.9229 10.1657 31.5667 9.77682 31.4425 9.57826C31.31 9.38798 31.194 9.21424 31.1858 9.18943C31.1858 9.16461 31.3017 9.09015 31.4508 9.02396C31.6578 8.94123 31.7407 8.94123 31.7903 9.00742ZM25.4876 13.0364C25.8106 13.0364 25.8189 13.0447 25.8189 13.326C25.8189 13.6073 25.8106 13.6156 25.4876 13.6156C25.1646 13.6156 25.1564 13.6073 25.1564 13.326C25.1564 13.0447 25.1646 13.0364 25.4876 13.0364Z" fill="white"/>
<path fill-rule="evenodd" clip-rule="evenodd" d="M25.4628 12.8463C25.6367 12.8711 25.7858 12.929 25.8023 12.9704C25.8106 13.0035 25.9431 13.0366 26.0922 13.0366C26.233 13.0366 26.4069 13.0779 26.4649 13.1359C26.5229 13.1938 26.5643 13.3427 26.5643 13.4751C26.5643 13.6819 26.5891 13.6984 26.937 13.6984C27.2766 13.6984 27.3097 13.715 27.3097 13.9053C27.3097 14.0459 27.3677 14.1286 27.5002 14.17C27.6741 14.2196 27.6741 14.2279 27.4339 14.3272C27.3014 14.3851 27.0198 14.4513 26.4401 14.534L26.291 15.047C26.2082 15.3282 26.0177 15.7833 25.8769 16.0563C25.7361 16.3293 25.3717 16.7926 25.0735 17.0904C24.7588 17.4048 24.3116 17.7523 23.9968 17.9095C23.6987 18.0667 23.4502 18.1908 23.4419 18.199C23.4337 18.2073 23.4751 18.4059 23.5413 18.6458C23.6656 19.0677 23.6656 19.076 23.4833 19.1091C23.3757 19.1339 23.0858 19.1753 22.3818 19.2497L22.1748 18.4969H18.8619L18.6797 19.2001L18.1911 19.1422C17.926 19.1008 17.6444 19.0181 17.5782 18.9519C17.4788 18.8526 17.4705 18.7616 17.5368 18.5217C17.5782 18.3479 17.603 18.2073 17.5948 18.199C17.5865 18.1908 17.338 18.0667 17.0398 17.9095C16.7251 17.7523 16.2779 17.4048 15.9632 17.0904C15.665 16.7926 15.3006 16.3293 15.1598 16.0563C15.019 15.7833 14.8285 15.3282 14.5966 14.534L14.2239 14.4761C14.0169 14.4513 13.6856 14.352 13.1058 14.0873L13.3543 14.0294C13.4951 13.9963 13.669 13.9466 13.7518 13.9135C13.8678 13.8722 13.8926 13.9135 13.8926 14.1121C13.8926 14.2527 13.934 14.3603 13.9755 14.3603C14.0252 14.3603 14.0334 14.3189 14.0003 14.2693C13.9589 14.2196 13.992 14.1452 14.0583 14.1038C14.1245 14.0624 14.2985 14.0294 14.431 14.0211C14.5718 14.0128 14.6132 13.9963 14.5386 13.9797C14.4061 13.9549 14.4144 13.9218 14.5966 13.7812C14.7457 13.6571 14.8865 13.624 15.0935 13.6571C15.3172 13.6902 15.3834 13.6653 15.3834 13.5743C15.3834 13.5081 15.4331 13.4502 15.4911 13.442C15.5739 13.442 15.5739 13.4337 15.4911 13.4006C15.4331 13.384 15.3834 13.3096 15.3834 13.2434C15.3834 13.1607 15.4662 13.1193 15.8803 13.1193L15.9052 13.9301C15.9218 14.6416 15.9549 14.7988 16.1868 15.2703C16.3524 15.6178 16.6175 15.9653 16.9073 16.2466C17.1641 16.4782 17.5865 16.776 18.3236 17.1318H22.7131L23.1935 16.9084C23.4502 16.776 23.8726 16.4782 24.1294 16.2466C24.4027 15.9901 24.6925 15.6013 24.8333 15.3117C25.0073 14.9642 25.0984 14.6333 25.1978 13.6157H25.5125C25.8106 13.6157 25.8189 13.6074 25.8189 13.3261C25.8189 13.0448 25.8106 13.0366 25.4876 13.0366C25.2557 13.0366 25.1563 13.0035 25.1481 12.9208C25.1481 12.8297 25.2143 12.8132 25.4628 12.8463ZM35.0535 13.202C35.1446 13.202 35.4262 13.26 35.6747 13.3344C36.0059 13.4337 36.2296 13.5661 36.4863 13.8308C36.7182 14.079 36.8756 14.3355 36.9584 14.6333C37.0412 14.9146 37.0826 15.4192 37.0826 17.1732H37.4802C37.6955 17.1732 38.0599 17.2228 38.2835 17.2973C38.5154 17.3634 38.8301 17.5206 38.9875 17.653C39.1449 17.7854 39.3602 18.0501 39.4513 18.2569C39.5507 18.4555 39.6584 18.7202 39.6832 18.8526C39.7329 19.0594 39.7163 19.076 39.4679 19.0677C39.3188 19.0594 39.0206 19.0843 38.8053 19.1256C38.4574 19.1918 38.4078 19.1835 38.4078 19.0594C38.4078 18.9767 38.3167 18.8195 38.2007 18.7037C38.0019 18.5051 37.944 18.4969 37.0826 18.4969C36.213 18.4969 36.155 18.5051 35.9645 18.7037C35.8486 18.8195 35.7575 19.0015 35.7575 19.1173C35.7575 19.2911 35.7078 19.3324 35.451 19.3738C35.2771 19.3986 35.0618 19.44 34.9707 19.4648C34.8796 19.4896 34.7885 19.5062 34.7636 19.4979C34.7388 19.4814 34.6974 19.5227 34.6642 19.5889C34.6311 19.6468 34.5897 19.6799 34.5648 19.6551C34.54 19.6303 34.482 19.4317 34.4406 19.2001C34.3909 18.9271 34.2915 18.7368 34.1673 18.6375C34.0596 18.5548 33.8691 18.4886 33.7449 18.4969C33.6124 18.4969 33.4302 18.5879 33.3142 18.7037C33.1983 18.8195 33.1072 18.985 33.1072 19.076C33.1072 19.167 33.0575 19.2414 33.0078 19.2414C32.9498 19.2414 32.66 19.2001 32.3618 19.1422C32.0636 19.0925 31.8152 19.0429 31.8069 19.0429C31.7903 19.0346 31.84 18.8526 31.9063 18.621C31.9808 18.3976 32.1216 18.0832 32.2376 17.9426C32.3535 17.7936 32.5937 17.5868 33.1072 17.2973V16.1804C33.1072 15.4275 33.1486 14.9229 33.2314 14.6333C33.306 14.3603 33.4716 14.0624 33.6704 13.8556C33.8747 13.635 34.1287 13.4723 34.4323 13.3675C34.6808 13.2765 34.9624 13.202 35.0535 13.202ZM34.5648 14.9394C34.4572 15.1049 34.4406 15.3613 34.4489 16.2052L34.4737 17.2642L35.0949 17.6282L35.7161 17.2642C35.7161 15.0552 35.6995 14.9311 35.5504 14.7822C35.4593 14.6995 35.3102 14.6002 35.2191 14.5754C35.128 14.5506 34.9707 14.5754 34.8713 14.6333C34.7719 14.6912 34.6311 14.8319 34.5648 14.9394Z" fill="white"/>
<path d="M37.0825 29.1692L37.4386 29.1443H37.4303C37.6291 29.1278 37.9272 29.1112 38.4076 29.0864V33.7194H38.0763C37.8361 33.7194 37.745 33.6863 37.745 33.5953C37.745 33.5043 37.6539 33.4712 37.4138 33.4712C37.1156 33.4712 37.0825 33.4547 37.0825 33.2644C37.0825 33.0824 37.1156 33.0575 37.4138 33.0575C37.596 33.0575 37.745 33.0245 37.745 32.9748C37.745 32.9334 37.596 32.8921 37.0825 32.8921V29.1692Z" fill="white"/>
<path d="M18.4311 30.1288C18.6299 30.1619 18.7707 30.1537 18.8121 30.0875C18.8452 30.0378 18.9363 29.9965 18.9943 29.9965C19.0605 29.9965 19.1185 30.0296 19.1185 30.0792C19.1185 30.1288 19.2428 30.1454 19.425 30.1123C19.7148 30.0709 19.7728 30.0958 20.1124 30.4432C20.3194 30.6583 20.5348 30.8238 20.5845 30.8238C20.6424 30.8238 20.8661 30.6335 21.0814 30.4019C21.4292 30.013 21.4789 29.9882 21.5949 30.0958C21.6694 30.1702 21.8102 30.2447 21.9096 30.2778C22.0504 30.3109 22.1001 30.2943 22.1001 30.2033C22.1001 30.1123 22.1581 30.0958 22.3237 30.1288C22.4562 30.1619 22.6136 30.2116 22.6798 30.2529C22.7627 30.3026 22.6964 30.3274 22.1415 30.3522L22.6964 30.4515L22.1663 31.072C21.8765 31.4112 21.5369 31.7587 21.4127 31.8414C21.1973 31.9738 21.1891 32.0069 21.1891 33.5126L20.7584 33.5705C20.5182 33.6036 20.22 33.6367 19.8639 33.6367V32.0234L19.4912 31.6511C19.2759 31.4443 18.8866 31.0058 18.1247 30.0792L18.4311 30.1288Z" fill="white"/>
<path d="M31.666 31.8579C31.7819 31.1795 31.8979 30.5177 31.9227 30.3936C31.9641 30.195 32.0055 30.1619 32.254 30.1619C32.4113 30.1619 32.5356 30.195 32.5356 30.2447C32.5356 30.2943 32.6847 30.3274 32.8669 30.3274C33.0491 30.3274 33.1982 30.3522 33.1982 30.3936C33.1982 30.4267 33.0822 31.1795 32.9414 32.0648C32.7923 32.95 32.6432 33.7111 32.6018 33.7608C32.5604 33.8104 32.5356 33.7856 32.5356 33.7028C32.5356 33.5788 32.461 33.5539 32.1629 33.5539C31.9558 33.5539 31.7902 33.5208 31.7902 33.4712C31.7902 33.4216 31.7156 33.3885 31.6245 33.3885C31.5252 33.3885 31.4589 33.3306 31.4589 33.2478C31.4589 33.1651 31.5583 32.5446 31.666 31.8579Z" fill="white"/>
<path d="M27.939 32.7266C27.8313 32.7266 27.8148 32.5363 27.823 31.4856V30.2364L28.0881 30.2778C28.2372 30.3026 28.5353 30.3439 29.1648 30.4184L29.1565 31.9076C29.1399 33.3306 29.1316 33.3885 28.9743 33.3885C28.85 33.3885 28.8086 33.3306 28.8086 33.1816C28.8086 32.9914 28.7755 32.9748 28.4359 32.9748C28.1626 32.9748 28.0632 33.0079 28.0632 33.0989C28.0632 33.1651 28.0053 33.223 27.939 33.223C27.8727 33.223 27.8148 33.1651 27.8148 33.0989C27.8148 33.0327 27.8727 32.9748 27.939 32.9748C28.0053 32.9748 28.0632 32.9169 28.0632 32.8507C28.0632 32.7845 28.0053 32.7266 27.939 32.7266Z" fill="white"/>
<path d="M7.94592 33.3967V31.8662V30.3357H9.27106V33.3967H7.94592Z" fill="white"/>
<path d="M12.5425 30.4763C13.0643 30.526 13.1637 30.5177 13.1802 30.4184C13.1885 30.3439 13.2051 30.7411 13.2216 31.2871C13.2382 31.8331 13.2299 32.4371 13.1637 32.9831H12.791C12.468 32.9831 12.4183 33.0079 12.4183 33.1485C12.4183 33.2726 12.3603 33.314 11.9213 33.314V30.4184L12.5425 30.4763Z" fill="white"/>
<path d="M12.7745 32.975C13.0892 32.975 13.1472 32.9501 13.1472 32.8095C13.1472 32.7185 13.1638 32.644 13.1886 32.644C13.2134 32.644 13.2217 33.6368 13.2217 34.853C13.2134 36.0774 13.1969 36.9875 13.1803 36.8882C13.1472 36.7227 13.0975 36.6979 12.7745 36.6979C12.5674 36.6979 12.4018 36.731 12.4018 36.7806C12.4018 36.8303 12.2941 36.8634 11.9049 36.8634V33.3059H12.1533C12.3438 33.3059 12.4018 33.2728 12.4018 33.1404C12.4018 32.9998 12.4598 32.975 12.7745 32.975Z" fill="white"/>
<path d="M27.9308 32.975C27.8645 32.975 27.8066 32.9171 27.8066 32.8509C27.8066 32.7847 27.8645 32.7268 27.9308 32.7268C27.9971 32.7268 28.055 32.7847 28.055 32.8509C28.055 32.9419 28.1544 32.975 28.4277 32.975C28.7673 32.975 28.8004 32.9915 28.8004 33.1818C28.8004 33.3307 28.8418 33.3886 28.9661 33.3886C29.1151 33.3886 29.1317 33.4465 29.1317 34.8364L30.8461 36.9047L30.5065 37.095C30.3243 37.2026 30.0345 37.3101 29.8771 37.3349C29.6204 37.3763 29.5624 37.3515 29.1317 36.822V37.5252H28.5934C28.2869 37.5252 28.055 37.4921 28.055 37.4425C28.055 37.3928 27.9971 37.3597 27.9308 37.3597C27.8231 37.3597 27.8066 37.0785 27.8066 35.2915C27.8066 33.5045 27.8231 33.2232 27.9308 33.2232C27.9971 33.2232 28.055 33.1653 28.055 33.0991C28.055 33.0329 27.9971 32.975 27.9308 32.975Z" fill="white"/>
<path d="M37.4138 33.0577C37.2316 33.0577 37.0826 33.0246 37.0826 32.975C37.0826 32.9253 37.2316 32.8922 37.4138 32.8922C37.596 32.8922 37.7451 32.9253 37.7451 32.975C37.7451 33.0246 37.596 33.0577 37.4138 33.0577Z" fill="white"/>
<path d="M7.92944 37.3597V35.3742V33.3886H9.25458V37.3597H7.92944Z" fill="white"/>
<path d="M31.2022 34.7951C31.2022 34.7289 31.2437 34.3814 31.2933 34.0257V34.0339C31.3844 33.4383 31.4093 33.3886 31.5915 33.3886C31.6909 33.3886 31.782 33.4217 31.782 33.4714C31.782 33.521 31.9476 33.5541 32.1547 33.5541C32.486 33.5541 32.5357 33.5789 32.5688 33.7609C32.5936 33.8767 32.5605 34.2325 32.5025 34.5551C32.4114 35.0681 32.3866 35.1343 32.2375 35.0929C32.1464 35.0681 31.8731 35.0184 31.6329 34.9853C31.3348 34.9357 31.2022 34.8778 31.2022 34.7951Z" fill="white"/>
<path d="M36.7678 36.3752C37.0329 35.8458 37.0411 35.7713 37.066 34.6461L37.0991 33.4631H37.4221C37.654 33.4631 37.7451 33.4962 37.7451 33.5872C37.7451 33.6782 37.8362 33.7113 38.4491 33.7113L38.3994 34.7206C38.358 35.4817 38.2917 35.8954 38.1344 36.3587C38.0184 36.6979 37.8528 37.1115 37.7534 37.2687C37.6043 37.5252 37.5464 37.5583 37.2896 37.5418C37.0494 37.5169 36.9997 37.4838 36.9997 37.3349C37.008 37.2026 36.9335 37.1115 36.5028 36.9378L36.7678 36.3752Z" fill="white"/>
<path d="M19.8474 33.6368L20.245 33.6037C20.4603 33.5955 20.7585 33.5706 21.1726 33.5541V36.6979H20.8827C20.6508 36.6979 20.5928 36.7227 20.5928 36.8634C20.5928 37.004 20.5431 37.0288 19.8474 37.0288V33.6368Z" fill="white"/>
<path d="M12.4018 26.6459C12.4018 26.5549 12.5095 26.5136 12.7994 26.5053L13.1886 26.4805L13.2135 28.3006C13.2217 29.3016 13.2135 30.2034 13.1886 30.3027C13.1555 30.4433 13.0892 30.493 12.9153 30.493C12.7911 30.493 12.5178 30.4681 11.9049 30.3689V26.77H12.1534C12.319 26.77 12.4018 26.7287 12.4018 26.6459Z" fill="white"/>
<path d="M18.307 27.8538C18.3401 27.8538 18.4146 27.647 18.4643 27.3905L18.5554 26.9355L19.1435 26.952C19.4665 26.9603 19.6073 26.9851 19.4416 27.0017C19.2097 27.0265 19.1518 27.0679 19.1352 27.2333C19.1186 27.3905 19.1518 27.4402 19.483 27.4567L19.3008 27.4898C19.2014 27.5063 19.1103 27.5725 19.1103 27.6387C19.1103 27.7132 19.2263 27.7959 19.3671 27.829C19.4996 27.8621 19.6156 27.9117 19.6156 27.9283C19.6156 27.9531 19.5327 28.3088 19.2346 29.4836L19.7149 30.0379L19.4333 30.0958C19.2594 30.1372 19.1352 30.1207 19.1021 30.0545C19.0524 29.98 18.9944 29.9883 18.8536 30.071C18.7376 30.1372 18.5472 30.162 18.3898 30.1289C18.1662 30.0958 18.0585 29.98 17.7604 29.525C17.5616 29.2189 17.3048 28.7804 17.1889 28.5488C17.0729 28.3254 16.899 27.9448 16.7996 27.7049C16.6588 27.3409 16.6505 27.2664 16.7499 27.2664C16.8245 27.2664 16.8742 27.3243 16.8742 27.3905C16.8742 27.4898 16.9653 27.5146 17.2717 27.4898C17.487 27.4732 17.7521 27.4236 17.8515 27.3822C18.0171 27.3243 18.0585 27.3492 18.1413 27.5808C18.1993 27.7297 18.2738 27.8538 18.307 27.8538Z" fill="white"/>
<path d="M8.1448 28.5488C8.21105 28.193 8.31872 27.6966 8.3767 27.465L8.49265 27.043L8.81565 27.1175C8.98958 27.1506 9.27945 27.2085 9.44509 27.2251C9.69356 27.2581 9.75153 27.2995 9.71012 27.4153C9.68527 27.4981 9.59417 27.8621 9.50307 28.2178C9.41196 28.5819 9.31258 29.2106 9.22147 30.3358L7.93774 30.3275L7.98744 29.7732C8.01228 29.4671 8.08682 28.9128 8.1448 28.5488Z" fill="white"/>
<path d="M31.5832 27.3905L32.3286 27.2581C32.7345 27.1837 33.1154 27.1175 33.1734 27.1175C33.2397 27.1092 33.2811 27.2002 33.2811 27.3492C33.2811 27.5146 33.3308 27.6222 33.4219 27.6553C33.5047 27.6884 33.5875 27.7049 33.6124 27.7049C33.6289 27.7049 33.5544 28.284 33.2314 30.2861L32.8835 30.3109C32.693 30.3192 32.5357 30.2944 32.5357 30.2448C32.5357 30.2034 32.4032 30.162 32.2458 30.162C31.9891 30.162 31.9559 30.1455 31.9891 29.98C32.0139 29.8807 32.047 29.6077 32.0719 29.3761C32.1133 29.0451 32.0719 28.8135 31.5832 27.3905Z" fill="white"/>
<path d="M23.2431 27.7959C23.5496 27.8455 23.591 27.829 23.591 27.6801C23.591 27.5643 23.6407 27.5146 23.7732 27.5229C23.8809 27.5229 24.0465 27.5394 24.3364 27.5973L24.121 28.0772C24.0051 28.3419 23.7483 28.8218 23.5578 29.1527C23.3259 29.5581 23.152 29.7649 23.0278 29.798C22.887 29.8228 22.8373 29.8973 22.8207 30.1041C22.8042 30.3523 22.7793 30.3689 22.1416 30.3937L22.4729 30.344C22.7214 30.2944 22.7628 30.2696 22.6385 30.2282C22.5474 30.2034 22.3901 30.1538 22.2824 30.1289C22.1499 30.0958 22.1002 30.1207 22.1002 30.2034C22.1002 30.2944 22.0422 30.3192 21.9097 30.2778C21.8103 30.253 21.6612 30.1786 21.5784 30.1124C21.4459 30.0048 21.4459 29.9883 21.8103 29.5002L21.6198 28.7308C21.5204 28.3171 21.4293 27.9448 21.4293 27.9117C21.4376 27.8786 21.6281 27.8373 21.8683 27.8207C22.1085 27.8042 22.3901 27.7628 22.4895 27.738C22.6302 27.6966 22.6799 27.7132 22.6717 27.829C22.6717 27.9531 22.6882 27.9531 22.7876 27.8621C22.8704 27.7794 23.0112 27.7628 23.2431 27.7959Z" fill="white"/>
<path d="M27.8149 30.2448V29.0038V27.7628H29.14V30.4102L28.7425 30.3689C28.5271 30.344 28.229 30.3027 27.8149 30.2448Z" fill="white"/>
<path d="M37.0826 29.2106L37.0909 28.5322V27.8455H38.416V28.466C38.416 29.0038 38.3912 29.0865 38.2669 29.0865C38.1924 29.0865 37.8859 29.1196 37.0826 29.2106Z" fill="white"/>
<path d="M7.91296 40.8098C7.90468 40.7022 7.92953 40.5864 7.97094 40.5616C8.01235 40.5285 8.05376 40.5037 8.07032 40.5037C8.07861 40.5037 8.21112 40.5864 8.35192 40.6939C8.5921 40.8594 8.61695 40.8677 8.6832 40.7353C8.72461 40.6526 8.83228 40.5864 8.92338 40.5864C9.01449 40.5864 9.147 40.6774 9.33749 41.0001H8.63351C7.95437 41.0001 7.92953 40.9918 7.91296 40.8098Z" fill="white"/>
<path d="M8.89833 40.5949C8.67496 40.6693 8.67496 40.6693 8.6915 40.2888L8.69978 39.9082L9.0307 40.1895C9.2458 40.3632 9.32026 40.4708 9.2458 40.4873C9.17962 40.5039 9.0307 40.5535 8.89833 40.5949Z" fill="white"/>
<path d="M18.8206 4.43252C19.0193 4.43252 19.1104 4.39116 19.1104 4.30842C19.1104 4.21742 19.2098 4.18433 19.8724 4.18433L19.8972 4.90409C19.9055 5.40048 19.9718 5.78105 20.0877 6.08715C20.1788 6.33535 20.4107 6.74901 20.9325 7.45222L20.0629 8.32918L19.7399 7.97343C19.566 7.77488 19.2761 7.31985 19.0939 6.95583C18.9034 6.55872 18.7295 6.02924 18.6549 5.63213C18.5887 5.26811 18.539 4.84618 18.5307 4.70554C18.5307 4.44907 18.5473 4.43252 18.8206 4.43252Z" fill="white"/>
<path d="M2.67041 5.90514C2.67869 5.73141 2.74495 5.59076 2.90231 5.45012C3.03482 5.35084 3.20875 5.25984 3.29985 5.25984C3.38267 5.25984 3.5566 5.34257 3.67255 5.44185C3.82163 5.5687 3.89893 5.72038 3.90445 5.89687C3.91273 6.07061 3.84647 6.2278 3.73052 6.34362C3.63114 6.45117 3.44065 6.5339 3.29985 6.5339C3.14249 6.54218 2.97685 6.47599 2.8609 6.35189C2.73667 6.23607 2.67041 6.07061 2.67041 5.90514Z" fill="white"/>
<path d="M6.65412 5.9796C6.61271 5.80587 6.6624 5.69831 6.84461 5.50803C6.97712 5.36739 7.16761 5.25984 7.25871 5.25984C7.3581 5.25984 7.53202 5.34257 7.64797 5.44185C7.79705 5.5687 7.87435 5.72038 7.87987 5.89687C7.88815 6.07061 7.8219 6.2278 7.70595 6.34362C7.60656 6.45117 7.41607 6.5339 7.27528 6.5339C7.1262 6.54218 6.96056 6.47599 6.86117 6.37671C6.77007 6.28571 6.67896 6.11197 6.65412 5.9796Z" fill="white"/>
<path d="M33.1652 5.92996C33.1569 5.71486 33.2149 5.59904 33.3806 5.45012C33.5131 5.35084 33.687 5.25984 33.7781 5.25984C33.8609 5.25984 34.0514 5.36739 34.1839 5.50803C34.3164 5.64868 34.4324 5.83068 34.4324 5.92169C34.4324 6.01269 34.3247 6.1947 34.1922 6.33535C34.0597 6.47599 33.8692 6.58354 33.7781 6.58354C33.6787 6.58354 33.5048 6.50081 33.3888 6.40153C33.2315 6.26916 33.1652 6.12852 33.1652 5.92996Z" fill="white"/>
<path d="M37.1241 5.8555C37.1489 5.73141 37.2649 5.5494 37.3808 5.44185V5.45012C37.4968 5.34257 37.6624 5.25984 37.7535 5.25984C37.8363 5.25984 38.0103 5.34257 38.1262 5.44185C38.2919 5.58249 38.3498 5.71486 38.3498 5.92169C38.3498 6.12852 38.2919 6.26089 38.1262 6.39326C38.0103 6.50081 37.8363 6.58354 37.7452 6.58354C37.6541 6.58354 37.4719 6.47599 37.3311 6.33535C37.1407 6.14507 37.091 6.03751 37.1241 5.8555Z" fill="white"/>
<path d="M34.4738 6.93102C34.7057 6.81519 35.037 6.69109 35.2192 6.658C35.4014 6.61664 35.7575 6.60836 36.006 6.63318C36.2545 6.64973 36.6272 6.74901 36.8342 6.83174C37.0413 6.92274 37.3311 7.08821 37.4802 7.20403C37.621 7.31158 37.8612 7.55978 37.9937 7.75833C38.1345 7.94861 38.2422 8.14717 38.2422 8.18854C38.2422 8.2299 38.0103 8.38709 37.2069 8.79248L36.917 8.45328C36.7597 8.27127 36.5029 8.06444 36.3621 8.00653C36.2131 7.94861 35.9397 7.89897 35.7575 7.89897C35.5753 7.89897 35.302 7.94861 35.1612 8.00653C35.0121 8.06444 34.7554 8.27127 34.3082 8.79248L33.8112 8.54428C33.5379 8.40364 33.2977 8.27954 33.2729 8.26299C33.248 8.24645 33.2812 8.1389 33.3392 8.02307C33.3888 7.90725 33.5793 7.65905 33.7533 7.47704C33.9189 7.28676 34.2502 7.03857 34.4738 6.93102Z" fill="white"/>
<path d="M2.79464 7.54323C2.81949 7.51841 3.05967 7.39431 3.3247 7.25367L3.81334 7.00547L4.1115 7.34467C4.27714 7.52668 4.53389 7.72524 4.68297 7.79142C4.82377 7.84934 5.09708 7.89897 5.27928 7.89897C5.46149 7.89897 5.7348 7.84934 5.88388 7.79142C6.02467 7.73351 6.28142 7.52668 6.72866 7.00547L7.25043 7.27021C7.53202 7.41086 7.76392 7.56805 7.76392 7.60941C7.76392 7.65078 7.65625 7.84934 7.51546 8.04789C7.38294 8.23817 7.14276 8.48637 7.00197 8.59392C6.85289 8.70974 6.54645 8.88348 6.31455 8.98276C6.00811 9.1234 5.74308 9.16477 5.27928 9.17304C4.79064 9.17304 4.55874 9.1234 4.2026 8.96621C3.95414 8.85039 3.59801 8.62701 3.4158 8.46155C3.2336 8.30436 3.00998 8.03135 2.91887 7.87416C2.82777 7.70869 2.7698 7.55978 2.79464 7.54323Z" fill="white"/>
<path d="M18.8203 4.43267C18.5552 4.43267 18.5304 4.41612 18.5304 4.18447V3.93628H19.193C19.723 3.93628 19.8555 3.9611 19.8555 4.06038C19.8555 4.15138 19.7562 4.18447 19.4828 4.18447C19.2095 4.18447 19.1101 4.21757 19.1101 4.30857C19.1101 4.3913 19.019 4.43267 18.8203 4.43267Z" fill="white"/>
<path d="M17.2137 9.88478C17.2137 9.79378 17.3214 9.60349 17.4539 9.47112C17.5864 9.33875 17.7686 9.2312 17.8597 9.2312C17.9591 9.2312 18.1413 9.33875 18.2821 9.4794C18.4229 9.61177 18.5306 9.80205 18.5306 9.89305C18.5306 9.98406 18.4477 10.1578 18.3484 10.2736C18.2076 10.4391 18.075 10.497 17.868 10.497C17.6609 10.497 17.5284 10.4391 17.3876 10.2736C17.2882 10.1578 17.2054 9.98406 17.2137 9.88478Z" fill="white"/>
<path d="M22.5143 9.88478C22.5143 9.79378 22.6219 9.60349 22.7545 9.47112C22.887 9.33875 23.0692 9.2312 23.1603 9.2312C23.2597 9.2312 23.4502 9.33875 23.5827 9.4794C23.7152 9.61177 23.8311 9.80205 23.8311 9.89305C23.8311 9.98406 23.7235 10.1661 23.5909 10.3067C23.4584 10.4391 23.2679 10.5549 23.1768 10.5549C23.0775 10.5549 22.887 10.4391 22.7545 10.3067C22.6219 10.1661 22.506 9.98406 22.5143 9.88478Z" fill="white"/>
<path d="M18.3816 14.559C18.3981 14.5507 19.2429 14.2694 20.2699 13.9219C21.2969 13.5827 22.1665 13.2932 22.2162 13.2932C22.2659 13.2849 22.3818 13.5496 22.4895 13.8806C22.5972 14.2115 22.6717 14.4928 22.6551 14.4928C22.6386 14.501 21.7524 14.7906 20.684 15.1381C19.6156 15.4938 18.7294 15.7668 18.7294 15.7503C18.7211 15.7337 18.6383 15.469 18.5389 15.1463C18.4312 14.832 18.365 14.559 18.3816 14.559Z" fill="white"/>
<path d="M23.7069 35.7049C23.6324 35.7049 23.5828 35.6305 23.5828 35.4981C23.5828 35.3657 23.6324 35.2913 23.7069 35.2913C23.7813 35.2913 23.831 35.3657 23.831 35.4981C23.831 35.6305 23.7813 35.7049 23.7069 35.7049Z" fill="white"/>
<path d="M22.506 35.7051V35.0432V34.3813H23.8311V34.8364C23.8311 35.1838 23.8063 35.2914 23.7069 35.2914C23.6324 35.2914 23.5827 35.3659 23.5827 35.4982C23.5827 35.6968 23.5661 35.7051 22.506 35.7051Z" fill="white"/>
<path d="M22.506 38.3525V37.6906V37.0288H23.8311V38.3525H22.506Z" fill="white"/>
</svg>
