<svg width="41" height="41" viewBox="0 0 41 41" fill="none" xmlns="http://www.w3.org/2000/svg">
<g clip-path="url(#clip0_177_2497)">
<path d="M3.24728 0.619219C3.31515 0.618856 3.38301 0.618494 3.45293 0.61812C3.67975 0.617108 3.90656 0.617237 4.13339 0.617369C4.29626 0.61689 4.45913 0.616345 4.622 0.615739C5.0641 0.614325 5.50619 0.613949 5.94829 0.613847C6.22465 0.613733 6.50101 0.613391 6.77737 0.612966C7.74196 0.611485 8.70654 0.610831 9.67113 0.610957C10.5695 0.611053 11.4679 0.609364 12.3662 0.606834C13.1381 0.604738 13.91 0.603881 14.6819 0.603983C15.1427 0.604024 15.6034 0.60357 16.0642 0.601872C16.4977 0.600318 16.9312 0.600311 17.3648 0.601475C17.5235 0.601642 17.6823 0.601266 17.841 0.600296C18.8274 0.59466 19.6943 0.592228 20.4575 1.30503C20.9228 1.82253 21.1611 2.38299 21.1599 3.08238C21.1603 3.23699 21.1603 3.23699 21.1606 3.39473C21.16 3.50795 21.1595 3.62117 21.1589 3.73439C21.1588 3.85438 21.1588 3.97437 21.1589 4.09436C21.159 4.41927 21.158 4.74417 21.1569 5.06908C21.1559 5.40894 21.1558 5.7488 21.1556 6.08866C21.1551 6.73186 21.1538 7.37505 21.1522 8.01825C21.1504 8.75067 21.1495 9.48309 21.1487 10.2155C21.1471 11.7218 21.1441 13.2281 21.1407 14.7344C22.3827 14.708 23.6247 14.6815 24.9044 14.6543C24.7553 14.2697 24.7553 14.2697 24.503 13.9977C24.4558 13.9525 24.4086 13.9074 24.3599 13.8608C24.31 13.8138 24.2601 13.7668 24.2087 13.7184C23.1191 12.6591 22.4048 11.4485 22.3803 9.89765C22.3809 9.81078 22.3814 9.72391 22.3819 9.63441C22.3824 9.54325 22.3828 9.4521 22.3833 9.35818C22.407 8.23115 22.695 7.31603 23.3829 6.40626C23.4256 6.34897 23.4683 6.29168 23.5124 6.23265C24.2577 5.31075 25.3549 4.71698 26.5059 4.48438C26.8504 4.45084 27.191 4.44617 27.5369 4.44935C27.6286 4.4499 27.7204 4.45045 27.8148 4.45101C28.7351 4.46851 29.4399 4.67642 30.2521 5.11312C30.3107 5.14347 30.3693 5.17382 30.4297 5.20509C30.4956 5.23977 30.5615 5.27446 30.6293 5.31019C30.8302 5.38764 30.8302 5.38764 31.0134 5.28704C31.0752 5.24348 31.1369 5.19992 31.2005 5.15504C32.3793 4.38501 33.9602 4.27006 35.3261 4.53631C35.5757 4.60835 35.8003 4.69393 36.0352 4.8047C36.1235 4.84547 36.2117 4.88625 36.3027 4.92825C37.544 5.54963 38.4472 6.56502 38.9062 7.88358C39.0738 8.45565 39.1217 8.98961 39.1182 9.58436C39.1178 9.67551 39.1173 9.76667 39.1168 9.86059C39.0785 11.6782 38.1684 12.8781 36.9061 14.0938C36.8413 14.1532 36.8413 14.1532 36.7753 14.2139C36.647 14.3512 36.647 14.3512 36.5958 14.6543C38.4588 14.6939 38.4588 14.6939 40.3594 14.7344C40.3594 15.1572 40.3594 15.58 40.3594 16.0156C39.7881 16.0236 39.2168 16.0294 38.6454 16.0332C38.4511 16.0348 38.2568 16.037 38.0626 16.0398C37.7829 16.0437 37.5033 16.0455 37.2236 16.0469C37.1371 16.0486 37.0507 16.0502 36.9616 16.0519C36.3759 16.0521 36.0171 15.9725 35.5754 15.5674C35.1767 15.0519 35.1628 14.5696 35.2344 13.9336C35.4443 13.3322 36.0326 12.8932 36.4773 12.4595C37.2498 11.6965 37.6505 10.8713 37.7169 9.78393C37.7169 8.60562 37.3505 7.68298 36.5488 6.83199C35.7969 6.12592 34.8629 5.86011 33.8528 5.84071C32.5829 5.88961 31.6807 6.47298 30.8301 7.3672C30.5867 7.25969 30.4365 7.14414 30.2596 6.94679C29.5464 6.2153 28.6615 5.90005 27.6586 5.84634C26.51 5.84369 25.5902 6.21847 24.7595 7.0131C24.0702 7.77493 23.7857 8.67412 23.7833 9.68946C23.8595 11.156 24.5587 12.0002 25.57 12.9877C26.0415 13.4613 26.2789 13.7617 26.3057 14.4541C26.2877 14.9768 26.2029 15.2783 25.8256 15.6547C25.4961 15.9455 25.2522 16.0258 24.8225 16.0247C24.7408 16.0247 24.659 16.0247 24.5748 16.0247C24.4867 16.0243 24.3986 16.0239 24.3078 16.0235C24.2175 16.0233 24.1272 16.0232 24.0342 16.0231C23.7453 16.0227 23.4565 16.0217 23.1677 16.0206C22.972 16.0202 22.7763 16.0199 22.5807 16.0195C22.1007 16.0187 21.6207 16.0173 21.1407 16.0156C21.141 16.104 21.1413 16.1924 21.1416 16.2835C21.1487 18.4356 21.154 20.5877 21.1573 22.7398C21.1589 23.7806 21.1612 24.8213 21.1648 25.8621C21.168 26.7693 21.1701 27.6765 21.1708 28.5837C21.1712 29.064 21.1722 29.5443 21.1745 30.0245C21.1767 30.4769 21.1774 30.9292 21.1769 31.3815C21.177 31.5472 21.1776 31.713 21.1789 31.8787C21.1923 33.7845 21.1923 33.7845 20.4763 34.5512C19.9001 35.0693 19.3039 35.2588 18.5335 35.2558C18.4656 35.2562 18.3977 35.2565 18.3277 35.2569C18.1007 35.2579 17.8737 35.2578 17.6467 35.2576C17.4837 35.2581 17.3207 35.2587 17.1577 35.2593C16.7153 35.2607 16.2729 35.2611 15.8304 35.2612C15.5539 35.2613 15.2774 35.2616 15.0009 35.2621C14.0359 35.2635 13.0709 35.2642 12.1058 35.2641C11.2068 35.264 10.3078 35.2657 9.40881 35.2682C8.63651 35.2703 7.86421 35.2711 7.09191 35.271C6.63085 35.271 6.1698 35.2714 5.70874 35.2731C5.275 35.2747 4.84128 35.2747 4.40754 35.2735C4.24862 35.2734 4.0897 35.2738 3.93079 35.2747C3.71327 35.276 3.49584 35.2752 3.27833 35.274C3.21595 35.2748 3.15357 35.2756 3.08929 35.2765C2.36831 35.2675 1.71894 34.9264 1.20123 34.4336C0.803924 33.9294 0.620865 33.4198 0.620082 32.7754C0.619801 32.7232 0.61952 32.6709 0.619231 32.6171C0.618487 32.4423 0.618879 32.2675 0.619268 32.0927C0.618969 31.966 0.618601 31.8394 0.618169 31.7127C0.617189 31.3647 0.61721 31.0168 0.617399 30.6688C0.617432 30.2934 0.616548 29.9181 0.615788 29.5427C0.614458 28.8074 0.614018 28.0721 0.613929 27.3367C0.613853 26.739 0.613523 26.1413 0.613016 25.5435C0.611605 23.8488 0.610867 22.154 0.610987 20.4593C0.610993 20.3679 0.610999 20.2766 0.611006 20.1824C0.611012 20.091 0.611019 19.9995 0.611026 19.9052C0.611091 18.4227 0.609558 16.9403 0.6073 15.4578C0.605 13.9355 0.603894 12.4133 0.604032 10.8911C0.604085 10.0365 0.603645 9.18187 0.601921 8.32726C0.600463 7.59961 0.600115 6.87196 0.601202 6.1443C0.601725 5.77313 0.601734 5.40197 0.600345 5.03079C0.599085 4.69074 0.599315 4.35072 0.600711 4.01067C0.600957 3.88791 0.600666 3.76515 0.599772 3.6424C0.593761 2.75771 0.678206 1.995 1.30508 1.3238C1.88111 0.805905 2.4772 0.616181 3.24728 0.619219ZM2.24725 2.38233C1.60973 3.38691 1.92193 4.62563 1.92193 5.76563C7.84131 5.76563 13.7607 5.76563 19.8594 5.76563C20.0474 3.9538 20.0474 3.9538 19.399 2.2472C18.9324 1.95113 18.4744 1.89816 17.9319 1.90101C17.8692 1.9007 17.8064 1.9004 17.7418 1.90008C17.5327 1.89926 17.3237 1.89957 17.1146 1.89989C16.9642 1.89954 16.8138 1.89913 16.6634 1.89865C16.2558 1.89758 15.8481 1.89753 15.4404 1.89773C15.0997 1.89782 14.7591 1.89743 14.4184 1.89704C13.6144 1.89616 12.8105 1.89612 12.0066 1.89661C11.178 1.89709 10.3495 1.8961 9.52093 1.8944C8.80881 1.89299 8.0967 1.89251 7.38458 1.89277C6.95959 1.89291 6.53462 1.8927 6.10964 1.89159C5.70988 1.89058 5.31013 1.89074 4.91037 1.89178C4.76398 1.89197 4.61759 1.89175 4.4712 1.89109C3.26332 1.83536 3.26332 1.83536 2.24725 2.38233ZM1.92193 7.04688C1.92193 14.2347 1.92193 21.4225 1.92193 28.8281C7.84131 28.8281 13.7607 28.8281 19.8594 28.8281C19.8594 24.6 19.8594 20.3719 19.8594 16.0156C19.5952 16.0156 19.3309 16.0156 19.0587 16.0156C18.7391 16.8485 18.4206 17.6819 18.1027 18.5154C18.0134 18.7493 17.9241 18.9832 17.8347 19.217C17.6776 19.6285 17.5209 20.0401 17.3645 20.4518C17.3027 20.6141 17.2409 20.7764 17.1788 20.9386C17.0913 21.1676 17.0044 21.3967 16.9175 21.6258C16.891 21.6947 16.8645 21.7637 16.8373 21.8347C16.8133 21.8982 16.7894 21.9616 16.7648 22.0269C16.7437 22.0822 16.7227 22.1375 16.701 22.1944C16.6447 22.3545 16.6447 22.3545 16.6563 22.582C16.6035 22.582 16.5506 22.582 16.4962 22.582C16.4776 22.4783 16.459 22.3746 16.4399 22.2677C16.3135 21.6375 16.1304 21.0221 15.9547 20.4043C15.9167 20.27 15.8788 20.1357 15.8409 20.0014C15.7615 19.7202 15.6818 19.439 15.602 19.1578C15.5014 18.8034 15.4012 18.449 15.3011 18.0945C15.0934 17.3593 14.8847 16.6244 14.6752 15.8897C14.6108 15.6636 14.5466 15.4375 14.4827 15.2113C14.4047 14.9356 14.3262 14.6601 14.2474 14.3847C14.2145 14.2676 14.2145 14.2676 14.181 14.1481C14.1509 14.0436 14.1509 14.0436 14.1201 13.9371C14.1033 13.8777 14.0864 13.8184 14.069 13.7572C14.0184 13.5962 14.0184 13.5962 13.8536 13.4531C13.5295 14.0975 13.2058 14.7421 12.8826 15.3868C12.7325 15.6862 12.5822 15.9855 12.4318 16.2847C12.2866 16.5732 12.1418 16.8619 11.9972 17.1507C11.9419 17.2611 11.8864 17.3714 11.8309 17.4816C11.7533 17.6356 11.6761 17.7898 11.599 17.944C11.5549 18.0319 11.5108 18.1197 11.4654 18.2102C11.3601 18.4043 11.3601 18.4043 11.3712 18.5781C10.367 18.5781 9.36279 18.5781 8.32818 18.5781C8.32818 18.1553 8.32818 17.7325 8.32818 17.2969C9.04168 17.2969 9.75518 17.2969 10.4903 17.2969C10.9709 16.3393 11.4513 15.3815 11.9311 14.4235C12.1539 13.9787 12.3769 13.534 12.6001 13.0894C12.8153 12.6606 13.0302 12.2318 13.245 11.8028C13.3271 11.6388 13.4093 11.4749 13.4917 11.311C13.6067 11.0822 13.7213 10.8532 13.8357 10.6242C13.8874 10.5217 13.8874 10.5217 13.9401 10.4172C13.9711 10.3549 14.0021 10.2927 14.034 10.2286C14.0612 10.1745 14.0884 10.1203 14.1164 10.0645C14.1844 9.92957 14.1844 9.92957 14.1739 9.76954C14.2267 9.76954 14.2796 9.76954 14.334 9.76954C14.3468 9.83968 14.3468 9.83968 14.3598 9.91124C14.4635 10.4579 14.6045 10.9883 14.7591 11.5225C14.785 11.6128 14.8109 11.7031 14.8375 11.7961C14.9213 12.0883 15.0055 12.3803 15.0898 12.6724C15.1477 12.8737 15.2056 13.075 15.2634 13.2763C15.3792 13.6789 15.4952 14.0815 15.6113 14.4841C15.7371 14.9209 15.862 15.358 15.9862 15.7953C16.0672 16.0804 16.1486 16.3654 16.2301 16.6504C16.2672 16.7806 16.3041 16.9108 16.3409 17.0411C16.3911 17.2189 16.442 17.3965 16.493 17.574C16.5209 17.6721 16.5488 17.7702 16.5776 17.8713C16.6405 18.1051 16.6405 18.1051 16.8165 18.2578C16.8496 18.1677 16.8827 18.0777 16.9168 17.9848C17.0401 17.6498 17.1633 17.3147 17.2866 16.9797C17.34 16.8349 17.3932 16.69 17.4465 16.5452C17.5232 16.3366 17.5999 16.1281 17.6767 15.9196C17.7004 15.8551 17.7241 15.7906 17.7485 15.7242C17.7709 15.6633 17.7934 15.6024 17.8165 15.5396C17.836 15.4865 17.8556 15.4333 17.8757 15.3785C17.9471 15.1895 18.0227 15.0021 18.0977 14.8145C18.6791 14.788 19.2605 14.7616 19.8594 14.7344C19.8594 12.1975 19.8594 9.66063 19.8594 7.04688C13.9401 7.04688 8.02068 7.04688 1.92193 7.04688ZM1.92193 30.1094C1.73397 31.9212 1.73397 31.9212 2.38238 33.6278C2.84893 33.9239 3.30696 33.9769 3.84944 33.974C3.91219 33.9743 3.97495 33.9746 4.0396 33.9749C4.24866 33.9758 4.4577 33.9754 4.66676 33.9751C4.81715 33.9755 4.96754 33.9759 5.11793 33.9764C5.5256 33.9774 5.93327 33.9775 6.34095 33.9773C6.68163 33.9772 7.02231 33.9776 7.363 33.978C8.16693 33.9789 8.97086 33.9789 9.77479 33.9784C10.6033 33.9779 11.4319 33.9789 12.2604 33.9806C12.9726 33.982 13.6847 33.9825 14.3968 33.9823C14.8218 33.9821 15.2467 33.9823 15.6717 33.9834C16.0715 33.9844 16.4712 33.9843 16.871 33.9832C17.0174 33.983 17.1638 33.9833 17.3102 33.9839C18.4283 34.0341 18.4283 34.0341 19.4238 33.6108C20.2376 32.7393 19.8594 31.0072 19.8594 30.1094C13.9401 30.1094 8.02068 30.1094 1.92193 30.1094Z" fill="white"/>
<path d="M31.6659 12.2921C32.1376 12.5771 32.5006 13.0112 32.6719 13.5333C32.6904 13.7415 32.7016 13.9421 32.7051 14.1504C32.7066 14.2085 32.7082 14.2666 32.7098 14.3265C32.7145 14.5108 32.7183 14.6952 32.722 14.8796C32.725 15.0051 32.7281 15.1306 32.7313 15.256C32.739 15.5626 32.7457 15.8692 32.752 16.1758C32.9634 15.9644 33.1748 15.753 33.3926 15.5352C33.7003 15.6891 33.8574 15.8229 34.0933 16.0657C34.1573 16.1312 34.2213 16.1966 34.2872 16.2641C34.3355 16.3142 34.3838 16.3644 34.4336 16.4161C34.3132 16.7014 34.148 16.8765 33.925 17.0892C33.8569 17.1554 33.7887 17.2216 33.7186 17.2897C33.5743 17.4283 33.4298 17.5666 33.285 17.7045C33.2171 17.7707 33.1492 17.8369 33.0792 17.905C32.9851 17.9951 32.9851 17.9951 32.8891 18.0869C32.7186 18.263 32.7186 18.263 32.752 18.5782C32.8255 18.5745 32.899 18.5708 32.9747 18.5669C33.6777 18.5463 34.1513 18.5595 34.6739 19.0483C34.9466 19.3392 35.099 19.537 35.1543 19.9395C35.2072 19.9131 35.26 19.8867 35.3145 19.8594C35.9471 19.8088 36.5605 19.7665 37.0762 20.1798C37.4169 20.4985 37.6519 20.7479 37.7168 21.2208C37.7697 21.1943 37.8225 21.1679 37.877 21.1407C38.5091 21.0901 39.1236 21.0473 39.6387 21.461C40.0125 21.817 40.324 22.169 40.3805 22.7003C40.3812 22.8053 40.3812 22.8053 40.3819 22.9124C40.3828 22.9933 40.3837 23.0742 40.3847 23.1576C40.3849 23.2894 40.3849 23.2894 40.3852 23.424C40.3864 23.5639 40.3864 23.5639 40.3876 23.7066C40.39 24.0155 40.3911 24.3243 40.3919 24.6332C40.3924 24.74 40.3928 24.8469 40.3933 24.9538C40.3955 25.4567 40.397 25.9596 40.3977 26.4625C40.3984 27.0399 40.4012 27.6172 40.4058 28.1946C40.4093 28.6427 40.4109 29.0908 40.4111 29.539C40.4113 29.8057 40.4124 30.0723 40.4151 30.339C40.426 31.5158 40.4018 32.4845 39.8789 33.5528C39.8161 33.7109 39.7544 33.8695 39.6947 34.0289C39.6134 34.2384 39.5319 34.4479 39.4496 34.657C39.4231 34.7255 39.3967 34.7941 39.3694 34.8647C39.346 34.9245 39.3227 34.9843 39.2986 35.0459C38.7589 36.7344 39.1087 38.587 39.0782 40.3594C35.6957 40.3594 32.3132 40.3594 28.8282 40.3594C28.8017 38.9589 28.7753 37.5583 28.7481 36.1153C28.6363 35.5063 28.6363 35.5063 28.3724 35.0314C28.3086 34.9422 28.3086 34.9422 28.2435 34.8512C28.0204 34.5604 27.7888 34.2779 27.5519 33.9982C26.7894 33.0829 26.201 32.2537 25.9074 31.0865C25.8902 31.0201 25.873 30.9537 25.8552 30.8853C25.799 30.668 25.7439 30.4504 25.6888 30.2327C25.6498 30.0794 25.6108 29.926 25.5717 29.7727C25.4902 29.4518 25.4093 29.1307 25.3286 28.8095C25.2262 28.402 25.1215 27.9951 25.0163 27.5882C24.9348 27.2717 24.855 26.9547 24.7756 26.6376C24.7377 26.4876 24.6993 26.3378 24.6603 26.1881C24.4636 25.4322 24.3103 24.7032 24.3004 23.9195C24.2991 23.8587 24.2978 23.7979 24.2965 23.7352C24.3051 23.2011 24.4849 22.784 24.8389 22.385C24.8985 22.3344 24.9581 22.2839 25.0194 22.2318C25.1085 22.154 25.1085 22.154 25.1993 22.0747C25.7396 21.6866 26.3494 21.7185 26.9864 21.7813C27.5279 21.9397 27.9884 22.2453 28.2676 22.7423C28.4478 23.2042 28.5655 23.6778 28.6723 24.161C28.6865 24.2254 28.7008 24.2898 28.7155 24.3561C28.7316 24.4293 28.7316 24.4293 28.7481 24.504C28.7874 23.7188 28.8171 22.9339 28.8352 22.1479C28.8439 21.7827 28.8556 21.4182 28.8749 21.0534C29.0267 19.1807 29.0267 19.1807 28.2543 17.5552C27.8954 17.1843 27.4939 16.8649 27.0664 16.5762C27.2022 16.2853 27.3658 16.1001 27.597 15.8756C27.6624 15.8116 27.7278 15.7476 27.7953 15.6816C27.8454 15.6333 27.8956 15.585 27.9473 15.5352C28.291 15.6674 28.4982 15.9146 28.7481 16.1758C28.7488 16.0991 28.7496 16.0225 28.7503 15.9434C28.7536 15.6563 28.7588 15.3691 28.7647 15.082C28.7669 14.9582 28.7686 14.8344 28.7698 14.7106C28.7833 13.3093 28.7833 13.3093 29.3058 12.7131C29.3579 12.6699 29.4101 12.6268 29.4638 12.5823C29.5157 12.538 29.5676 12.4936 29.6211 12.4478C30.1868 12.0581 31.0378 12.0137 31.6659 12.2921ZM30.3246 13.6784C30.0798 13.9957 30.0982 14.2995 30.0998 14.6821C30.0997 14.7726 30.0997 14.7726 30.0996 14.865C30.0994 15.0679 30.0999 15.2708 30.1003 15.4737C30.1003 15.6189 30.1003 15.7641 30.1003 15.9093C30.1003 16.304 30.1007 16.6987 30.1013 17.0935C30.1018 17.5058 30.1018 17.9181 30.1019 18.3304C30.1022 19.1115 30.1028 19.8925 30.1036 20.6736C30.1045 21.5626 30.105 22.4517 30.1054 23.3408C30.1062 25.1699 30.1076 26.9991 30.1094 28.8282C29.5016 28.8282 28.8938 28.8282 28.2676 28.8282C28.2164 28.5639 28.1652 28.2997 28.1125 28.0274C28.0325 27.6266 27.9502 27.2264 27.8672 26.8262C27.8539 26.7617 27.8405 26.6971 27.8267 26.6306C27.7377 26.202 27.6466 25.7738 27.5536 25.346C27.5225 25.2022 27.492 25.0584 27.462 24.9144C27.4191 24.7094 27.3743 24.5049 27.3292 24.3003C27.3168 24.2391 27.3043 24.1779 27.2915 24.1148C27.1958 23.6939 27.0504 23.451 26.7461 23.1426C26.5219 23.0598 26.3351 23.0814 26.1055 23.1426C25.8333 23.3337 25.727 23.4594 25.6427 23.7816C25.594 24.2036 25.7161 24.5998 25.8177 25.0066C25.8502 25.1417 25.8502 25.1417 25.8834 25.2794C25.9436 25.5287 26.0048 25.7777 26.0664 26.0267C26.1198 26.2436 26.1722 26.4608 26.2246 26.678C26.3648 27.2585 26.5075 27.8384 26.6525 28.4177C26.7276 28.7178 26.8021 29.018 26.8754 29.3186C26.9479 29.6162 27.0218 29.9135 27.0966 30.2105C27.1245 30.3218 27.1518 30.4332 27.1786 30.5447C27.3379 31.2055 27.52 31.7381 27.9473 32.2715C27.9902 32.3261 28.0332 32.3807 28.0774 32.4369C28.1987 32.5889 28.3229 32.7381 28.4478 32.8871C28.7876 33.3007 29.1222 33.7167 29.4387 34.1484C29.5009 34.2325 29.563 34.3166 29.6271 34.4033C30.468 35.8076 30.0749 37.4918 30.1094 39.0782C32.6463 39.0782 35.1832 39.0782 37.7969 39.0782C37.8042 37.7919 37.8042 37.7919 37.8063 36.5055C37.8142 35.4702 37.9144 34.6488 38.3575 33.713C38.4202 33.5548 38.4817 33.3961 38.5417 33.2369C38.623 33.0273 38.7044 32.8179 38.7868 32.6088C38.8133 32.5402 38.8397 32.4717 38.867 32.4011C38.8904 32.3413 38.9137 32.2815 38.9378 32.2199C39.0953 31.7272 39.0905 31.2364 39.0911 30.7247C39.0915 30.6426 39.0919 30.5605 39.0923 30.476C39.0934 30.2053 39.094 29.9347 39.0944 29.664C39.0949 29.4755 39.0953 29.2871 39.0958 29.0986C39.0966 28.7039 39.0971 28.3091 39.0974 27.9144C39.0978 27.4087 39.0998 26.903 39.102 26.3973C39.1035 26.0082 39.1039 25.6191 39.1041 25.23C39.1043 25.0436 39.105 24.8571 39.106 24.6707C39.1074 24.41 39.1072 24.1494 39.1067 23.8887C39.1078 23.7733 39.1078 23.7733 39.1089 23.6557C39.1063 23.2386 39.0759 22.941 38.8379 22.5821C38.6104 22.4684 38.4492 22.4768 38.1973 22.502C37.9692 22.6808 37.889 22.7863 37.7969 23.0626C37.7897 23.248 37.7875 23.4336 37.7878 23.6191C37.7878 23.7035 37.7878 23.7035 37.7878 23.7896C37.7878 23.9755 37.7885 24.1614 37.7891 24.3473C37.7892 24.4762 37.7893 24.6051 37.7894 24.734C37.7897 25.0733 37.7905 25.4125 37.7914 25.7518C37.7922 26.098 37.7926 26.4442 37.793 26.7904C37.7939 27.4697 37.7953 28.1489 37.7969 28.8282C37.3741 28.8282 36.9513 28.8282 36.5157 28.8282C36.5169 28.6172 36.5182 28.4063 36.5195 28.1889C36.5235 27.4915 36.5261 26.7941 36.5281 26.0967C36.5294 25.6739 36.5311 25.2511 36.5338 24.8283C36.5364 24.4202 36.5378 24.0121 36.5384 23.604C36.5389 23.4484 36.5398 23.2928 36.5411 23.1372C36.5428 22.919 36.543 22.7009 36.5429 22.4827C36.5438 22.4186 36.5447 22.3544 36.5455 22.2883C36.5434 21.9013 36.4894 21.6364 36.2754 21.3008C36.0479 21.1871 35.8867 21.1956 35.6348 21.2208C35.4067 21.3995 35.3265 21.505 35.2344 21.7813C35.2271 22.0067 35.2243 22.2301 35.2253 22.4555C35.2253 22.5242 35.2253 22.593 35.2253 22.6639C35.2253 22.8913 35.226 23.1188 35.2266 23.3463C35.2267 23.5039 35.2268 23.6616 35.2269 23.8192C35.2272 24.2343 35.228 24.6494 35.2289 25.0645C35.2297 25.488 35.2301 25.9115 35.2305 26.335C35.2314 27.166 35.2327 27.9971 35.2344 28.8282C34.8116 28.8282 34.3888 28.8282 33.9532 28.8282C33.9537 28.7249 33.9542 28.6217 33.9548 28.5153C33.9596 27.542 33.9632 26.5688 33.9656 25.5955C33.9669 25.0952 33.9686 24.5948 33.9713 24.0945C33.9739 23.6116 33.9753 23.1287 33.9759 22.6459C33.9764 22.4616 33.9773 22.2774 33.9786 22.0932C33.9803 21.8352 33.9805 21.5772 33.9804 21.3191C33.9813 21.243 33.9822 21.1668 33.983 21.0884C33.9811 20.6727 33.9498 20.3775 33.7129 20.0196C33.4854 19.9059 33.3242 19.9143 33.0723 19.9395C32.8442 20.1183 32.764 20.2238 32.6719 20.5001C32.6648 20.6149 32.6621 20.7301 32.6623 20.8451C32.6622 20.9155 32.6621 20.9859 32.6619 21.0585C32.6622 21.1355 32.6625 21.2125 32.6628 21.2918C32.6628 21.3731 32.6628 21.4544 32.6628 21.5381C32.6628 21.8072 32.6635 22.0762 32.6641 22.3453C32.6642 22.5317 32.6643 22.7181 32.6644 22.9044C32.6647 23.3953 32.6655 23.8862 32.6664 24.3772C32.6672 24.878 32.6676 25.3787 32.668 25.8795C32.6689 26.8624 32.6702 27.8453 32.6719 28.8282C32.2491 28.8282 31.8263 28.8282 31.3907 28.8282C31.3912 28.6447 31.3917 28.4611 31.3923 28.272C31.3972 26.5446 31.4008 24.8172 31.4031 23.0897C31.4043 22.2016 31.406 21.3134 31.4088 20.4253C31.4112 19.6512 31.4127 18.8771 31.4133 18.1031C31.4136 17.6932 31.4143 17.2833 31.4161 16.8734C31.4177 16.4875 31.4182 16.1017 31.4178 15.7159C31.4179 15.5743 31.4184 15.4327 31.4193 15.2912C31.4205 15.0977 31.4202 14.9044 31.4195 14.711C31.4202 14.655 31.4209 14.5991 31.4217 14.5415C31.4183 14.1754 31.3434 13.9241 31.1504 13.6133C30.8465 13.4614 30.592 13.4688 30.3246 13.6784Z" fill="white"/>
<path d="M7.04688 31.3906C9.58375 31.3906 12.1206 31.3906 14.7344 31.3906C14.7344 31.8134 14.7344 32.2362 14.7344 32.6719C12.1975 32.6719 9.66062 32.6719 7.04688 32.6719C7.04688 32.2491 7.04688 31.8263 7.04688 31.3906Z" fill="white"/>
<path d="M5.76562 17.2969C6.18844 17.2969 6.61125 17.2969 7.04688 17.2969C7.04688 17.7197 7.04688 18.1425 7.04688 18.5781C6.62406 18.5781 6.20125 18.5781 5.76562 18.5781C5.76562 18.1553 5.76562 17.7325 5.76562 17.2969Z" fill="white"/>
<path d="M3.20312 17.2969C3.62594 17.2969 4.04875 17.2969 4.48438 17.2969C4.48438 17.7197 4.48438 18.1425 4.48438 18.5781C4.06156 18.5781 3.63875 18.5781 3.20312 18.5781C3.20312 18.1553 3.20312 17.7325 3.20312 17.2969Z" fill="white"/>
</g>
<defs>
<clipPath id="clip0_177_2497">
<rect width="41" height="41" fill="white"/>
</clipPath>
</defs>
</svg>
