<svg width="45" height="46" viewBox="0 0 45 46" fill="none" xmlns="http://www.w3.org/2000/svg">
<path d="M26.4553 1.27411C27.8093 2.37851 28.7148 3.77121 29.0178 5.50345C29.0492 5.92686 29.0478 6.34647 29.0404 6.7708C29.04 6.87769 29.0395 6.98458 29.039 7.09471C29.033 7.77489 28.9939 8.44759 28.9273 9.12445C29.0207 9.16527 29.1142 9.2061 29.2105 9.24817C31.0389 10.0472 32.8643 10.8522 34.6823 11.6746C36.0198 12.2792 37.3637 12.8683 38.7113 13.45C38.7832 13.4812 38.8552 13.5124 38.9294 13.5445C39.0642 13.6028 39.1991 13.661 39.3342 13.719C39.7801 13.9121 39.7801 13.9121 39.8808 14.0128C39.8808 15.148 39.8808 16.2832 39.8808 17.4527C35.818 17.4527 31.7553 17.4527 27.5694 17.4527C27.5096 17.9307 27.4499 18.4087 27.3883 18.9011C27.571 18.9003 27.7536 18.8995 27.9418 18.8987C29.664 18.8913 31.3862 18.8859 33.1084 18.8824C33.9938 18.8805 34.8792 18.878 35.7645 18.8738C36.5365 18.8702 37.3085 18.8679 38.0805 18.8671C38.489 18.8666 38.8975 18.8655 39.306 18.8629C39.6911 18.8604 40.0761 18.8596 40.4613 18.8602C40.602 18.8601 40.7427 18.8594 40.8835 18.858C42.099 18.8465 43.0532 19.0366 43.9544 19.8969C45.0214 21.0146 45.003 22.2244 44.997 23.6827C44.9975 23.8828 44.9982 24.0829 44.999 24.283C45.0006 24.8242 45 25.3655 44.9988 25.9068C44.9979 26.4744 44.9987 27.042 44.9993 27.6096C45 28.6236 44.9989 29.6376 44.997 30.6516C44.9954 31.5693 44.9957 32.487 44.9974 33.4047C44.9993 34.4728 45 35.5408 44.999 36.6088C44.9984 37.1733 44.9983 37.7378 44.9995 38.3023C45.0006 38.8332 44.9998 39.364 44.9978 39.8948C44.9973 40.0891 44.9974 40.2834 44.9982 40.4777C45.0033 41.8442 44.9456 42.9382 43.9544 43.9765C42.9098 44.9737 41.8018 45.0258 40.4345 45.0192C40.263 45.0196 40.0914 45.0203 39.9199 45.0211C39.4564 45.0227 38.993 45.0221 38.5295 45.0209C38.0431 45.02 37.5566 45.0209 37.0702 45.0214C36.2536 45.0221 35.4369 45.0212 34.6203 45.0195C33.6778 45.0175 32.7355 45.0182 31.793 45.0202C30.982 45.0218 30.171 45.022 29.36 45.0211C28.8764 45.0205 28.3929 45.0205 27.9093 45.0217C27.4545 45.0227 26.9998 45.022 26.5451 45.0199C26.3788 45.0194 26.2125 45.0195 26.0462 45.0203C24.9456 45.0252 23.9615 44.99 23.0771 44.2424C23.0031 44.1816 22.9291 44.1209 22.8529 44.0582C22.681 43.886 22.681 43.886 22.5905 43.6144C22.5308 43.6144 22.471 43.6144 22.4095 43.6144C22.3891 43.6666 22.3686 43.7188 22.3476 43.7725C22.1943 44.035 22.0153 44.1653 21.7701 44.3443C21.6888 44.4051 21.6075 44.4659 21.5237 44.5285C20.6298 45.0574 19.7328 45.0116 18.7291 45.0089C18.5576 45.0094 18.3861 45.01 18.2145 45.0108C17.7503 45.0124 17.2861 45.0123 16.8219 45.0118C16.4336 45.0115 16.0453 45.012 15.6571 45.0126C14.7407 45.0139 13.8243 45.0137 12.9079 45.0127C11.9642 45.0116 11.0205 45.0129 10.0767 45.0153C9.26494 45.0173 8.45316 45.0179 7.64137 45.0174C7.15719 45.0171 6.67303 45.0173 6.18886 45.0189C5.73337 45.0203 5.27792 45.0199 4.82243 45.0182C4.65585 45.0179 4.48927 45.0182 4.32269 45.0191C3.03799 45.0259 2.01761 44.9044 1.0456 43.9765C-0.0213968 42.8588 -0.00304102 41.6491 0.00297429 40.1908C0.00248308 39.9907 0.00183804 39.7906 0.00105152 39.5905C-0.000593838 39.0492 3.94615e-05 38.5079 0.00118965 37.9667C0.00210915 37.3991 0.00125457 36.8314 0.000686858 36.2638C-1.32067e-05 35.2498 0.00110787 34.2358 0.00295219 33.2218C0.00456977 32.3041 0.00428988 31.3864 0.00262068 30.4687C0.000678989 29.4007 -3.60338e-05 28.3327 0.00103218 27.2646C0.00159546 26.7001 0.00167371 26.1356 0.000474138 25.5711C-0.000575149 25.0403 0.000161139 24.5095 0.00224773 23.9786C0.00272476 23.7843 0.00259341 23.59 0.0017919 23.3957C-0.00332301 22.0292 0.0544106 20.9352 1.0456 19.8969C2.01046 18.9758 3.03847 18.8473 4.32366 18.86C4.46918 18.8601 4.6147 18.8601 4.76022 18.8599C5.15238 18.8598 5.54449 18.8619 5.93664 18.8644C6.34753 18.8667 6.75843 18.8669 7.16932 18.8673C7.94612 18.8684 8.72289 18.8714 9.49968 18.8751C10.3846 18.8791 11.2695 18.8811 12.1544 18.8829C13.9735 18.8867 15.7926 18.8931 17.6117 18.9011C17.522 18.1842 17.522 18.1842 17.4306 17.4527C13.3678 17.4527 9.30509 17.4527 5.11922 17.4527C5.11922 16.3176 5.11922 15.1824 5.11922 14.0128C6.68825 13.2806 6.68825 13.2806 7.27131 13.0181C7.33967 12.9872 7.40804 12.9564 7.47847 12.9246C7.69909 12.8252 7.91978 12.7259 8.14049 12.6266C8.2176 12.5919 8.29472 12.5572 8.37416 12.5215C9.97203 11.8027 11.5757 11.0974 13.1809 10.3953C13.8454 10.1047 14.5094 9.81279 15.1731 9.52049C15.2668 9.47925 15.3605 9.43801 15.4571 9.39551C15.6623 9.30517 15.8675 9.21482 16.0727 9.12445C16.0665 9.06054 16.0603 8.99662 16.0539 8.93078C15.846 6.64566 15.7822 4.35337 17.3051 2.48643C19.5815 -0.147619 23.5694 -0.907001 26.4553 1.27411ZM19.4222 2.60665C19.3647 2.64633 19.3073 2.686 19.2482 2.72688C18.2514 3.4859 17.7141 4.70298 17.4872 5.8995C17.4268 6.42275 17.4418 6.90774 17.4956 7.43091C17.5038 7.51285 17.512 7.59479 17.5204 7.67921C17.634 8.76761 17.7999 9.84882 17.9628 10.9307C17.9969 11.1591 18.0309 11.3876 18.0649 11.616C18.1355 12.0902 18.2065 12.5643 18.2778 13.0383C18.3602 13.5863 18.442 14.1343 18.5234 14.6824C18.6023 15.2129 18.6815 15.7432 18.761 16.2736C18.7946 16.4983 18.8281 16.7231 18.8615 16.948C18.908 17.2597 18.9549 17.5715 19.0019 17.8832C19.0157 17.9764 19.0295 18.0695 19.0437 18.1656C19.0565 18.2498 19.0693 18.334 19.0825 18.4207C19.0935 18.4943 19.1045 18.5678 19.1159 18.6436C19.1348 18.8114 19.1348 18.8114 19.2411 18.9011C19.4182 18.9133 19.5956 18.9221 19.7729 18.9294C20.819 19.0072 21.5572 19.3538 22.319 20.078C22.3488 20.1377 22.3787 20.1975 22.4095 20.259C22.4692 20.259 22.529 20.259 22.5905 20.259C22.6372 20.1955 22.6839 20.132 22.732 20.0666C23.2893 19.4093 24.0481 19.0532 24.895 18.9556C25.183 18.9325 25.4703 18.9141 25.7589 18.9011C25.9304 18.3604 26.0184 17.8206 26.1003 17.26C26.1152 17.1604 26.1301 17.0608 26.1455 16.9582C26.1944 16.6298 26.2428 16.3013 26.2911 15.9729C26.3251 15.7434 26.3591 15.5139 26.3932 15.2845C26.4644 14.8035 26.5354 14.3225 26.6061 13.8415C26.6875 13.2885 26.7694 12.7356 26.8517 12.1827C26.9313 11.6479 27.0104 11.1129 27.0892 10.578C27.1226 10.3519 27.1562 10.1258 27.1898 9.89968C27.734 6.67599 27.734 6.67599 26.6357 3.6859C25.8205 2.59425 24.7408 1.90446 23.4053 1.61088C21.8937 1.48248 20.6657 1.70006 19.4222 2.60665ZM28.5652 10.7539C28.2574 12.498 28.0069 14.2519 27.7504 16.0043C31.2755 16.0043 34.8005 16.0043 38.4324 16.0043C38.4324 15.7056 38.4324 15.4069 38.4324 15.0991C37.5329 14.6345 36.6184 14.2169 35.6898 13.8142C35.2834 13.6379 34.8775 13.4604 34.4716 13.2829C34.3881 13.2464 34.3045 13.2099 34.2185 13.1723C33.1508 12.7046 32.0889 12.2241 31.0272 11.743C29.8294 11.0913 29.8294 11.0913 28.5652 10.7539ZM15.5515 11.0531C15.4431 11.1007 15.4431 11.1007 15.3324 11.1492C15.0925 11.2547 14.8527 11.3607 14.613 11.4668C14.4455 11.5406 14.278 11.6144 14.1105 11.6882C12.7999 12.2663 11.4931 12.8528 10.1877 13.4425C9.22332 13.878 8.25701 14.3083 7.28634 14.7295C7.20331 14.7657 7.12029 14.8019 7.03474 14.8392C6.96345 14.8701 6.89216 14.9009 6.81871 14.9327C6.65978 14.9967 6.65978 14.9967 6.56762 15.0991C6.56762 15.3978 6.56762 15.6966 6.56762 16.0043C10.0927 16.0043 13.6177 16.0043 17.2496 16.0043C16.9948 13.3429 16.9948 13.3429 16.4348 10.7539C16.1186 10.7539 15.8371 10.9265 15.5515 11.0531ZM2.16549 21.0412C1.55128 21.722 1.48435 22.3989 1.48612 23.2968C1.48592 23.3736 1.48571 23.4504 1.4855 23.5295C1.48493 23.7861 1.485 24.0427 1.48508 24.2993C1.48481 24.4836 1.4845 24.6679 1.48415 24.8521C1.48335 25.3523 1.48314 25.8524 1.48308 26.3525C1.48302 26.6651 1.48283 26.9777 1.48259 27.2903C1.48175 28.3812 1.48138 29.4721 1.48145 30.563C1.48151 31.5793 1.48055 32.5956 1.47912 33.6119C1.47794 34.485 1.47745 35.358 1.47751 36.2311C1.47753 36.7523 1.47728 37.2735 1.47632 37.7947C1.47544 38.285 1.47543 38.7753 1.47609 39.2656C1.47619 39.4453 1.47597 39.6249 1.47543 39.8046C1.47473 40.0504 1.47515 40.2963 1.47585 40.5422C1.47538 40.6127 1.47491 40.6832 1.47443 40.7559C1.47945 41.5613 1.59766 42.2686 2.18989 42.8566C2.84029 43.4434 3.47169 43.5349 4.33551 43.536C4.40046 43.5362 4.46541 43.5364 4.53233 43.5366C4.74892 43.5372 4.96551 43.5371 5.1821 43.5371C5.33782 43.5373 5.49355 43.5376 5.64927 43.538C6.07161 43.5388 6.49394 43.539 6.91628 43.539C7.18035 43.5391 7.44442 43.5393 7.70849 43.5395C8.63036 43.5404 9.55223 43.5407 10.4741 43.5407C11.3324 43.5406 12.1907 43.5416 13.0491 43.543C13.7868 43.5442 14.5246 43.5447 15.2623 43.5446C15.7026 43.5446 16.1428 43.5449 16.5831 43.5458C16.9973 43.5467 17.4115 43.5467 17.8258 43.546C17.9774 43.5459 18.129 43.5462 18.2806 43.5467C19.7078 43.5835 19.7078 43.5835 20.9611 42.9808C21.6763 42.2604 21.7899 41.5763 21.7879 40.5766C21.7882 40.4615 21.7882 40.4615 21.7885 40.344C21.7891 40.0874 21.789 39.8307 21.789 39.5741C21.7892 39.3899 21.7895 39.2056 21.7899 39.0213C21.7907 38.5212 21.7909 38.021 21.7909 37.5209C21.791 37.2083 21.7912 36.8957 21.7914 36.5831C21.7923 35.4922 21.7926 34.4013 21.7926 33.3104C21.7925 32.2941 21.7935 31.2778 21.7949 30.2615C21.7961 29.3885 21.7966 28.5154 21.7965 27.6424C21.7965 27.1212 21.7968 26.6 21.7977 26.0788C21.7986 25.5884 21.7986 25.0981 21.7979 24.6078C21.7978 24.4281 21.7981 24.2485 21.7986 24.0689C21.7993 23.823 21.7989 23.5771 21.7982 23.3313C21.7989 23.2255 21.7989 23.2255 21.7996 23.1176C21.7946 22.3121 21.6764 21.6048 21.0841 21.0168C20.4337 20.43 19.8023 20.3386 18.9385 20.3374C18.8411 20.3371 18.8411 20.3371 18.7417 20.3368C18.5251 20.3362 18.3085 20.3363 18.0919 20.3364C17.9362 20.3361 17.7805 20.3358 17.6248 20.3355C17.2024 20.3347 16.7801 20.3344 16.3577 20.3344C16.0937 20.3343 15.8296 20.3341 15.5655 20.3339C14.6437 20.3331 13.7218 20.3327 12.7999 20.3328C11.9416 20.3328 11.0833 20.3319 10.225 20.3304C9.48722 20.3292 8.74947 20.3288 8.01173 20.3288C7.57147 20.3288 7.13123 20.3286 6.69097 20.3276C6.27674 20.3267 5.86251 20.3267 5.44827 20.3274C5.29665 20.3275 5.14503 20.3273 4.99341 20.3267C3.45525 20.2898 3.45525 20.2898 2.16549 21.0412ZM23.8915 21.0412C23.2773 21.722 23.2103 22.3989 23.2121 23.2968C23.2119 23.3736 23.2117 23.4504 23.2115 23.5295C23.2109 23.7861 23.211 24.0427 23.2111 24.2993C23.2108 24.4836 23.2105 24.6679 23.2101 24.8521C23.2093 25.3523 23.2091 25.8524 23.2091 26.3525C23.209 26.6651 23.2088 26.9777 23.2086 27.2903C23.2077 28.3812 23.2074 29.4721 23.2074 30.563C23.2075 31.5793 23.2065 32.5956 23.2051 33.6119C23.2039 34.485 23.2034 35.358 23.2035 36.2311C23.2035 36.7523 23.2032 37.2735 23.2023 37.7947C23.2014 38.285 23.2014 38.7753 23.2021 39.2656C23.2022 39.4453 23.2019 39.6249 23.2014 39.8046C23.2007 40.0504 23.2011 40.2963 23.2018 40.5422C23.2014 40.6127 23.2009 40.6832 23.2004 40.7559C23.2054 41.5613 23.3236 42.2686 23.9159 42.8566C24.5663 43.4434 25.1977 43.5349 26.0615 43.536C26.1264 43.5362 26.1914 43.5364 26.2583 43.5366C26.4749 43.5372 26.6915 43.5371 26.9081 43.5371C27.0638 43.5373 27.2195 43.5376 27.3752 43.538C27.7976 43.5388 28.2199 43.539 28.6423 43.539C28.9063 43.5391 29.1704 43.5393 29.4345 43.5395C30.3563 43.5404 31.2782 43.5407 32.2001 43.5407C33.0584 43.5406 33.9167 43.5416 34.775 43.543C35.5128 43.5442 36.2505 43.5447 36.9883 43.5446C37.4285 43.5446 37.8688 43.5449 38.309 43.5458C38.7233 43.5467 39.1375 43.5467 39.5517 43.546C39.7034 43.5459 39.855 43.5462 40.0066 43.5467C41.4338 43.5835 41.4338 43.5835 42.6871 42.9808C43.4023 42.2604 43.5159 41.5763 43.5139 40.5766C43.5142 40.4615 43.5142 40.4615 43.5145 40.344C43.5151 40.0874 43.515 39.8307 43.5149 39.5741C43.5152 39.3899 43.5155 39.2056 43.5158 39.0213C43.5166 38.5212 43.5169 38.021 43.5169 37.5209C43.517 37.2083 43.5172 36.8957 43.5174 36.5831C43.5183 35.4922 43.5186 34.4013 43.5186 33.3104C43.5185 32.2941 43.5195 31.2778 43.5209 30.2615C43.5221 29.3885 43.5225 28.5154 43.5225 27.6424C43.5225 27.1212 43.5227 26.6 43.5237 26.0788C43.5246 25.5884 43.5246 25.0981 43.5239 24.6078C43.5238 24.4281 43.524 24.2485 43.5246 24.0689C43.5253 23.823 43.5249 23.5771 43.5242 23.3313C43.5249 23.2255 43.5249 23.2255 43.5256 23.1176C43.5206 22.3121 43.4023 21.6048 42.8101 21.0168C42.1597 20.43 41.5283 20.3386 40.6645 20.3374C40.5671 20.3371 40.5671 20.3371 40.4677 20.3368C40.2511 20.3362 40.0345 20.3363 39.8179 20.3364C39.6622 20.3361 39.5065 20.3358 39.3507 20.3355C38.9284 20.3347 38.5061 20.3344 38.0837 20.3344C37.8197 20.3343 37.5556 20.3341 37.2915 20.3339C36.3696 20.3331 35.4478 20.3327 34.5259 20.3328C33.6676 20.3328 32.8093 20.3319 31.9509 20.3304C31.2132 20.3292 30.4754 20.3288 29.7377 20.3288C29.2974 20.3288 28.8572 20.3286 28.4169 20.3276C28.0027 20.3267 27.5885 20.3267 27.1742 20.3274C27.0226 20.3275 26.871 20.3273 26.7194 20.3267C25.1812 20.2898 25.1812 20.2898 23.8915 21.0412Z" fill="white"/>
<path d="M38.7039 23.5179C40.4615 24.9509 41.7867 26.9289 42.0533 29.221C42.235 31.7904 41.7918 34.0405 40.1382 36.0687C38.6515 37.7726 36.6367 39.0368 34.339 39.1993C31.7486 39.3145 29.5427 38.7993 27.5524 37.0627C25.8739 35.4889 24.7414 33.4761 24.6379 31.1482C24.5735 28.5682 25.1961 26.3762 26.9958 24.4567C30.1194 21.2861 35.1306 20.7857 38.7039 23.5179ZM28.2936 25.4189C28.2283 25.4816 28.1631 25.5443 28.0959 25.6088C27.8731 25.8261 27.8731 25.8261 27.6599 26.0526C27.6599 26.0825 27.6599 26.1123 27.6599 26.1431C28.4366 26.1431 29.2133 26.1431 30.0135 26.1431C30.1349 25.9097 30.2562 25.6764 30.3813 25.4359C30.7123 24.8052 31.0645 24.2001 31.4619 23.6084C30.2813 23.6084 29.0928 24.649 28.2936 25.4189ZM35.264 23.6084C35.3184 23.6895 35.3184 23.6895 35.3739 23.7722C35.8748 24.5366 36.2908 25.3323 36.7124 26.1431C37.4891 26.1431 38.2658 26.1431 39.066 26.1431C38.057 24.966 37.0379 24.1044 35.5355 23.6084C35.4459 23.6084 35.3563 23.6084 35.264 23.6084ZM33.2724 23.7895C32.2864 24.8672 32.2864 24.8672 31.7335 26.1431C32.8089 26.1431 33.8844 26.1431 34.9924 26.1431C34.7247 25.6078 34.4669 25.1465 34.1324 24.6608C34.0896 24.5965 34.0468 24.5322 34.0026 24.4659C33.9394 24.3737 33.9394 24.3737 33.875 24.2796C33.8375 24.2245 33.7999 24.1693 33.7613 24.1125C33.6146 23.9482 33.4735 23.8757 33.2724 23.7895ZM26.7546 27.5915C26.6818 27.7988 26.609 28.006 26.534 28.2195C26.5112 28.283 26.4884 28.3465 26.4649 28.4119C26.3036 28.8836 26.2693 29.244 26.2115 29.7641C27.1376 29.7641 28.0636 29.7641 29.0178 29.7641C29.0775 29.4729 29.1372 29.1816 29.1988 28.8815C29.2177 28.7903 29.2366 28.6991 29.2561 28.6051C29.2708 28.5325 29.2855 28.4598 29.3006 28.385C29.3158 28.3111 29.331 28.2371 29.3466 28.1609C29.3894 27.929 29.3894 27.929 29.3799 27.5915C28.5135 27.5915 27.6472 27.5915 26.7546 27.5915ZM31.0998 27.5915C31.0409 27.7366 30.9821 27.8818 30.9235 28.027C30.8907 28.1079 30.858 28.1887 30.8243 28.272C30.7336 28.5075 30.6691 28.735 30.6246 28.9833C30.611 29.055 30.5975 29.1266 30.5835 29.2005C30.5487 29.428 30.5487 29.428 30.5567 29.7641C32.4088 29.7641 34.261 29.7641 36.1692 29.7641C36.1081 29.2141 36.0501 28.786 35.8976 28.2705C35.8659 28.1612 35.8342 28.052 35.8015 27.9395C35.7419 27.6937 35.7419 27.6937 35.6261 27.5915C35.4844 27.5831 35.3423 27.5809 35.2003 27.5812C35.0644 27.5813 35.0644 27.5813 34.9257 27.5813C34.8272 27.5817 34.7286 27.5822 34.6271 27.5827C34.4766 27.5829 34.4766 27.5829 34.3231 27.5831C34.0011 27.5836 33.6792 27.5847 33.3573 27.5859C33.1396 27.5863 32.922 27.5867 32.7043 27.5871C32.1695 27.5881 31.6347 27.5896 31.0998 27.5915ZM37.346 27.5915C37.4135 28.1509 37.4135 28.1509 37.5048 28.7033C37.5156 28.7603 37.5264 28.8173 37.5375 28.876C37.5509 28.945 37.5643 29.0141 37.578 29.0852C37.621 29.3092 37.6639 29.5333 37.7081 29.7641C38.6342 29.7641 39.5603 29.7641 40.5144 29.7641C40.4509 29.1923 40.3806 28.7447 40.1919 28.2195C40.1191 28.0123 40.0463 27.8051 39.9713 27.5915C39.1049 27.5915 38.2386 27.5915 37.346 27.5915ZM26.2115 31.2125C26.275 31.7844 26.3453 32.2319 26.534 32.7571C26.6068 32.9643 26.6796 33.1716 26.7546 33.3851C27.621 33.3851 28.4873 33.3851 29.3799 33.3851C29.3124 32.8258 29.3124 32.8258 29.2211 32.2734C29.2103 32.2164 29.1995 32.1594 29.1883 32.1006C29.175 32.0316 29.1616 31.9626 29.1479 31.8915C29.1049 31.6674 29.062 31.4434 29.0178 31.2125C28.0917 31.2125 27.1656 31.2125 26.2115 31.2125ZM30.5567 31.2125C30.6178 31.7626 30.6758 32.1907 30.8282 32.7062C30.86 32.8154 30.8917 32.9246 30.9244 33.0372C30.984 33.2829 30.984 33.2829 31.0998 33.3851C31.2415 33.3936 31.3836 33.3958 31.5256 33.3954C31.6615 33.3954 31.6615 33.3954 31.8002 33.3954C31.8987 33.3949 31.9973 33.3944 32.0988 33.394C32.1991 33.3938 32.2995 33.3937 32.4028 33.3936C32.7248 33.3931 33.0467 33.3919 33.3686 33.3908C33.5863 33.3903 33.8039 33.3899 34.0216 33.3895C34.5564 33.3885 35.0912 33.387 35.6261 33.3851C35.685 33.24 35.7438 33.0948 35.8024 32.9496C35.8515 32.8283 35.8515 32.8283 35.9016 32.7046C35.9923 32.4692 36.0568 32.2416 36.1013 31.9933C36.1149 31.9216 36.1284 31.85 36.1423 31.7762C36.1772 31.5487 36.1772 31.5487 36.1692 31.2125C34.3171 31.2125 32.4649 31.2125 30.5567 31.2125ZM37.7081 31.2125C37.6484 31.5038 37.5886 31.795 37.5271 32.0951C37.5082 32.1864 37.4893 32.2776 37.4698 32.3716C37.4551 32.4442 37.4404 32.5168 37.4253 32.5916C37.4025 32.7025 37.4025 32.7025 37.3793 32.8157C37.3365 33.0476 37.3365 33.0476 37.346 33.3851C38.2124 33.3851 39.0787 33.3851 39.9713 33.3851C40.0441 33.1779 40.1169 32.9706 40.1919 32.7571C40.2261 32.6619 40.2261 32.6619 40.261 32.5648C40.4223 32.0931 40.4566 31.7326 40.5144 31.2125C39.5883 31.2125 38.6623 31.2125 37.7081 31.2125ZM27.6599 34.8335C28.6459 35.9839 29.6926 36.9332 31.1903 37.3682C31.28 37.3383 31.3696 37.3085 31.4619 37.2777C31.4105 37.1999 31.359 37.122 31.306 37.0418C30.8349 36.3229 30.4114 35.5955 30.0135 34.8335C29.2368 34.8335 28.4601 34.8335 27.6599 34.8335ZM31.7335 34.8335C32.0012 35.3689 32.259 35.8301 32.5935 36.3159C32.6363 36.3802 32.6791 36.4445 32.7233 36.5107C32.7654 36.5722 32.8075 36.6337 32.8509 36.6971C32.8884 36.7522 32.9259 36.8073 32.9646 36.8641C33.1113 37.0284 33.2524 37.1009 33.4535 37.1872C34.4395 36.1094 34.4395 36.1094 34.9924 34.8335C33.917 34.8335 32.8415 34.8335 31.7335 34.8335ZM36.7124 34.8335C36.591 35.0669 36.4696 35.3003 36.3446 35.5407C36.0136 36.1714 35.6614 36.7766 35.264 37.3682C36.8981 37.1389 38.0367 36.0344 39.066 34.8335C38.2893 34.8335 37.5126 34.8335 36.7124 34.8335Z" fill="white"/>
<path d="M14.1095 22.4601C15.0364 23.1601 15.8048 24.0531 15.9822 25.2381C16.1272 27.0072 15.7318 28.1158 14.6244 29.4928C14.6881 29.516 14.7518 29.5392 14.8174 29.5631C17.0089 30.4129 18.6981 32.0779 19.6938 34.2001C20.3823 35.8461 20.3274 37.3401 20.3274 39.1789C14.5918 39.1789 8.85612 39.1789 2.94666 39.1789C2.94666 36.0453 3.23322 33.8074 5.40568 31.5579C6.31043 30.6606 7.41283 29.8591 8.64972 29.4928C8.57131 29.4088 8.49289 29.3247 8.4121 29.2382C7.65725 28.3548 7.23799 27.3183 7.25225 26.1603C7.253 26.0811 7.25375 26.0019 7.25452 25.9203C7.28639 24.6933 7.76081 23.7981 8.58749 22.9071C10.0626 21.511 12.4272 21.3436 14.1095 22.4601ZM9.37392 24.3329C8.83468 25.127 8.75757 25.8234 8.83077 26.777C9.02846 27.6141 9.47884 28.174 10.2 28.6215C10.9115 29.036 11.732 29.0769 12.5327 28.8877C13.4275 28.5565 13.936 27.9867 14.3528 27.1391C14.604 26.4023 14.522 25.4965 14.1944 24.8014C13.8019 24.1182 13.2162 23.6265 12.4617 23.3693C11.2585 23.1665 10.192 23.402 9.37392 24.3329ZM10.1886 30.6696C10.3938 31.0424 10.6408 31.3369 10.9298 31.6484C10.9718 31.6939 11.0137 31.7393 11.0569 31.7861C11.1594 31.8971 11.2624 32.0076 11.3655 32.118C11.7263 31.9779 11.9072 31.7485 12.1462 31.4504C12.2165 31.3638 12.2867 31.2772 12.3591 31.188C12.508 30.9874 12.6231 30.8065 12.7233 30.5791C11.8399 30.4688 11.0607 30.5237 10.1886 30.6696ZM14.3528 31.1222C14.3055 31.1815 14.2583 31.2408 14.2096 31.3019C13.6783 31.9606 13.1196 32.586 12.5423 33.2043C12.8141 33.4916 13.1033 33.7214 13.4249 33.9511C13.5586 34.047 13.5586 34.047 13.6951 34.1449C13.7628 34.193 13.8304 34.2411 13.9002 34.2906C14.0883 34.0083 14.1842 33.7574 14.2969 33.438C14.3168 33.3822 14.3366 33.3263 14.357 33.2687C14.4201 33.0908 14.4826 32.9128 14.5452 32.7347C14.5879 32.6138 14.6307 32.4929 14.6735 32.3721C14.7782 32.0763 14.8825 31.7804 14.9865 31.4843C14.7806 31.2643 14.6531 31.174 14.3528 31.1222ZM8.01605 31.4843C8.07015 32.0897 8.26965 32.6291 8.47433 33.1986C8.50846 33.2951 8.5426 33.3915 8.57776 33.4909C8.66157 33.7275 8.74592 33.9639 8.83077 34.2001C9.21686 34.2001 9.41921 33.9788 9.70773 33.7474C9.76264 33.7043 9.81754 33.6611 9.87411 33.6166C10.0096 33.5099 10.1444 33.4025 10.2792 33.2948C9.91974 32.7902 9.52682 32.3287 9.10694 31.8733C8.9213 31.6654 8.9213 31.6654 8.77808 31.4575C8.73573 31.4066 8.69337 31.3557 8.64972 31.3033C8.3686 31.3033 8.2557 31.3521 8.01605 31.4843ZM16.2538 32.299C15.746 33.733 15.2381 35.1669 14.7149 36.6442C14.3637 36.5038 14.1796 36.4197 13.8998 36.1969C13.8333 36.1444 13.7667 36.0919 13.6981 36.0378C13.6285 35.9821 13.5589 35.9265 13.4871 35.8691C13.3415 35.7549 13.1958 35.6407 13.0501 35.5265C12.7984 35.3279 12.5486 35.1275 12.3004 34.9246C12.2057 34.8491 12.1109 34.7735 12.0161 34.698C11.9353 34.6317 11.8544 34.5654 11.7711 34.4971C11.5531 34.3514 11.5531 34.3514 11.3288 34.4478C11.1038 34.5573 10.9267 34.673 10.7314 34.8284C10.6649 34.8809 10.5983 34.9334 10.5297 34.9875C10.4601 35.0432 10.3905 35.0989 10.3188 35.1562C10.1734 35.2709 10.0279 35.3854 9.88242 35.5C9.81144 35.556 9.74046 35.6121 9.66733 35.6699C9.39245 35.8862 9.11545 36.0995 8.83643 36.3104C8.75346 36.3736 8.67049 36.4367 8.58501 36.5017C8.37815 36.6442 8.37815 36.6442 8.10657 36.7348C8.09347 36.6815 8.08036 36.6282 8.06686 36.5732C7.8525 35.7438 7.56322 34.9436 7.27488 34.1378C7.22375 33.9941 7.17265 33.8504 7.12159 33.7066C6.99767 33.358 6.87331 33.0095 6.7487 32.6611C6.65908 32.6611 6.56946 32.6611 6.47713 32.6611C6.30545 32.8362 6.15728 33.006 6.00753 33.1986C5.96365 33.2551 5.91978 33.3115 5.87457 33.3696C4.87864 34.7007 4.48558 36.0742 4.48558 37.7305C9.20555 37.7305 13.9255 37.7305 18.7885 37.7305C18.7885 35.9333 18.2539 34.3858 17.0685 33.0232C17.0265 32.9695 16.9845 32.9157 16.9412 32.8602C16.7207 32.5785 16.584 32.4641 16.2538 32.299Z" fill="white"/>
<path d="M18.879 4.41724C21.2689 4.41724 23.6588 4.41724 26.121 4.41724C26.1285 5.12859 26.136 5.83995 26.1437 6.57286C26.147 6.79537 26.1503 7.01788 26.1537 7.24713C26.1547 7.42655 26.1556 7.60598 26.1564 7.7854C26.1582 7.87608 26.1601 7.96676 26.162 8.06019C26.1625 9.08704 25.8356 9.91933 25.1253 10.6635C24.29 11.4608 23.4188 11.7159 22.286 11.7018C21.2153 11.6595 20.4324 11.2475 19.6962 10.4764C19.0174 9.67072 18.8226 8.81945 18.8437 7.7854C18.844 7.6992 18.8444 7.61301 18.8448 7.5242C18.8467 7.20707 18.8517 6.88996 18.8564 6.57286C18.8639 5.8615 18.8713 5.15015 18.879 4.41724ZM20.3274 5.86563C20.1931 7.73267 20.1931 7.73267 20.8706 9.3961C21.3593 9.88133 21.7759 10.145 22.4831 10.1543C23.0997 10.1406 23.4972 10.0145 23.946 9.58882C24.9508 8.49732 24.6726 7.39655 24.6726 5.86563C23.2387 5.86563 21.8048 5.86563 20.3274 5.86563Z" fill="white"/>
<path d="M5.84338 40.6272C10.6231 40.6272 15.4028 40.6272 20.3274 40.6272C20.3274 41.1052 20.3274 41.5831 20.3274 42.0756C15.5477 42.0756 10.7679 42.0756 5.84338 42.0756C5.84338 41.5976 5.84338 41.1197 5.84338 40.6272Z" fill="white"/>
<path d="M30.4662 40.6272C34.29 40.6272 38.1137 40.6272 42.0534 40.6272C42.0534 41.1052 42.0534 41.5831 42.0534 42.0756C38.2296 42.0756 34.4058 42.0756 30.4662 42.0756C30.4662 41.5976 30.4662 41.1197 30.4662 40.6272Z" fill="white"/>
<path d="M27.5693 40.6272C28.0473 40.6272 28.5253 40.6272 29.0177 40.6272C29.0177 41.1052 29.0177 41.5831 29.0177 42.0756C28.5398 42.0756 28.0618 42.0756 27.5693 42.0756C27.5693 41.5976 27.5693 41.1197 27.5693 40.6272Z" fill="white"/>
<path d="M24.6726 40.6272C25.1506 40.6272 25.6286 40.6272 26.121 40.6272C26.121 41.1052 26.121 41.5831 26.121 42.0756C25.643 42.0756 25.1651 42.0756 24.6726 42.0756C24.6726 41.5976 24.6726 41.1197 24.6726 40.6272Z" fill="white"/>
<path d="M2.94666 40.6272C3.42463 40.6272 3.9026 40.6272 4.39505 40.6272C4.39505 41.1052 4.39505 41.5831 4.39505 42.0756C3.91708 42.0756 3.43911 42.0756 2.94666 42.0756C2.94666 41.5976 2.94666 41.1197 2.94666 40.6272Z" fill="white"/>
</svg>
